<?xml version="1.0" standalone="no"?>
<!DOCTYPE svg PUBLIC "-//W3C//DTD SVG 1.1//EN" "http://www.w3.org/Graphics/SVG/1.1/DTD/svg11.dtd" >
<svg xmlns="http://www.w3.org/2000/svg" xmlns:xlink="http://www.w3.org/1999/xlink" version="1.1">
<metadata>
Created by FontForge 20170731 at Wed Sep 20 00:59:56 2017
 By Aleksey,,,
Copyright 2015 Google Inc. All Rights Reserved.
</metadata>
<defs>
<font id="NotoSansDisplay-ExtraBold" horiz-adv-x="0" >
  <font-face 
    font-family="Noto Sans Disp ExtBd"
    font-weight="800"
    font-stretch="normal"
    units-per-em="1000"
    panose-1="2 11 9 2 4 5 4 2 2 4"
    ascent="800"
    descent="-200"
    x-height="549"
    cap-height="714"
    bbox="-683 -389 2745 1094"
    underline-thickness="50"
    underline-position="-175"
    unicode-range="U+000D-FFFD"
  />
<missing-glyph horiz-adv-x="547" 
d="M80 0v714h386v-714h-386zM128 51h290v612h-290v-612z" />
    <glyph glyph-name="f_f" unicode="ff" horiz-adv-x="776" 
d="M380 423h-111v-423h-179v423h-69v82l73 43v26q0 106 41 148.5t135 42.5q40 0 73 -6.5t69 -17.5l-39 -116q-13 5 -29 8.5t-35 3.5q-40 0 -40 -63v-25h111v-126zM768 423h-111v-423h-179v423h-69v82l73 43v26q0 106 41 148.5t135 42.5q40 0 73 -6.5t69 -17.5l-39 -116
q-13 5 -29 8.5t-35 3.5q-40 0 -40 -63v-25h111v-126z" />
    <glyph glyph-name="f_i" unicode="fi" horiz-adv-x="693" 
d="M380 423h-111v-423h-179v423h-69v82l73 43v26q0 106 41 148.5t135 42.5q40 0 73 -6.5t69 -17.5l-39 -116q-13 5 -29 8.5t-35 3.5q-40 0 -40 -63v-25h111v-126zM542 767q38 0 66 -16t28 -62q0 -45 -28 -61.5t-66 -16.5q-40 0 -68 16.5t-28 61.5q0 46 28 62t68 16zM630 549
v-549h-179v549h179z" />
    <glyph glyph-name="f_l" unicode="fl" horiz-adv-x="692" 
d="M380 423h-111v-423h-179v423h-69v82l73 43v26q0 106 41 148.5t135 42.5q40 0 73 -6.5t69 -17.5l-39 -116q-13 5 -29 8.5t-35 3.5q-40 0 -40 -63v-25h111v-126zM630 0h-180v760h180v-760z" />
    <glyph glyph-name="f_f_i" unicode="ffi" horiz-adv-x="1081" 
d="M380 423h-111v-423h-179v423h-69v82l73 43v26q0 106 41 148.5t135 42.5q40 0 73 -6.5t69 -17.5l-39 -116q-13 5 -29 8.5t-35 3.5q-40 0 -40 -63v-25h111v-126zM768 423h-111v-423h-179v423h-69v82l73 43v26q0 106 41 148.5t135 42.5q40 0 73 -6.5t69 -17.5l-39 -116
q-13 5 -29 8.5t-35 3.5q-40 0 -40 -63v-25h111v-126zM930 767q38 0 66 -16t28 -62q0 -45 -28 -61.5t-66 -16.5q-40 0 -68 16.5t-28 61.5q0 46 28 62t68 16zM1018 549v-549h-179v549h179z" />
    <glyph glyph-name="f_f_l" unicode="ffl" horiz-adv-x="1080" 
d="M380 423h-111v-423h-179v423h-69v82l73 43v26q0 106 41 148.5t135 42.5q40 0 73 -6.5t69 -17.5l-39 -116q-13 5 -29 8.5t-35 3.5q-40 0 -40 -63v-25h111v-126zM768 423h-111v-423h-179v423h-69v82l73 43v26q0 106 41 148.5t135 42.5q40 0 73 -6.5t69 -17.5l-39 -116
q-13 5 -29 8.5t-35 3.5q-40 0 -40 -63v-25h111v-126zM1018 0h-180v760h180v-760z" />
    <glyph glyph-name=".notdef" horiz-adv-x="547" 
d="M80 0v714h386v-714h-386zM128 51h290v612h-290v-612z" />
    <glyph glyph-name=".null" 
 />
    <glyph glyph-name="nonmarkingreturn" horiz-adv-x="333" 
 />
    <glyph glyph-name="NULL" 
 />
    <glyph glyph-name="NULL" 
 />
    <glyph glyph-name="CR" unicode="&#xd;" horiz-adv-x="244" 
 />
    <glyph glyph-name="space" unicode=" " horiz-adv-x="244" 
 />
    <glyph glyph-name="exclam" unicode="!" horiz-adv-x="274" 
d="M213 244h-151l-24 470h199zM40 75q0 49 28.5 68.5t68.5 19.5q38 0 66 -19.5t28 -68.5q0 -47 -28 -67.5t-66 -20.5q-40 0 -68.5 20.5t-28.5 67.5z" />
    <glyph glyph-name="quotedbl" unicode="&#x22;" horiz-adv-x="491" 
d="M219 714l-19 -258h-126l-19 258h164zM436 714l-18 -258h-126l-19 258h163z" />
    <glyph glyph-name="numbersign" unicode="#" horiz-adv-x="622" 
d="M479 405l-15 -99h112v-111h-133l-35 -195h-122l33 195h-77l-33 -195h-121l32 195h-103v111h126l14 99h-109v114h132l32 194h123l-34 -194h77l33 194h123l-34 -194h105v-114h-126zM265 306h77l13 99h-76z" />
    <glyph glyph-name="dollar" unicode="$" horiz-adv-x="550" 
d="M229 -58v90q-60 2 -104 12.5t-84 28.5v140q44 -20 94.5 -34.5t93.5 -18.5v138q-58 24 -104 51.5t-72.5 65t-26.5 92.5q0 83 56 128t147 52v72h87v-70q57 -3 103.5 -15t84.5 -31l-40 -123q-34 16 -72 25.5t-76 13.5v-134q65 -21 111 -44t70.5 -59.5t24.5 -95.5
q0 -76 -49.5 -129t-156.5 -63v-92h-87zM229 452v105q-51 -7 -51 -46q0 -20 11.5 -33t39.5 -26zM316 163q54 11 54 52q0 19 -11.5 32t-42.5 27v-111z" />
    <glyph glyph-name="percent" unicode="%" horiz-adv-x="891" 
d="M187 724q79 0 127 -58.5t48 -164.5t-45 -165.5t-130 -59.5q-76 0 -123 59.5t-47 165.5t43.5 164.5t126.5 58.5zM697 714l-372 -714h-136l372 714h136zM190 614q-20 0 -27.5 -29t-7.5 -85t7.5 -86t27.5 -30t27 30t7 86t-7 85t-27 29zM698 439q79 0 126.5 -58.5
t47.5 -164.5t-44.5 -165.5t-129.5 -59.5q-76 0 -123.5 59.5t-47.5 165.5t44.5 164.5t126.5 58.5zM700 330q-20 0 -27.5 -30t-7.5 -85t7.5 -85t27.5 -30t27.5 29.5t7.5 85.5t-7.5 85.5t-27.5 29.5z" />
    <glyph glyph-name="ampersand" unicode="&#x26;" horiz-adv-x="751" 
d="M310 724q94 0 149.5 -43t55.5 -119q0 -66 -34 -112t-88 -81l92 -115q17 30 28.5 65t18.5 72h186q-14 -64 -44 -129t-65 -116l146 -146h-231l-45 53q-26 -19 -51.5 -33t-60.5 -22t-91 -8q-78 0 -132.5 26.5t-82.5 73t-28 105.5q0 71 32 118t93 82q-28 40 -44.5 77.5
t-16.5 83.5q0 75 54.5 121.5t158.5 46.5zM307 604q-19 0 -33.5 -12.5t-14.5 -43.5q0 -23 12.5 -44.5t28.5 -41.5q26 20 39.5 42.5t13.5 48.5q0 27 -13.5 39t-32.5 12zM255 298q-38 -37 -38 -89q0 -37 21 -59.5t55 -22.5q26 0 46 8t31 20z" />
    <glyph glyph-name="quotesingle" unicode="'" horiz-adv-x="274" 
d="M219 714l-19 -258h-126l-19 258h164z" />
    <glyph glyph-name="parenleft" unicode="(" horiz-adv-x="337" 
d="M34 279q0 122 29.5 237.5t100.5 206.5h148q-64 -94 -92 -209.5t-28 -233.5q0 -116 28 -231t92 -207h-148q-71 88 -100.5 202t-29.5 235z" />
    <glyph glyph-name="parenright" unicode=")" horiz-adv-x="337" 
d="M303 279q0 -121 -28.5 -235t-99.5 -202h-148q62 92 91 207t29 231q0 118 -29 233.5t-92 209.5h149q71 -91 99.5 -206.5t28.5 -237.5z" />
    <glyph glyph-name="asterisk" unicode="*" horiz-adv-x="504" 
d="M322 760l-17 -176l163 50l17 -133l-144 -11l95 -141l-119 -63l-66 147l-56 -146l-125 62l94 141l-143 13l20 131l161 -50l-18 176h138z" />
    <glyph glyph-name="plus" unicode="+" horiz-adv-x="552" 
d="M336 412h172v-119h-172v-182h-123v182h-170v119h170v184h123v-184z" />
    <glyph glyph-name="comma" unicode="," horiz-adv-x="272" 
d="M228 130l7 -11q-9 -36 -22 -81t-28 -90t-31 -82h-127q13 64 26 136t19 128h156z" />
    <glyph glyph-name="hyphen" unicode="-" horiz-adv-x="299" 
d="M20 200v136h259v-136h-259z" />
    <glyph glyph-name="period" unicode="." horiz-adv-x="272" 
d="M40 75q0 49 28.5 68.5t68.5 19.5q38 0 66 -19.5t28 -68.5q0 -47 -28 -67.5t-66 -20.5q-40 0 -68.5 20.5t-28.5 67.5z" />
    <glyph glyph-name="slash" unicode="/" horiz-adv-x="415" 
d="M414 719l-250 -724h-159l250 724h159z" />
    <glyph glyph-name="zero" unicode="0" horiz-adv-x="550" 
d="M517 357q0 -115 -23 -197t-76.5 -126t-142.5 -44q-127 0 -184.5 97t-57.5 270q0 115 23 197.5t76.5 126.5t142.5 44q125 0 183.5 -97t58.5 -271zM213 357q0 -115 12 -172.5t50 -57.5q37 0 49.5 57.5t12.5 172.5q0 114 -12.5 172.5t-49.5 58.5q-38 0 -50 -58.5t-12 -172.5
z" />
    <glyph glyph-name="one" unicode="1" horiz-adv-x="550" 
d="M432 0h-184v385v39t0.5 55t1.5 52q-11 -10 -21.5 -23.5t-20.5 -23.5l-75 -67l-94 106l230 191h163v-714z" />
    <glyph glyph-name="two" unicode="2" horiz-adv-x="550" 
d="M515 0h-487v115l164 179q51 56 79 91.5t39.5 63.5t11.5 59q0 38 -19.5 55.5t-45.5 17.5q-31 0 -64 -19t-73 -55l-99 109q30 28 64 52.5t80.5 40t112.5 15.5q68 0 118.5 -25.5t78 -69t27.5 -99.5q0 -45 -13.5 -82.5t-38 -72.5t-59 -74.5t-76.5 -89.5l-54 -63l-1 -6h255
v-142z" />
    <glyph glyph-name="three" unicode="3" horiz-adv-x="550" 
d="M493 556q0 -50 -20.5 -86t-54.5 -59.5t-74 -34.5v-3q80 -11 124 -52.5t44 -114.5q0 -60 -29.5 -109t-91 -78t-159.5 -29q-64 0 -110 10t-90 29v143q44 -24 90 -35.5t84 -11.5q66 0 90.5 24.5t24.5 67.5q0 27 -11.5 46t-42.5 29t-89 10h-41v129h42q77 0 107.5 24.5
t30.5 61.5q0 34 -20.5 52t-54.5 18q-46 0 -82.5 -18t-51.5 -31l-75 115q42 30 96 50.5t141 20.5q104 0 163.5 -44t59.5 -124z" />
    <glyph glyph-name="four" unicode="4" horiz-adv-x="550" 
d="M536 143h-73v-143h-179v143h-268v122l280 449h167v-441h73v-130zM284 273v103q0 20 1 49t2 53t1 30h-5q-9 -21 -16.5 -37.5t-17.5 -37.5l-77 -160h112z" />
    <glyph glyph-name="five" unicode="5" horiz-adv-x="550" 
d="M305 462q56 0 102 -26t73 -76t27 -121q0 -119 -67.5 -184t-204.5 -65q-117 0 -191 39v143q35 -19 85 -32.5t91 -13.5q50 0 77.5 25.5t27.5 77.5q0 47 -27.5 72.5t-83.5 25.5q-26 0 -50 -5.5t-42 -10.5l-67 33l26 370h382v-143h-229l-9 -119q16 3 31 6.5t49 3.5z" />
    <glyph glyph-name="six" unicode="6" horiz-adv-x="550" 
d="M32 303q0 61 8.5 122t30 114.5t60.5 95t101 65t151 23.5q19 0 48 -2t48 -6v-134q-19 4 -42.5 6.5t-57.5 2.5q-68 0 -107 -25t-56.5 -71t-20.5 -107h6q17 35 48 59t84 24q88 0 138 -60t50 -169q0 -119 -63.5 -185t-173.5 -66q-72 0 -129 33.5t-90 103t-33 176.5zM281 126
q29 0 46.5 27t17.5 85q0 46 -14.5 73t-48.5 27t-52 -28t-18 -61q0 -29 7 -57.5t22 -47t40 -18.5z" />
    <glyph glyph-name="seven" unicode="7" horiz-adv-x="550" 
d="M97 0l230 572h-291v142h484v-104l-236 -610h-187z" />
    <glyph glyph-name="eight" unicode="8" horiz-adv-x="550" 
d="M277 723q99 0 161.5 -43t62.5 -129q0 -65 -32.5 -106.5t-83.5 -67.5q31 -20 62.5 -46t52 -61.5t20.5 -82.5q0 -88 -59 -142.5t-186 -54.5t-185.5 53t-58.5 141q0 74 35 117.5t88 71.5q-43 30 -73 72.5t-30 106.5q0 56 29 94.5t80 57.5t117 19zM276 600q-22 0 -38.5 -17
t-16.5 -46q0 -31 15.5 -52t38.5 -36q19 13 37.5 33t18.5 55q0 29 -16.5 46t-38.5 17zM197 193q0 -35 20 -57t56 -22q42 0 61.5 21t19.5 55q0 25 -12 44.5t-28 34.5t-29 24l-11 9q-32 -20 -54.5 -46t-22.5 -63z" />
    <glyph glyph-name="nine" unicode="9" horiz-adv-x="550" 
d="M520 412q0 -127 -34 -222t-111 -147.5t-205 -52.5q-26 0 -54 1.5t-47 4.5v136q19 -4 40 -6.5t49 -2.5q77 0 119 27t59.5 73t19.5 102h-5q-13 -23 -28.5 -42t-42 -30t-71.5 -11q-82 0 -130 60t-48 171q0 117 63 184t173 67q71 0 128 -32.5t91 -101t34 -178.5zM272 588
q-30 0 -48 -27t-18 -86q0 -47 15.5 -74.5t46.5 -27.5q24 0 40 13.5t24 34.5t8 42q0 33 -7 61.5t-22 46t-39 17.5z" />
    <glyph glyph-name="colon" unicode=":" horiz-adv-x="272" 
d="M40 470q0 48 28.5 68t68.5 20q38 0 66 -20t28 -68q0 -46 -28 -67t-66 -21q-40 0 -68.5 21t-28.5 67zM40 75q0 49 28.5 68.5t68.5 19.5q38 0 66 -19.5t28 -68.5q0 -47 -28 -67.5t-66 -20.5q-40 0 -68.5 20.5t-28.5 67.5z" />
    <glyph glyph-name="semicolon" unicode=";" horiz-adv-x="272" 
d="M42 470q0 48 28.5 68t68.5 20q38 0 66.5 -20t28.5 -68q0 -46 -28.5 -67t-66.5 -21q-40 0 -68.5 21t-28.5 67zM228 130l7 -11q-9 -36 -22 -81t-28 -90t-31 -82h-127q13 64 26 136t19 128h156z" />
    <glyph glyph-name="less" unicode="&#x3c;" horiz-adv-x="551" 
d="M507 93l-464 217v76l464 245v-130l-285 -148l285 -130v-130z" />
    <glyph glyph-name="equal" unicode="=" horiz-adv-x="551" 
d="M43 396v117h466v-117h-466zM43 191v118h466v-118h-466z" />
    <glyph glyph-name="greater" unicode="&#x3e;" horiz-adv-x="551" 
d="M43 223l284 130l-284 148v130l464 -245v-76l-464 -217v130z" />
    <glyph glyph-name="question" unicode="?" horiz-adv-x="474" 
d="M131 244v39q0 47 18 81t70 69q42 29 56 50t14 50q0 28 -18.5 42.5t-46.5 14.5q-34 0 -74.5 -13t-85.5 -37l-64 119q51 29 110 47t128 18q104 0 161.5 -49.5t57.5 -127.5q0 -60 -26 -100.5t-83 -82.5q-39 -28 -52.5 -47t-13.5 -46v-27h-151zM115 75q0 49 28.5 68.5
t68.5 19.5q39 0 67 -19.5t28 -68.5q0 -47 -28 -67.5t-67 -20.5q-40 0 -68.5 20.5t-28.5 67.5z" />
    <glyph glyph-name="at" unicode="@" horiz-adv-x="843" 
d="M806 363q0 -47 -11.5 -92t-33.5 -81.5t-54.5 -58.5t-74.5 -22q-34 0 -64.5 16.5t-47.5 44.5h-7q-21 -25 -51 -43t-68 -18q-88 0 -131 54t-43 142q0 67 26.5 118.5t79 81.5t128.5 30q46 0 90.5 -8.5t74.5 -19.5l-10 -205q0 -8 -0.5 -20t-0.5 -20q0 -33 6 -44.5t17 -11.5
q17 0 28.5 21.5t18 57.5t6.5 79q0 119 -60 186.5t-177 67.5q-93 0 -156.5 -42t-96 -116t-32.5 -168q0 -128 63 -199.5t187 -71.5q52 0 116 13t120 33v-102q-48 -21 -107 -33t-122 -12q-120 0 -205.5 44.5t-131 127.5t-45.5 199q0 90 28.5 168t82 136t128.5 90.5t168 32.5
q108 0 189.5 -43t127 -122.5t45.5 -189.5zM348 304q0 -52 17 -75t44 -23q38 0 53.5 34.5t20.5 100.5l5 93q-16 4 -31 4q-37 0 -61.5 -19t-36 -49.5t-11.5 -65.5z" />
    <glyph glyph-name="A" unicode="A" horiz-adv-x="682" 
d="M484 0l-33 153h-218l-34 -153h-199l219 717h241l222 -717h-198zM414 295l-38 144q-8 33 -18 75t-17 84q-6 -42 -15.5 -84t-17.5 -75l-38 -144h144z" />
    <glyph glyph-name="B" unicode="B" horiz-adv-x="634" 
d="M73 714h233q146 0 208.5 -43t62.5 -137q0 -44 -16 -76.5t-40 -52.5t-49 -26v-5q27 -8 54.5 -25t45.5 -51t18 -90q0 -98 -69 -153t-187 -55h-261v714zM254 435h55q45 0 63.5 20.5t18.5 55.5q0 69 -86 69h-51v-145zM254 305v-169h64q47 0 66 24t19 63q0 35 -19 58.5
t-69 23.5h-61z" />
    <glyph glyph-name="C" unicode="C" horiz-adv-x="610" 
d="M376 583q-69 0 -106 -60.5t-37 -167.5q0 -109 38 -166.5t115 -57.5q43 0 84 11.5t82 29.5v-144q-44 -20 -91 -29t-99 -9q-110 0 -179.5 46t-102 128t-32.5 192q0 108 37.5 191t110 130t177.5 47q49 0 106 -13.5t101 -36.5l-55 -136q-35 19 -72 32t-77 13z" />
    <glyph glyph-name="D" unicode="D" horiz-adv-x="690" 
d="M642 368q0 -123 -43.5 -204.5t-123 -122.5t-186.5 -41h-216v714h232q162 0 249.5 -88.5t87.5 -257.5zM455 362q0 109 -37.5 161t-110.5 52h-53v-435h40q83 0 122 55.5t39 166.5z" />
    <glyph glyph-name="E" unicode="E" horiz-adv-x="516" 
d="M471 0h-398v714h398v-138h-217v-137h201v-138h-201v-161h217v-140z" />
    <glyph glyph-name="F" unicode="F" horiz-adv-x="507" 
d="M251 0h-178v714h397v-138h-219v-162h202v-138h-202v-276z" />
    <glyph glyph-name="G" unicode="G" horiz-adv-x="695" 
d="M342 409h289v-377q-53 -19 -119 -30.5t-140 -11.5q-97 0 -170 41t-113.5 123t-40.5 204q0 112 40.5 194t119 127t193.5 45q62 0 118.5 -12t97.5 -32l-57 -135q-36 17 -75 27.5t-83 10.5q-61 0 -97.5 -29.5t-53 -81t-16.5 -117.5q0 -103 39 -163.5t113 -60.5q16 0 39 3
t36 6v132h-120v137z" />
    <glyph glyph-name="H" unicode="H" horiz-adv-x="721" 
d="M648 0h-182v300h-211v-300h-182v714h182v-273h211v273h182v-714z" />
    <glyph glyph-name="I" unicode="I" horiz-adv-x="413" 
d="M381 0h-349v97l84 37v446l-84 37v97h349v-97l-83 -37v-446l83 -37v-97z" />
    <glyph glyph-name="J" unicode="J" horiz-adv-x="331" 
d="M20 -216q-32 0 -55 3t-39 7v137q15 -3 31.5 -6.5t35.5 -3.5q48 0 65.5 28t17.5 100v665h182v-657q0 -99 -30.5 -159t-84 -87t-123.5 -27z" />
    <glyph glyph-name="K" unicode="K" horiz-adv-x="646" 
d="M646 0h-205l-132 288l-54 -40v-248h-182v714h182v-319q11 22 26 44t28 44l143 231h197l-211 -318z" />
    <glyph glyph-name="L" unicode="L" horiz-adv-x="547" 
d="M73 0v714h181v-575h258v-139h-439z" />
    <glyph glyph-name="M" unicode="M" horiz-adv-x="910" 
d="M368 0l-140 543h-4q2 -20 4 -57.5t4 -80.5t2 -79v-326h-161v714h253l128 -497h3l127 497h253v-714h-167v331q0 33 1 75t3 79t3 57h-4l-137 -542h-168z" />
    <glyph glyph-name="N" unicode="N" horiz-adv-x="785" 
d="M712 0h-237l-246 523h-4q0 -19 2 -51t4.5 -69.5t2.5 -72.5v-330h-161v714h236l245 -517h3q0 18 -1.5 49t-3.5 67.5t-2 69.5v331h162v-714z" />
    <glyph glyph-name="O" unicode="O" horiz-adv-x="749" 
d="M700 358q0 -111 -33.5 -193.5t-105 -128.5t-187.5 -46q-112 0 -184.5 46t-107 129t-34.5 194t34.5 193t107 127.5t185.5 45.5q115 0 186.5 -45.5t105 -128t33.5 -193.5zM238 358q0 -105 31.5 -165t104.5 -60q74 0 105 60t31 165t-31 165.5t-104 60.5q-74 0 -105.5 -60.5
t-31.5 -165.5z" />
    <glyph glyph-name="P" unicode="P" horiz-adv-x="595" 
d="M305 714q127 0 191 -59t64 -166q0 -63 -24 -118.5t-80 -90t-151 -34.5h-51v-246h-181v714h232zM302 575h-48v-190h36q36 0 62.5 23t26.5 76q0 91 -77 91z" />
    <glyph glyph-name="Q" unicode="Q" horiz-adv-x="748" 
d="M700 358q0 -116 -34 -202.5t-111 -129.5l163 -196h-225l-113 160h-6q-112 0 -184.5 46t-107 129t-34.5 194t34.5 193t107 127.5t185.5 45.5q115 0 186.5 -45.5t105 -128t33.5 -193.5zM238 358q0 -105 31.5 -165t104.5 -60q74 0 105 60t31 165t-31 165.5t-104 60.5
q-74 0 -105.5 -60.5t-31.5 -165.5z" />
    <glyph glyph-name="R" unicode="R" horiz-adv-x="636" 
d="M293 714q273 0 273 -213q0 -70 -30.5 -116t-83.5 -74l195 -311h-204l-142 268h-47v-268h-181v714h220zM290 580h-36v-179h34q41 0 68 22.5t27 71.5q0 43 -21.5 64t-71.5 21z" />
    <glyph glyph-name="S" unicode="S" horiz-adv-x="541" 
d="M510 207q0 -61 -27.5 -110.5t-85.5 -78t-150 -28.5q-68 0 -113 11t-93 33v155q54 -25 109.5 -42t101.5 -17q40 0 58.5 18t18.5 47q0 35 -27.5 56t-93.5 49q-50 20 -86 46.5t-56 67t-20 104.5q0 66 32 112t88.5 70t131.5 24q66 0 119 -14t94 -36l-56 -133q-43 21 -85 32.5
t-77 11.5t-51.5 -17t-16.5 -43q0 -21 12.5 -36.5t41.5 -32t78 -40.5t83 -51t52 -65t18 -93z" />
    <glyph glyph-name="T" unicode="T" horiz-adv-x="556" 
d="M368 0h-181v573h-164v141h509v-141h-164v-573z" />
    <glyph glyph-name="U" unicode="U" horiz-adv-x="711" 
d="M643 714v-447q0 -81 -32 -143.5t-96.5 -98t-161.5 -35.5q-139 0 -212 74t-73 202v448h182v-429q0 -83 27 -117.5t79 -34.5q56 0 81 36.5t25 116.5v428h181z" />
    <glyph glyph-name="V" unicode="V" horiz-adv-x="652" 
d="M652 714l-221 -714h-212l-219 714h203l92 -396q3 -16 10.5 -46t13.5 -62.5t7 -53.5q2 21 7.5 52.5t11 61.5t9.5 47l96 397h202z" />
    <glyph glyph-name="W" unicode="W" horiz-adv-x="976" 
d="M962 714l-166 -714h-213l-67 341q-2 10 -5.5 31.5t-8 48.5t-7.5 52.5l-5 42.5q-2 -17 -6 -42.5t-8.5 -52t-8.5 -49t-6 -32.5l-67 -340h-213l-167 714h175l77 -380q4 -20 10 -53.5t11 -68.5t8 -61q6 41 14.5 91t16.5 85l80 387h169l76 -384q7 -34 16 -85.5t15 -93.5
q4 27 10 62.5t13 69.5t11 55l74 376h172z" />
    <glyph glyph-name="X" unicode="X" horiz-adv-x="679" 
d="M676 0h-209l-131 248l-130 -248h-204l223 367l-210 347h201l122 -240l116 240h206l-212 -359z" />
    <glyph glyph-name="Y" unicode="Y" horiz-adv-x="623" 
d="M312 433l116 281h195l-221 -436v-278h-181v273l-221 441h197z" />
    <glyph glyph-name="Z" unicode="Z" horiz-adv-x="574" 
d="M550 0h-522v108l291 467h-284v139h508v-108l-291 -467h298v-139z" />
    <glyph glyph-name="bracketleft" unicode="[" horiz-adv-x="306" 
d="M284 -163h-230v886h230v-112h-85v-661h85v-113z" />
    <glyph glyph-name="backslash" unicode="\" horiz-adv-x="415" 
d="M161 719l250 -724h-158l-250 724h158z" />
    <glyph glyph-name="bracketright" unicode="]" horiz-adv-x="306" 
d="M22 -50h84v661h-84v112h230v-886h-230v113z" />
    <glyph glyph-name="asciicircum" unicode="^" horiz-adv-x="494" 
d="M-7 250l202 468h78l233 -468h-136l-132 299l-114 -299h-131z" />
    <glyph glyph-name="underscore" unicode="_" horiz-adv-x="469" 
d="M471 -170h-473v92h473v-92z" />
    <glyph glyph-name="grave" unicode="`" horiz-adv-x="397" 
d="M237 766q16 -22 38 -49.5t44.5 -53t37.5 -44.5v-13h-119q-19 13 -45.5 32.5t-55.5 41.5t-54.5 42t-42.5 34v10h197z" />
    <glyph glyph-name="a" unicode="a" horiz-adv-x="586" 
d="M316 560q99 0 154.5 -49.5t55.5 -146.5v-364h-124l-35 74h-4q-33 -44 -70 -64t-101 -20q-68 0 -113 43t-45 133q0 88 58 130.5t167 46.5l87 3v16q0 40 -17 58t-46 18q-31 0 -69 -11.5t-76 -28.5l-51 112q45 24 102 37t127 13zM347 250l-41 -2q-50 -2 -70 -22.5t-20 -55.5
q0 -32 14.5 -45.5t37.5 -13.5q32 0 55.5 25.5t23.5 69.5v44z" />
    <glyph glyph-name="b" unicode="b" horiz-adv-x="605" 
d="M242 760v-175q0 -30 -2 -58.5t-5 -48.5h7q20 34 52.5 57.5t85.5 23.5q81 0 133 -72t52 -211q0 -141 -53 -213.5t-138 -72.5q-55 0 -83.5 21t-48.5 46h-12l-27 -57h-141v760h180zM314 426q-72 0 -72 -132v-21q0 -73 16 -110t58 -37q32 0 49 39t17 113q0 148 -68 148z" />
    <glyph glyph-name="c" unicode="c" horiz-adv-x="507" 
d="M299 -10q-119 0 -189 67.5t-70 214.5q0 100 35.5 163.5t97.5 93.5t140 30q48 0 91.5 -11t76.5 -28l-49 -125q-28 14 -52.5 22t-51.5 8q-47 0 -76.5 -37.5t-29.5 -114.5t29.5 -112.5t76.5 -35.5q35 0 70.5 12.5t66.5 35.5v-138q-33 -23 -73 -34t-93 -11z" />
    <glyph glyph-name="d" unicode="d" horiz-adv-x="605" 
d="M224 -10q-80 0 -132 72t-52 212q0 141 53 213t137 72q53 0 84.5 -23t52.5 -57h3q-3 18 -5.5 51.5t-2.5 66.5v163h180v-760h-135l-38 71h-7q-19 -34 -51.5 -57.5t-86.5 -23.5zM297 124q43 0 61.5 33t18.5 100v15q0 74 -17.5 112.5t-64.5 38.5q-33 0 -53.5 -38t-20.5 -114
q0 -75 20.5 -111t55.5 -36z" />
    <glyph glyph-name="e" unicode="e" horiz-adv-x="580" 
d="M297 559q113 0 178.5 -63.5t65.5 -186.5v-78h-320q1 -54 29.5 -86t83.5 -32q50 0 90.5 10t83.5 32v-125q-38 -21 -83 -30.5t-112 -9.5q-78 0 -140 30t-97.5 92t-35.5 159q0 146 71 217t186 71zM302 442q-32 0 -53 -25t-25 -77h155q-1 44 -20 73t-57 29z" />
    <glyph glyph-name="f" unicode="f" horiz-adv-x="388" 
d="M380 423h-111v-423h-179v423h-69v82l73 43v26q0 106 41 148.5t135 42.5q40 0 73 -6.5t69 -17.5l-39 -116q-13 5 -29 8.5t-35 3.5q-40 0 -40 -63v-25h111v-126z" />
    <glyph glyph-name="g" unicode="g" horiz-adv-x="605" 
d="M228 559q55 0 88.5 -21t53.5 -58h4l13 69h155v-550q0 -117 -68 -178t-209 -61q-63 0 -111 7t-92 25v137q47 -21 89.5 -31.5t103.5 -10.5q108 0 108 105v11q0 14 1.5 32.5t4.5 35.5h-6q-18 -38 -51 -59.5t-86 -21.5q-83 0 -134.5 74t-51.5 210q0 137 52.5 211t135.5 74z
M296 426q-74 0 -74 -155q0 -77 18.5 -113.5t57.5 -36.5q44 0 61.5 31.5t17.5 101.5v21q0 77 -16.5 114t-64.5 37z" />
    <glyph glyph-name="h" unicode="h" horiz-adv-x="630" 
d="M242 760v-133q0 -50 -3 -89.5t-5 -57.5h9q25 43 60.5 61t81.5 18q51 0 93 -21t67 -65.5t25 -114.5v-358h-181v311q0 115 -62 115q-49 0 -67 -45.5t-18 -129.5v-251h-180v760h180z" />
    <glyph glyph-name="i" unicode="i" horiz-adv-x="305" 
d="M154 767q38 0 66 -16t28 -62q0 -45 -28 -61.5t-66 -16.5q-40 0 -68 16.5t-28 61.5q0 46 28 62t68 16zM242 549v-549h-179v549h179z" />
    <glyph glyph-name="j" unicode="j" horiz-adv-x="305" 
d="M58 689q0 46 27.5 62t66.5 16t67.5 -16t28.5 -62q0 -45 -28.5 -61.5t-67.5 -16.5t-66.5 16.5t-27.5 61.5zM48 -240q-21 0 -49.5 3.5t-46.5 8.5v132q15 -4 27.5 -6.5t28.5 -2.5q22 0 38 16.5t16 66.5v571h179v-602q0 -50 -18.5 -92.5t-60.5 -68.5t-114 -26z" />
    <glyph glyph-name="k" unicode="k" horiz-adv-x="619" 
d="M242 760v-321q0 -32 -3 -68t-7 -68h4q7 19 22.5 41t32.5 44l118 161h199l-181 -236l192 -313h-204l-115 210l-58 -49v-161h-180v760h180z" />
    <glyph glyph-name="l" unicode="l" horiz-adv-x="304" 
d="M242 0h-180v760h180v-760z" />
    <glyph glyph-name="m" unicode="m" horiz-adv-x="939" 
d="M696 559q89 0 136 -47.5t47 -153.5v-358h-178v311q0 60 -16 87.5t-47 27.5q-44 0 -61 -41t-17 -118v-267h-179v311q0 59 -15 87t-46 28q-46 0 -62 -45.5t-16 -130.5v-250h-180v549h135l27 -69h5q20 38 58.5 58.5t97.5 20.5q56 0 93.5 -20t60.5 -58h6q25 39 63.5 58.5
t87.5 19.5z" />
    <glyph glyph-name="n" unicode="n" horiz-adv-x="630" 
d="M387 559q81 0 132 -47.5t51 -153.5v-358h-179v311q0 57 -15 86t-49 29q-51 0 -68 -45.5t-17 -130.5v-250h-180v549h135l25 -71h7q49 81 158 81z" />
    <glyph glyph-name="o" unicode="o" horiz-adv-x="598" 
d="M558 276q0 -138 -69 -212t-191 -74q-75 0 -133.5 33t-91.5 97t-33 156q0 136 69.5 209.5t191.5 73.5q75 0 133 -33t91 -96t33 -154zM222 276q0 -76 17.5 -116t60.5 -40q42 0 59 40t17 116t-17 114.5t-60 38.5q-41 0 -59 -38.5t-18 -114.5z" />
    <glyph glyph-name="p" unicode="p" horiz-adv-x="605" 
d="M380 559q86 0 135.5 -72.5t49.5 -210.5q0 -94 -25 -157.5t-68.5 -96t-97.5 -32.5q-55 0 -85 21t-47 46h-6q2 -19 4 -40t2 -45v-212h-180v789h146l25 -70h9q19 32 51 56t87 24zM312 426q-40 0 -55 -33t-15 -101v-15q0 -73 15 -112t57 -39q68 0 68 152q0 76 -18 112t-52 36
z" />
    <glyph glyph-name="q" unicode="q" horiz-adv-x="605" 
d="M363 -240v229q0 41 6 82h-6q-18 -34 -51 -57.5t-86 -23.5q-83 0 -134.5 72t-51.5 212t52 212.5t137 72.5q55 0 88.5 -22.5t53.5 -56.5h4l12 69h155v-789h-179zM298 121q44 0 61.5 33t17.5 100v21q0 72 -16.5 111.5t-64.5 39.5q-38 0 -56 -39.5t-18 -115.5
q0 -77 18.5 -113.5t57.5 -36.5z" />
    <glyph glyph-name="r" unicode="r" horiz-adv-x="441" 
d="M376 559q15 0 31 -1.5t24 -3.5l-16 -158q-10 2 -23.5 3.5t-37.5 1.5q-23 0 -49 -10.5t-44.5 -37.5t-18.5 -78v-275h-180v549h134l28 -90h8q22 41 60.5 70.5t83.5 29.5z" />
    <glyph glyph-name="s" unicode="s" horiz-adv-x="486" 
d="M448 166q0 -82 -50.5 -129t-168.5 -47q-56 0 -99.5 7t-88.5 25v136q49 -22 99.5 -33.5t80.5 -11.5q31 0 44.5 10t13.5 28q0 13 -9.5 23t-33.5 23t-68 33q-43 20 -71.5 42.5t-42.5 53t-14 76.5q0 78 58.5 117.5t155.5 39.5q51 0 96 -11t94 -34l-48 -114q-39 18 -78.5 29
t-62.5 11q-45 0 -45 -30q0 -12 8 -21t31 -20.5t66 -30.5q45 -19 74.5 -40t44 -52.5t14.5 -79.5z" />
    <glyph glyph-name="t" unicode="t" horiz-adv-x="432" 
d="M316 124q25 0 44.5 5t41.5 13v-124q-28 -12 -61 -20t-84 -8t-89 16.5t-59 57t-21 112.5v247h-64v70l80 54l47 116h116v-114h129v-126h-129v-241q0 -58 49 -58z" />
    <glyph glyph-name="u" unicode="u" horiz-adv-x="630" 
d="M568 549v-549h-135l-23 70h-11q-25 -42 -66.5 -61t-89.5 -19q-51 0 -92 21t-65.5 65t-24.5 115v358h180v-311q0 -56 14 -85t48 -29q51 0 68 45t17 130v250h180z" />
    <glyph glyph-name="v" unicode="v" horiz-adv-x="574" 
d="M194 0l-194 549h187l79 -299q8 -31 11.5 -58t4.5 -47h4q2 21 5.5 46.5t12.5 56.5l83 301h187l-198 -549h-182z" />
    <glyph glyph-name="w" unicode="w" horiz-adv-x="854" 
d="M505 0l-54 272q-7 36 -13 72t-9 64h-3q-2 -27 -9 -63.5t-14 -75.5l-60 -269h-202l-130 549h175l43 -248q6 -36 12 -81t8 -79h3q2 23 7.5 54.5t11 59t7.5 38.5l55 256h192l53 -256q4 -17 8.5 -44t9 -56.5t5.5 -51.5h3q3 33 8.5 75t12.5 81l47 252h171l-134 -549h-204z" />
    <glyph glyph-name="x" unicode="x" horiz-adv-x="592" 
d="M173 280l-160 269h204l79 -165l81 165h203l-162 -269l169 -280h-203l-88 178l-88 -178h-203z" />
    <glyph glyph-name="y" unicode="y" horiz-adv-x="573" 
d="M0 549h188l86 -311q5 -16 7.5 -36.5t3.5 -42.5h4q2 23 4.5 42.5t7.5 36.5l89 311h184l-209 -602q-32 -93 -87.5 -140t-157.5 -47q-24 0 -42 2.5t-31 5.5v133q10 -2 24.5 -4t30.5 -2q45 0 66 26.5t31 64.5l5 20z" />
    <glyph glyph-name="z" unicode="z" horiz-adv-x="477" 
d="M453 0h-430v98l216 322h-204v129h407v-106l-205 -314h216v-129z" />
    <glyph glyph-name="braceleft" unicode="{" horiz-adv-x="407" 
d="M377 -163q-97 0 -147.5 15.5t-69.5 49t-19 86.5v139q0 31 -16.5 49.5t-42.5 27t-54 8.5v131q29 0 55 8.5t42 27t16 49.5v141q0 52 18.5 85t69.5 49t148 16v-122q-19 -1 -39.5 -5t-34.5 -17t-14 -40v-139q0 -52 -28.5 -79.5t-81.5 -35.5v-6q54 -8 82 -35.5t28 -78.5v-140
q0 -27 14.5 -40t34.5 -17t39 -5v-122z" />
    <glyph glyph-name="bar" unicode="|" horiz-adv-x="479" 
d="M178 758h123v-981h-123v981z" />
    <glyph glyph-name="braceright" unicode="}" horiz-adv-x="407" 
d="M30 -163v122q18 1 38.5 5t35 17t14.5 40v140q0 51 28 78.5t81 35.5v6q-52 8 -80.5 35.5t-28.5 79.5v139q0 27 -14 40t-34.5 17t-39.5 5v122q98 0 148.5 -16t68.5 -49t18 -85v-141q0 -46 35 -65.5t79 -19.5v-131q-29 0 -55 -8.5t-42.5 -27t-16.5 -49.5v-139
q0 -53 -18.5 -86.5t-69.5 -49t-147 -15.5z" />
    <glyph glyph-name="asciitilde" unicode="~" horiz-adv-x="552" 
d="M257 295q-35 16 -60 21.5t-47 5.5q-28 0 -56 -17t-51 -42v125q47 53 120 53q28 0 56 -5.5t73 -25.5q34 -16 61 -21.5t49 -5.5q26 0 54 17t52 42v-125q-48 -53 -122 -53q-27 0 -55 5.5t-74 25.5z" />
    <glyph glyph-name="uni00A0" unicode="&#xa0;" horiz-adv-x="244" 
 />
    <glyph glyph-name="exclamdown" unicode="&#xa1;" horiz-adv-x="274" 
d="M235 466q0 -48 -28.5 -68t-68.5 -20q-39 0 -67.5 20t-28.5 68q0 46 28.5 67t67.5 21q40 0 68.5 -21t28.5 -67zM62 297h151l24 -469h-199z" />
    <glyph glyph-name="cent" unicode="&#xa2;" horiz-adv-x="551" 
d="M355 724v-76q41 -2 78.5 -12.5t69.5 -25.5l-52 -127q-33 14 -61 23t-57 9q-41 0 -66 -37.5t-25 -114.5t25.5 -112.5t66.5 -35.5q39 0 78 11.5t74 31.5v-137q-28 -17 -59 -27t-72 -14v-90h-96v94q-92 14 -145.5 81t-53.5 197q0 89 25 147.5t70 90.5t104 43v81h96z" />
    <glyph glyph-name="sterling" unicode="&#xa3;" horiz-adv-x="550" 
d="M332 724q50 0 98 -11.5t88 -28.5l-50 -125q-72 29 -117 29q-21 0 -36.5 -16t-15.5 -60v-75h158v-119h-158v-60q0 -51 -24 -77t-49 -39h309v-142h-487v136q25 14 41.5 28t25 35.5t8.5 57.5v61h-76v119h76v78q0 75 26.5 121t73.5 67t109 21z" />
    <glyph glyph-name="currency" unicode="&#xa4;" horiz-adv-x="532" 
d="M83 353q0 25 5 48t13 43l-57 61l83 79l57 -61q16 11 37.5 17.5t40.5 6.5q22 0 42 -6.5t40 -18.5l55 62l84 -77l-58 -62q19 -40 19 -92q0 -51 -19 -92l56 -60l-82 -78l-55 60q-18 -10 -39 -16.5t-43 -6.5q-21 0 -42 5.5t-39 16.5l-54 -58l-82 78l56 60q-18 42 -18 91z
M200 353q0 -34 18 -57t44 -23q27 0 46.5 23t19.5 57q0 35 -19.5 58t-46.5 23q-26 0 -44 -23t-18 -58z" />
    <glyph glyph-name="yen" unicode="&#xa5;" horiz-adv-x="550" 
d="M275 442l89 272h183l-166 -357h89v-95h-112v-62h112v-94h-112v-106h-166v106h-114v94h114v62h-114v95h88l-163 357h183z" />
    <glyph glyph-name="brokenbar" unicode="&#xa6;" horiz-adv-x="479" 
d="M178 758h123v-403h-123v403zM178 181h123v-404h-123v404z" />
    <glyph glyph-name="section" unicode="&#xa7;" horiz-adv-x="469" 
d="M49 391q0 41 23.5 70.5t51.5 47.5q-32 22 -48.5 50.5t-16.5 65.5q0 63 48.5 102.5t137.5 39.5q47 0 91 -11.5t79 -29.5l-45 -100q-31 16 -64 28.5t-62 12.5q-50 0 -50 -40q0 -21 16 -39t65 -37q79 -32 114.5 -71.5t35.5 -93.5q0 -50 -21 -78.5t-46 -47.5q25 -20 41 -47.5
t16 -64.5q0 -70 -50.5 -114.5t-149.5 -44.5q-47 0 -87 10.5t-75 29.5v110q41 -22 86 -36.5t77 -14.5q37 0 50.5 15t13.5 38t-14 39t-64 39q-46 21 -80 43.5t-53.5 53t-19.5 75.5zM182 404q0 -27 19 -48.5t61 -43.5l11 -6q7 9 13 24t6 38q0 28 -17.5 50t-65.5 45
q-11 -6 -19 -21.5t-8 -37.5z" />
    <glyph glyph-name="dieresis" unicode="&#xa8;" horiz-adv-x="566" 
d="M103 688q0 37 22 54t55 17q32 0 55.5 -17t23.5 -54q0 -36 -23.5 -53t-55.5 -17q-33 0 -55 17t-22 53zM322 688q0 37 22.5 54t56.5 17q31 0 54.5 -17t23.5 -54q0 -36 -23.5 -53t-54.5 -17q-34 0 -56.5 17t-22.5 53z" />
    <glyph glyph-name="copyright" unicode="&#xa9;" horiz-adv-x="774" 
d="M42 357q0 76 26.5 142.5t74 117t110 79t134.5 28.5t134.5 -28.5t110 -79t74 -117t26.5 -142.5t-26.5 -142.5t-74 -117t-110 -79t-134.5 -28.5t-134.5 28.5t-110 79t-74 117t-26.5 142.5zM117 357q0 -63 21 -117.5t58 -96t86 -65t105 -23.5t105.5 23.5t86.5 65t58 96
t21 117.5t-21 117.5t-58 96t-86.5 65t-105.5 23.5t-105 -23.5t-86 -65t-58 -96t-21 -117.5zM407 496q-37 0 -58.5 -36.5t-21.5 -102.5q0 -140 82 -140q60 0 119 28v-87q-29 -13 -58.5 -20t-66.5 -7q-101 0 -152.5 62t-51.5 165q0 100 50 162t150 62q42 0 77.5 -8.5
t69.5 -24.5l-43 -79q-23 13 -46.5 19.5t-49.5 6.5z" />
    <glyph glyph-name="ordfeminine" unicode="&#xaa;" horiz-adv-x="373" 
d="M200 722q61 0 98.5 -36t37.5 -101v-217h-74l-21 58q-19 -32 -44.5 -48t-66.5 -16q-45 0 -76.5 27.5t-31.5 84.5q0 61 41 85t117 28l41 2v6q0 43 -48 43q-24 0 -45.5 -7t-50.5 -21l-35 72q34 17 68 28.5t90 11.5zM221 527l-39 -3q-28 -2 -36 -16t-8 -31q0 -34 32 -34
q26 0 38.5 20.5t12.5 48.5v15z" />
    <glyph glyph-name="guillemotleft" unicode="&#xab;" horiz-adv-x="639" 
d="M34 283l178 229l129 -65l-124 -170l124 -170l-129 -64l-178 227v13zM298 283l178 229l129 -65l-126 -170l126 -170l-129 -64l-178 227v13z" />
    <glyph glyph-name="logicalnot" unicode="&#xac;" horiz-adv-x="552" 
d="M508 412v-293h-124v174h-341v119h465z" />
    <glyph glyph-name="uni00AD" unicode="&#xad;" horiz-adv-x="320" 
d="M20 200v136h259v-136h-259z" />
    <glyph glyph-name="registered" unicode="&#xae;" horiz-adv-x="774" 
d="M42 357q0 76 26.5 142.5t74 117t110 79t134.5 28.5t134.5 -28.5t110 -79t74 -117t26.5 -142.5t-26.5 -142.5t-74 -117t-110 -79t-134.5 -28.5t-134.5 28.5t-110 79t-74 117t-26.5 142.5zM117 357q0 -63 21 -117.5t58 -96t86 -65t105 -23.5t105.5 23.5t86.5 65t58 96
t21 117.5t-21 117.5t-58 96t-86.5 65t-105.5 23.5t-105 -23.5t-86 -65t-58 -96t-21 -117.5zM553 447q0 -49 -19 -76t-46 -40l89 -186h-133l-67 165h-17v-165h-128v432h134q98 0 142.5 -33t44.5 -97zM360 383h6q26 0 41.5 15.5t15.5 45.5q0 31 -15 43t-41 12h-7v-116z" />
    <glyph glyph-name="overscore" unicode="&#xaf;" horiz-adv-x="470" 
d="M473 760h-476v108h476v-108z" />
    <glyph glyph-name="degree" unicode="&#xb0;" horiz-adv-x="397" 
d="M30 550q0 48 22.5 87.5t61 63t85.5 23.5t85 -23.5t61 -63t23 -87.5t-23 -87t-61 -62.5t-85 -23.5t-85.5 23.5t-61 62.5t-22.5 87zM138 550q0 -28 18 -48.5t43 -20.5q24 0 42 20.5t18 48.5q0 29 -18 50t-42 21q-25 0 -43 -21t-18 -50z" />
    <glyph glyph-name="plusminus" unicode="&#xb1;" horiz-adv-x="552" 
d="M336 448h172v-119h-172v-182h-123v182h-170v119h170v184h123v-184zM43 0v118h465v-118h-465z" />
    <glyph glyph-name="uni00B2" unicode="&#xb2;" horiz-adv-x="375" 
d="M344 416h-309v91l98 105q40 43 54.5 66t14.5 44q0 34 -30 34q-16 0 -34.5 -9.5t-44.5 -33.5l-65 77q31 28 70 46t100 18q68 0 102.5 -31.5t34.5 -87.5q0 -34 -16 -62.5t-42.5 -55.5t-55.5 -58l-37 -39h160v-104z" />
    <glyph glyph-name="uni00B3" unicode="&#xb3;" horiz-adv-x="375" 
d="M186 853q70 0 108 -29.5t38 -79.5q0 -36 -17 -61.5t-57 -40.5v-5q45 -11 66.5 -38t21.5 -65q0 -60 -46 -93t-126 -33q-41 0 -77.5 8.5t-64.5 25.5v103q30 -21 65 -31.5t71 -10.5q25 0 39.5 10.5t14.5 32.5q0 17 -10.5 30.5t-51.5 13.5h-48v86h36q39 0 52 14t13 32
q0 16 -9.5 27t-32.5 11q-42 0 -88 -37l-54 76q29 23 68 38.5t89 15.5z" />
    <glyph glyph-name="acute" unicode="&#xb4;" horiz-adv-x="397" 
d="M357 766v-10q-17 -14 -42.5 -34t-54 -42t-55.5 -41.5t-46 -32.5h-119v13q16 19 38.5 44.5t45 53t37.5 49.5h196z" />
    <glyph glyph-name="uni00B5" unicode="&#xb5;" horiz-adv-x="633" 
d="M570 549v-549h-135l-24 73h-8q-15 -41 -41 -62t-56 -21q-26 0 -40.5 11t-27.5 32h-2q2 -19 4 -54.5t2 -62.5v-156h-180v789h180v-310q0 -58 15 -86.5t52 -28.5q45 0 62.5 45t17.5 130v250h181z" />
    <glyph glyph-name="paragraph" unicode="&#xb6;" horiz-adv-x="604" 
d="M544 -127h-87v783h-72v-783h-88v400q-14 -5 -25.5 -7t-31.5 -2q-58 0 -101.5 23t-67.5 77t-24 145q0 95 26 150t72.5 78t108.5 23h290v-887z" />
    <glyph glyph-name="periodcentered" unicode="&#xb7;" horiz-adv-x="287" 
d="M40 352q0 49 28.5 68.5t68.5 19.5q38 0 66 -19.5t28 -68.5q0 -47 -28 -67.5t-66 -20.5q-40 0 -68.5 20.5t-28.5 67.5z" />
    <glyph glyph-name="cedilla" unicode="&#xb8;" horiz-adv-x="280" 
d="M257 -122q0 -56 -34.5 -87t-91.5 -31q-32 0 -58.5 4t-42.5 9v88q15 -5 30 -8t30 -3q39 0 39 29q0 18 -16 30t-52 19l29 72h89l-8 -30q19 -6 38.5 -17t33.5 -29t14 -46z" />
    <glyph glyph-name="uni00B9" unicode="&#xb9;" horiz-adv-x="375" 
d="M277 844v-428h-129v198q0 12 0.5 33.5t1.5 42t2 27.5q-4 -8 -12 -19t-16 -18l-36 -31l-67 71l156 124h100z" />
    <glyph glyph-name="ordmasculine" unicode="&#xba;" horiz-adv-x="368" 
d="M346 542q0 -86 -44 -133t-119 -47q-71 0 -116 47.5t-45 132.5q0 86 43.5 133t119.5 47q68 0 114.5 -47t46.5 -133zM137 542q0 -91 47 -91q45 0 45 91q0 92 -45 92q-47 0 -47 -92z" />
    <glyph glyph-name="guillemotright" unicode="&#xbb;" horiz-adv-x="639" 
d="M605 270l-177 -227l-130 64l126 170l-126 170l130 65l177 -229v-13zM342 270l-178 -227l-129 64l124 170l-124 170l129 65l178 -229v-13z" />
    <glyph glyph-name="onequarter" unicode="&#xbc;" horiz-adv-x="834" 
d="M163 0l347 714h138l-346 -714h-139zM122 286v198q0 11 0.5 30.5t1.5 39.5t3 33q-2 -7 -9.5 -17.5t-17.5 -18.5l-39 -32l-66 71l156 124h100v-428h-129zM642 0v71h-170v83l161 277h135v-270h57v-90h-57v-71h-126zM569 161h73v80q0 39 3 79q-10 -19 -17 -39.5t-12 -31.5z
" />
    <glyph glyph-name="onehalf" unicode="&#xbd;" horiz-adv-x="871" 
d="M175 0l346 714h138l-346 -714h-138zM122 286v198q0 10 1 32.5t2 44t2 26.5q-2 -7 -11.5 -18t-18.5 -19l-36 -31l-66 71l156 124h100v-428h-129zM530 0v91l99 105q39 43 53.5 65.5t14.5 44.5q0 34 -30 34q-37 0 -79 -43l-64 77q37 32 77 48t93 16q64 0 100 -31t36 -88
q0 -82 -71 -144l-78 -71h158v-104h-309z" />
    <glyph glyph-name="threequarters" unicode="&#xbe;" horiz-adv-x="866" 
d="M182 278q-83 0 -141 34v103q27 -20 60.5 -31t75.5 -11q54 0 54 43q0 20 -15.5 32t-46.5 12h-48v86h36q33 0 48.5 13t15.5 33q0 16 -9.5 27t-32.5 11t-42.5 -8.5t-44.5 -28.5l-54 76q34 25 73.5 39.5t83.5 14.5q67 0 106.5 -29.5t39.5 -79.5q0 -36 -17 -61.5t-57 -40.5v-5
q45 -11 66.5 -38t21.5 -65q0 -59 -45.5 -92.5t-127.5 -33.5zM213 0l346 714h138l-347 -714h-137zM674 0v71h-170v83l160 277h136v-270h57v-90h-57v-71h-126zM602 161h72v80q0 19 0.5 39t1.5 40q-9 -19 -16 -39.5t-12 -31.5z" />
    <glyph glyph-name="questiondown" unicode="&#xbf;" horiz-adv-x="490" 
d="M361 297v-39q0 -47 -18 -81t-70 -69q-42 -29 -56 -50t-14 -50q0 -28 18.5 -42.5t46.5 -14.5q34 0 74.5 13t85.5 37l64 -119q-51 -29 -110 -47t-128 -18q-104 0 -161.5 49.5t-57.5 127.5q0 60 26 100.5t83 82.5q39 28 52.5 47t13.5 46v27h151zM377 466q0 -49 -28.5 -68.5
t-68.5 -19.5q-39 0 -67 19.5t-28 68.5q0 47 28 67.5t67 20.5q40 0 68.5 -20.5t28.5 -67.5z" />
    <glyph glyph-name="Agrave" unicode="&#xc0;" horiz-adv-x="682" 
d="M484 0l-33 153h-218l-34 -153h-199l219 717h241l222 -717h-198zM414 295l-38 144q-8 33 -18 75t-17 84q-6 -42 -15.5 -84t-17.5 -75l-38 -144h144zM359 931q16 -22 38 -49.5t44.5 -53t37.5 -44.5v-13h-119q-19 13 -45.5 32.5t-55.5 41.5t-54.5 42t-42.5 34v10h197z" />
    <glyph glyph-name="Aacute" unicode="&#xc1;" horiz-adv-x="682" 
d="M484 0l-33 153h-218l-34 -153h-199l219 717h241l222 -717h-198zM414 295l-38 144q-8 33 -18 75t-17 84q-6 -42 -15.5 -84t-17.5 -75l-38 -144h144zM534 931v-10q-17 -14 -42.5 -34t-54 -42t-55.5 -41.5t-46 -32.5h-119v13q16 19 38.5 44.5t45 53t37.5 49.5h196z" />
    <glyph glyph-name="Acircumflex" unicode="&#xc2;" horiz-adv-x="682" 
d="M484 0l-33 153h-218l-34 -153h-199l219 717h241l222 -717h-198zM414 295l-38 144q-8 33 -18 75t-17 84q-6 -42 -15.5 -84t-17.5 -75l-38 -144h144zM432 931q15 -22 36.5 -49.5t43 -53.5t37.5 -44v-13h-116q-25 16 -46.5 35.5t-45.5 44.5q-25 -25 -45 -44.5t-45 -35.5
h-118v13q18 19 40 44.5t43 53t35 49.5h181z" />
    <glyph glyph-name="Atilde" unicode="&#xc3;" horiz-adv-x="682" 
d="M484 0l-33 153h-218l-34 -153h-199l219 717h241l222 -717h-198zM414 295l-38 144q-8 33 -18 75t-17 84q-6 -42 -15.5 -84t-17.5 -75l-38 -144h144zM535 929q-6 -83 -37 -120.5t-76 -37.5q-28 0 -56 12t-54 24.5t-49 12.5q-8 0 -17.5 -10.5t-14.5 -39.5h-83q6 84 35.5 121
t79.5 37q24 0 50.5 -12.5t53.5 -24.5t51 -12q8 0 18 11t14 39h85z" />
    <glyph glyph-name="Adieresis" unicode="&#xc4;" horiz-adv-x="682" 
d="M484 0l-33 153h-218l-34 -153h-199l219 717h241l222 -717h-198zM414 295l-38 144q-8 33 -18 75t-17 84q-6 -42 -15.5 -84t-17.5 -75l-38 -144h144zM153 853q0 37 22 54t55 17q32 0 55.5 -17t23.5 -54q0 -36 -23.5 -53t-55.5 -17q-33 0 -55 17t-22 53zM372 853
q0 37 22.5 54t56.5 17q31 0 54.5 -17t23.5 -54q0 -36 -23.5 -53t-54.5 -17q-34 0 -56.5 17t-22.5 53z" />
    <glyph glyph-name="Aring" unicode="&#xc5;" horiz-adv-x="682" 
d="M484 0l-33 153h-218l-34 -153h-199l219 717h241l222 -717h-198zM414 295l-38 144q-8 33 -18 75t-17 84q-6 -42 -15.5 -84t-17.5 -75l-38 -144h144zM333 643q-55 0 -88 31.5t-33 87.5t33 87.5t88 31.5q52 0 88.5 -31.5t36.5 -86.5q0 -56 -36 -88t-89 -32zM333 718
q17 0 28 12t11 32t-11 32t-28 12q-16 0 -27.5 -12t-11.5 -32t10 -32t29 -12z" />
    <glyph glyph-name="AE" unicode="&#xc6;" horiz-adv-x="889" 
d="M844 0h-399v153h-201l-46 -153h-202l289 714h559v-138h-217v-137h202v-138h-202v-161h217v-140zM300 296h145v273h-51z" />
    <glyph glyph-name="Ccedilla" unicode="&#xc7;" horiz-adv-x="610" 
d="M376 583q-69 0 -106 -60.5t-37 -167.5q0 -109 38 -166.5t115 -57.5q43 0 84 11.5t82 29.5v-144q-44 -20 -91 -29t-99 -9q-110 0 -179.5 46t-102 128t-32.5 192q0 108 37.5 191t110 130t177.5 47q49 0 106 -13.5t101 -36.5l-55 -136q-35 19 -72 32t-77 13zM515 -122
q0 -56 -34.5 -87t-91.5 -31q-32 0 -58.5 4t-42.5 9v88q15 -5 30 -8t30 -3q39 0 39 29q0 18 -16 30t-52 19l29 72h89l-8 -30q19 -6 38.5 -17t33.5 -29t14 -46z" />
    <glyph glyph-name="Egrave" unicode="&#xc8;" horiz-adv-x="516" 
d="M471 0h-398v714h398v-138h-217v-137h201v-138h-201v-161h217v-140zM290 931q16 -22 38 -49.5t44.5 -53t37.5 -44.5v-13h-119q-19 13 -45.5 32.5t-55.5 41.5t-54.5 42t-42.5 34v10h197z" />
    <glyph glyph-name="Eacute" unicode="&#xc9;" horiz-adv-x="516" 
d="M471 0h-398v714h398v-138h-217v-137h201v-138h-201v-161h217v-140zM465 931v-10q-17 -14 -42.5 -34t-54 -42t-55.5 -41.5t-46 -32.5h-119v13q16 19 38.5 44.5t45 53t37.5 49.5h196z" />
    <glyph glyph-name="Ecircumflex" unicode="&#xca;" horiz-adv-x="516" 
d="M471 0h-398v714h398v-138h-217v-137h201v-138h-201v-161h217v-140zM363 931q15 -22 36.5 -49.5t43 -53.5t37.5 -44v-13h-116q-25 16 -46.5 35.5t-45.5 44.5q-25 -25 -45 -44.5t-45 -35.5h-118v13q18 19 40 44.5t43 53t35 49.5h181z" />
    <glyph glyph-name="Edieresis" unicode="&#xcb;" horiz-adv-x="516" 
d="M471 0h-398v714h398v-138h-217v-137h201v-138h-201v-161h217v-140zM84 853q0 37 22 54t55 17q32 0 55.5 -17t23.5 -54q0 -36 -23.5 -53t-55.5 -17q-33 0 -55 17t-22 53zM303 853q0 37 22.5 54t56.5 17q31 0 54.5 -17t23.5 -54q0 -36 -23.5 -53t-54.5 -17q-34 0 -56.5 17
t-22.5 53z" />
    <glyph glyph-name="Igrave" unicode="&#xcc;" horiz-adv-x="413" 
d="M381 0h-349v97l84 37v446l-84 37v97h349v-97l-83 -37v-446l83 -37v-97zM224 931q16 -22 38 -49.5t44.5 -53t37.5 -44.5v-13h-119q-19 13 -45.5 32.5t-55.5 41.5t-54.5 42t-42.5 34v10h197z" />
    <glyph glyph-name="Iacute" unicode="&#xcd;" horiz-adv-x="413" 
d="M381 0h-349v97l84 37v446l-84 37v97h349v-97l-83 -37v-446l83 -37v-97zM400 931v-10q-17 -14 -42.5 -34t-54 -42t-55.5 -41.5t-46 -32.5h-119v13q16 19 38.5 44.5t45 53t37.5 49.5h196z" />
    <glyph glyph-name="Icircumflex" unicode="&#xce;" horiz-adv-x="413" 
d="M381 0h-349v97l84 37v446l-84 37v97h349v-97l-83 -37v-446l83 -37v-97zM298 931q15 -22 36.5 -49.5t43 -53.5t37.5 -44v-13h-116q-25 16 -46.5 35.5t-45.5 44.5q-25 -25 -45 -44.5t-45 -35.5h-118v13q18 19 40 44.5t43 53t35 49.5h181z" />
    <glyph glyph-name="Idieresis" unicode="&#xcf;" horiz-adv-x="413" 
d="M381 0h-349v97l84 37v446l-84 37v97h349v-97l-83 -37v-446l83 -37v-97zM19 853q0 37 22 54t55 17q32 0 55.5 -17t23.5 -54q0 -36 -23.5 -53t-55.5 -17q-33 0 -55 17t-22 53zM238 853q0 37 22.5 54t56.5 17q31 0 54.5 -17t23.5 -54q0 -36 -23.5 -53t-54.5 -17
q-34 0 -56.5 17t-22.5 53z" />
    <glyph glyph-name="Eth" unicode="&#xd0;" horiz-adv-x="690" 
d="M305 714q161 0 249 -88.5t88 -257.5q0 -123 -43.5 -204.5t-123 -122.5t-186.5 -41h-216v284h-59v138h59v292h232zM306 575h-53v-153h97v-138h-97v-144h42q82 0 121 55.5t39 166.5q0 109 -37 161t-112 52z" />
    <glyph glyph-name="Ntilde" unicode="&#xd1;" horiz-adv-x="785" 
d="M712 0h-237l-246 523h-4q0 -19 2 -51t4.5 -69.5t2.5 -72.5v-330h-161v714h236l245 -517h3q0 18 -1.5 49t-3.5 67.5t-2 69.5v331h162v-714zM587 929q-6 -83 -37 -120.5t-76 -37.5q-28 0 -56 12t-54 24.5t-49 12.5q-8 0 -17.5 -10.5t-14.5 -39.5h-83q6 84 35.5 121t79.5 37
q24 0 50.5 -12.5t53.5 -24.5t51 -12q8 0 18 11t14 39h85z" />
    <glyph glyph-name="Ograve" unicode="&#xd2;" horiz-adv-x="749" 
d="M700 358q0 -111 -33.5 -193.5t-105 -128.5t-187.5 -46q-112 0 -184.5 46t-107 129t-34.5 194t34.5 193t107 127.5t185.5 45.5q115 0 186.5 -45.5t105 -128t33.5 -193.5zM238 358q0 -105 31.5 -165t104.5 -60q74 0 105 60t31 165t-31 165.5t-104 60.5q-74 0 -105.5 -60.5
t-31.5 -165.5zM392 942q16 -22 38 -49.5t44.5 -53t37.5 -44.5v-13h-119q-19 13 -45.5 32.5t-55.5 41.5t-54.5 42t-42.5 34v10h197z" />
    <glyph glyph-name="Oacute" unicode="&#xd3;" horiz-adv-x="749" 
d="M700 358q0 -111 -33.5 -193.5t-105 -128.5t-187.5 -46q-112 0 -184.5 46t-107 129t-34.5 194t34.5 193t107 127.5t185.5 45.5q115 0 186.5 -45.5t105 -128t33.5 -193.5zM238 358q0 -105 31.5 -165t104.5 -60q74 0 105 60t31 165t-31 165.5t-104 60.5q-74 0 -105.5 -60.5
t-31.5 -165.5zM567 942v-10q-17 -14 -42.5 -34t-54 -42t-55.5 -41.5t-46 -32.5h-119v13q16 19 38.5 44.5t45 53t37.5 49.5h196z" />
    <glyph glyph-name="Ocircumflex" unicode="&#xd4;" horiz-adv-x="749" 
d="M700 358q0 -111 -33.5 -193.5t-105 -128.5t-187.5 -46q-112 0 -184.5 46t-107 129t-34.5 194t34.5 193t107 127.5t185.5 45.5q115 0 186.5 -45.5t105 -128t33.5 -193.5zM238 358q0 -105 31.5 -165t104.5 -60q74 0 105 60t31 165t-31 165.5t-104 60.5q-74 0 -105.5 -60.5
t-31.5 -165.5zM465 942q15 -22 36.5 -49.5t43 -53.5t37.5 -44v-13h-116q-25 16 -46.5 35.5t-45.5 44.5q-25 -25 -45 -44.5t-45 -35.5h-118v13q18 19 40 44.5t43 53t35 49.5h181z" />
    <glyph glyph-name="Otilde" unicode="&#xd5;" horiz-adv-x="749" 
d="M700 358q0 -111 -33.5 -193.5t-105 -128.5t-187.5 -46q-112 0 -184.5 46t-107 129t-34.5 194t34.5 193t107 127.5t185.5 45.5q115 0 186.5 -45.5t105 -128t33.5 -193.5zM238 358q0 -105 31.5 -165t104.5 -60q74 0 105 60t31 165t-31 165.5t-104 60.5q-74 0 -105.5 -60.5
t-31.5 -165.5zM568 940q-6 -83 -37 -120.5t-76 -37.5q-28 0 -56 12t-54 24.5t-49 12.5q-8 0 -17.5 -10.5t-14.5 -39.5h-83q6 84 35.5 121t79.5 37q24 0 50.5 -12.5t53.5 -24.5t51 -12q8 0 18 11t14 39h85z" />
    <glyph glyph-name="Odieresis" unicode="&#xd6;" horiz-adv-x="749" 
d="M700 358q0 -111 -33.5 -193.5t-105 -128.5t-187.5 -46q-112 0 -184.5 46t-107 129t-34.5 194t34.5 193t107 127.5t185.5 45.5q115 0 186.5 -45.5t105 -128t33.5 -193.5zM238 358q0 -105 31.5 -165t104.5 -60q74 0 105 60t31 165t-31 165.5t-104 60.5q-74 0 -105.5 -60.5
t-31.5 -165.5zM186 864q0 37 22 54t55 17q32 0 55.5 -17t23.5 -54q0 -36 -23.5 -53t-55.5 -17q-33 0 -55 17t-22 53zM405 864q0 37 22.5 54t56.5 17q31 0 54.5 -17t23.5 -54q0 -36 -23.5 -53t-54.5 -17q-34 0 -56.5 17t-22.5 53z" />
    <glyph glyph-name="multiply" unicode="&#xd7;" horiz-adv-x="551" 
d="M398 575l86 -80l-126 -142l124 -141l-84 -81l-126 140l-124 -139l-83 81l122 140l-123 140l84 82l124 -138z" />
    <glyph glyph-name="Oslash" unicode="&#xd8;" horiz-adv-x="749" 
d="M700 358q0 -111 -33.5 -193.5t-105 -128.5t-187.5 -46q-79 0 -142 27l-38 -65l-88 57l39 63q-50 49 -73.5 122t-23.5 165q0 111 34.5 193t107 127.5t185.5 45.5q87 0 151 -31l35 60l87 -53l-38 -63q47 -48 68.5 -120t21.5 -160zM238 358q0 -40 3 -74t10 -61l186 343
q-29 18 -62 18q-74 0 -105.5 -60.5t-31.5 -165.5zM510 358q0 75 -9 126l-181 -338q24 -13 54 -13q74 0 105 60t31 165z" />
    <glyph glyph-name="Ugrave" unicode="&#xd9;" horiz-adv-x="711" 
d="M643 714v-447q0 -81 -32 -143.5t-96.5 -98t-161.5 -35.5q-139 0 -212 74t-73 202v448h182v-429q0 -83 27 -117.5t79 -34.5q56 0 81 36.5t25 116.5v428h181zM374 931q16 -22 38 -49.5t44.5 -53t37.5 -44.5v-13h-119q-19 13 -45.5 32.5t-55.5 41.5t-54.5 42t-42.5 34v10
h197z" />
    <glyph glyph-name="Uacute" unicode="&#xda;" horiz-adv-x="711" 
d="M643 714v-447q0 -81 -32 -143.5t-96.5 -98t-161.5 -35.5q-139 0 -212 74t-73 202v448h182v-429q0 -83 27 -117.5t79 -34.5q56 0 81 36.5t25 116.5v428h181zM549 931v-10q-17 -14 -42.5 -34t-54 -42t-55.5 -41.5t-46 -32.5h-119v13q16 19 38.5 44.5t45 53t37.5 49.5h196z
" />
    <glyph glyph-name="Ucircumflex" unicode="&#xdb;" horiz-adv-x="711" 
d="M643 714v-447q0 -81 -32 -143.5t-96.5 -98t-161.5 -35.5q-139 0 -212 74t-73 202v448h182v-429q0 -83 27 -117.5t79 -34.5q56 0 81 36.5t25 116.5v428h181zM447 931q15 -22 36.5 -49.5t43 -53.5t37.5 -44v-13h-116q-25 16 -46.5 35.5t-45.5 44.5q-25 -25 -45 -44.5
t-45 -35.5h-118v13q18 19 40 44.5t43 53t35 49.5h181z" />
    <glyph glyph-name="Udieresis" unicode="&#xdc;" horiz-adv-x="711" 
d="M643 714v-447q0 -81 -32 -143.5t-96.5 -98t-161.5 -35.5q-139 0 -212 74t-73 202v448h182v-429q0 -83 27 -117.5t79 -34.5q56 0 81 36.5t25 116.5v428h181zM168 853q0 37 22 54t55 17q32 0 55.5 -17t23.5 -54q0 -36 -23.5 -53t-55.5 -17q-33 0 -55 17t-22 53zM387 853
q0 37 22.5 54t56.5 17q31 0 54.5 -17t23.5 -54q0 -36 -23.5 -53t-54.5 -17q-34 0 -56.5 17t-22.5 53z" />
    <glyph glyph-name="Yacute" unicode="&#xdd;" horiz-adv-x="623" 
d="M312 433l116 281h195l-221 -436v-278h-181v273l-221 441h197zM505 931v-10q-17 -14 -42.5 -34t-54 -42t-55.5 -41.5t-46 -32.5h-119v13q16 19 38.5 44.5t45 53t37.5 49.5h196z" />
    <glyph glyph-name="Thorn" unicode="&#xde;" horiz-adv-x="590" 
d="M560 379q0 -63 -24 -118t-80 -89t-151 -34h-51v-138h-181v714h181v-108h51q127 0 191 -60.5t64 -166.5zM254 277h33q36 0 63 23.5t27 78.5q0 43 -17.5 65.5t-58.5 22.5h-47v-190z" />
    <glyph glyph-name="germandbls" unicode="&#xdf;" horiz-adv-x="705" 
d="M614 594q0 -44 -18.5 -75t-43 -52t-43 -36t-18.5 -29q0 -20 24 -34.5t72 -48.5q46 -31 68.5 -65.5t22.5 -92.5q0 -84 -53.5 -127.5t-154.5 -43.5q-63 0 -101.5 7t-68.5 23v129q23 -15 61 -27.5t66 -12.5q27 0 45.5 12.5t18.5 38.5q0 14 -5.5 25.5t-23.5 25t-56 36.5
q-58 34 -80.5 62.5t-22.5 68.5q0 31 13 53t32 38t38 30.5t32 31.5t13 40q0 29 -23.5 46.5t-64.5 17.5q-53 0 -77 -25.5t-24 -74.5v-535h-180v547q0 73 36.5 121t100 72.5t144.5 24.5q79 0 140 -19.5t96 -57.5t35 -94z" />
    <glyph glyph-name="agrave" unicode="&#xe0;" horiz-adv-x="586" 
d="M316 560q99 0 154.5 -49.5t55.5 -146.5v-364h-124l-35 74h-4q-33 -44 -70 -64t-101 -20q-68 0 -113 43t-45 133q0 88 58 130.5t167 46.5l87 3v16q0 40 -17 58t-46 18q-31 0 -69 -11.5t-76 -28.5l-51 112q45 24 102 37t127 13zM347 250l-41 -2q-50 -2 -70 -22.5t-20 -55.5
q0 -32 14.5 -45.5t37.5 -13.5q32 0 55.5 25.5t23.5 69.5v44zM312 772q16 -22 38 -49.5t44.5 -53t37.5 -44.5v-13h-119q-19 13 -45.5 32.5t-55.5 41.5t-54.5 42t-42.5 34v10h197z" />
    <glyph glyph-name="aacute" unicode="&#xe1;" horiz-adv-x="586" 
d="M316 560q99 0 154.5 -49.5t55.5 -146.5v-364h-124l-35 74h-4q-33 -44 -70 -64t-101 -20q-68 0 -113 43t-45 133q0 88 58 130.5t167 46.5l87 3v16q0 40 -17 58t-46 18q-31 0 -69 -11.5t-76 -28.5l-51 112q45 24 102 37t127 13zM347 250l-41 -2q-50 -2 -70 -22.5t-20 -55.5
q0 -32 14.5 -45.5t37.5 -13.5q32 0 55.5 25.5t23.5 69.5v44zM487 772v-10q-17 -14 -42.5 -34t-54 -42t-55.5 -41.5t-46 -32.5h-119v13q16 19 38.5 44.5t45 53t37.5 49.5h196z" />
    <glyph glyph-name="acircumflex" unicode="&#xe2;" horiz-adv-x="586" 
d="M316 560q99 0 154.5 -49.5t55.5 -146.5v-364h-124l-35 74h-4q-33 -44 -70 -64t-101 -20q-68 0 -113 43t-45 133q0 88 58 130.5t167 46.5l87 3v16q0 40 -17 58t-46 18q-31 0 -69 -11.5t-76 -28.5l-51 112q45 24 102 37t127 13zM347 250l-41 -2q-50 -2 -70 -22.5t-20 -55.5
q0 -32 14.5 -45.5t37.5 -13.5q32 0 55.5 25.5t23.5 69.5v44zM385 772q15 -22 36.5 -49.5t43 -53.5t37.5 -44v-13h-116q-25 16 -46.5 35.5t-45.5 44.5q-25 -25 -45 -44.5t-45 -35.5h-118v13q18 19 40 44.5t43 53t35 49.5h181z" />
    <glyph glyph-name="atilde" unicode="&#xe3;" horiz-adv-x="586" 
d="M316 560q99 0 154.5 -49.5t55.5 -146.5v-364h-124l-35 74h-4q-33 -44 -70 -64t-101 -20q-68 0 -113 43t-45 133q0 88 58 130.5t167 46.5l87 3v16q0 40 -17 58t-46 18q-31 0 -69 -11.5t-76 -28.5l-51 112q45 24 102 37t127 13zM347 250l-41 -2q-50 -2 -70 -22.5t-20 -55.5
q0 -32 14.5 -45.5t37.5 -13.5q32 0 55.5 25.5t23.5 69.5v44zM488 770q-6 -83 -37 -120.5t-76 -37.5q-28 0 -56 12t-54 24.5t-49 12.5q-8 0 -17.5 -10.5t-14.5 -39.5h-83q6 84 35.5 121t79.5 37q24 0 50.5 -12.5t53.5 -24.5t51 -12q8 0 18 11t14 39h85z" />
    <glyph glyph-name="adieresis" unicode="&#xe4;" horiz-adv-x="586" 
d="M316 560q99 0 154.5 -49.5t55.5 -146.5v-364h-124l-35 74h-4q-33 -44 -70 -64t-101 -20q-68 0 -113 43t-45 133q0 88 58 130.5t167 46.5l87 3v16q0 40 -17 58t-46 18q-31 0 -69 -11.5t-76 -28.5l-51 112q45 24 102 37t127 13zM347 250l-41 -2q-50 -2 -70 -22.5t-20 -55.5
q0 -32 14.5 -45.5t37.5 -13.5q32 0 55.5 25.5t23.5 69.5v44zM106 694q0 37 22 54t55 17q32 0 55.5 -17t23.5 -54q0 -36 -23.5 -53t-55.5 -17q-33 0 -55 17t-22 53zM325 694q0 37 22.5 54t56.5 17q31 0 54.5 -17t23.5 -54q0 -36 -23.5 -53t-54.5 -17q-34 0 -56.5 17t-22.5 53
z" />
    <glyph glyph-name="aring" unicode="&#xe5;" horiz-adv-x="586" 
d="M316 560q99 0 154.5 -49.5t55.5 -146.5v-364h-124l-35 74h-4q-33 -44 -70 -64t-101 -20q-68 0 -113 43t-45 133q0 88 58 130.5t167 46.5l87 3v16q0 40 -17 58t-46 18q-31 0 -69 -11.5t-76 -28.5l-51 112q45 24 102 37t127 13zM347 250l-41 -2q-50 -2 -70 -22.5t-20 -55.5
q0 -32 14.5 -45.5t37.5 -13.5q32 0 55.5 25.5t23.5 69.5v44zM292 611q-55 0 -88 31.5t-33 87.5t33 87.5t88 31.5q52 0 88.5 -31.5t36.5 -86.5q0 -56 -36 -88t-89 -32zM292 686q17 0 28 12t11 32t-11 32t-28 12q-16 0 -27.5 -12t-11.5 -32t10 -32t29 -12z" />
    <glyph glyph-name="ae" unicode="&#xe6;" horiz-adv-x="879" 
d="M614 559q66 0 117 -28.5t80 -84.5t29 -138v-77h-320q2 -53 32 -85.5t88 -32.5q36 0 79 9.5t88 32.5v-125q-38 -21 -81 -30.5t-110 -9.5q-59 0 -110.5 24t-86.5 73q-32 -35 -61 -56.5t-65.5 -31t-93.5 -9.5q-43 0 -80.5 19t-61 58t-23.5 100q0 89 63 130.5t165 45.5l85 3
v26q0 36 -18.5 51t-43.5 15q-32 0 -70 -10.5t-74 -27.5l-51 111q44 23 97.5 36t110.5 13q92 0 154 -56q32 28 70 41.5t92 13.5zM604 442q-33 0 -55.5 -24t-25.5 -78h156q-1 43 -20 72.5t-55 29.5zM347 250l-38 -2q-53 -2 -72.5 -23.5t-19.5 -56.5q0 -32 14.5 -44.5
t37.5 -12.5q31 0 54.5 25.5t23.5 69.5v44z" />
    <glyph glyph-name="ccedilla" unicode="&#xe7;" horiz-adv-x="507" 
d="M299 -10q-119 0 -189 67.5t-70 214.5q0 100 35.5 163.5t97.5 93.5t140 30q48 0 91.5 -11t76.5 -28l-49 -125q-28 14 -52.5 22t-51.5 8q-47 0 -76.5 -37.5t-29.5 -114.5t29.5 -112.5t76.5 -35.5q35 0 70.5 12.5t66.5 35.5v-138q-33 -23 -73 -34t-93 -11zM443 -122
q0 -56 -34.5 -87t-91.5 -31q-32 0 -58.5 4t-42.5 9v88q15 -5 30 -8t30 -3q39 0 39 29q0 18 -16 30t-52 19l29 72h89l-8 -30q19 -6 38.5 -17t33.5 -29t14 -46z" />
    <glyph glyph-name="egrave" unicode="&#xe8;" horiz-adv-x="580" 
d="M297 559q113 0 178.5 -63.5t65.5 -186.5v-78h-320q1 -54 29.5 -86t83.5 -32q50 0 90.5 10t83.5 32v-125q-38 -21 -83 -30.5t-112 -9.5q-78 0 -140 30t-97.5 92t-35.5 159q0 146 71 217t186 71zM302 442q-32 0 -53 -25t-25 -77h155q-1 44 -20 73t-57 29zM308 766
q16 -22 38 -49.5t44.5 -53t37.5 -44.5v-13h-119q-19 13 -45.5 32.5t-55.5 41.5t-54.5 42t-42.5 34v10h197z" />
    <glyph glyph-name="eacute" unicode="&#xe9;" horiz-adv-x="580" 
d="M297 559q113 0 178.5 -63.5t65.5 -186.5v-78h-320q1 -54 29.5 -86t83.5 -32q50 0 90.5 10t83.5 32v-125q-38 -21 -83 -30.5t-112 -9.5q-78 0 -140 30t-97.5 92t-35.5 159q0 146 71 217t186 71zM302 442q-32 0 -53 -25t-25 -77h155q-1 44 -20 73t-57 29zM483 766v-10
q-17 -14 -42.5 -34t-54 -42t-55.5 -41.5t-46 -32.5h-119v13q16 19 38.5 44.5t45 53t37.5 49.5h196z" />
    <glyph glyph-name="ecircumflex" unicode="&#xea;" horiz-adv-x="580" 
d="M297 559q113 0 178.5 -63.5t65.5 -186.5v-78h-320q1 -54 29.5 -86t83.5 -32q50 0 90.5 10t83.5 32v-125q-38 -21 -83 -30.5t-112 -9.5q-78 0 -140 30t-97.5 92t-35.5 159q0 146 71 217t186 71zM302 442q-32 0 -53 -25t-25 -77h155q-1 44 -20 73t-57 29zM381 766
q15 -22 36.5 -49.5t43 -53.5t37.5 -44v-13h-116q-25 16 -46.5 35.5t-45.5 44.5q-25 -25 -45 -44.5t-45 -35.5h-118v13q18 19 40 44.5t43 53t35 49.5h181z" />
    <glyph glyph-name="edieresis" unicode="&#xeb;" horiz-adv-x="580" 
d="M297 559q113 0 178.5 -63.5t65.5 -186.5v-78h-320q1 -54 29.5 -86t83.5 -32q50 0 90.5 10t83.5 32v-125q-38 -21 -83 -30.5t-112 -9.5q-78 0 -140 30t-97.5 92t-35.5 159q0 146 71 217t186 71zM302 442q-32 0 -53 -25t-25 -77h155q-1 44 -20 73t-57 29zM102 688
q0 37 22 54t55 17q32 0 55.5 -17t23.5 -54q0 -36 -23.5 -53t-55.5 -17q-33 0 -55 17t-22 53zM321 688q0 37 22.5 54t56.5 17q31 0 54.5 -17t23.5 -54q0 -36 -23.5 -53t-54.5 -17q-34 0 -56.5 17t-22.5 53z" />
    <glyph glyph-name="igrave" unicode="&#xec;" horiz-adv-x="305" 
d="M242 0h-179v549h179v-549zM171 766q16 -22 38 -49.5t44.5 -53t37.5 -44.5v-13h-119q-19 13 -45.5 32.5t-55.5 41.5t-54.5 42t-42.5 34v10h197z" />
    <glyph glyph-name="iacute" unicode="&#xed;" horiz-adv-x="305" 
d="M242 0h-179v549h179v-549zM346 766v-10q-17 -14 -42.5 -34t-54 -42t-55.5 -41.5t-46 -32.5h-119v13q16 19 38.5 44.5t45 53t37.5 49.5h196z" />
    <glyph glyph-name="icircumflex" unicode="&#xee;" horiz-adv-x="305" 
d="M242 0h-179v549h179v-549zM244 766q15 -22 36.5 -49.5t43 -53.5t37.5 -44v-13h-116q-25 16 -46.5 35.5t-45.5 44.5q-25 -25 -45 -44.5t-45 -35.5h-118v13q18 19 40 44.5t43 53t35 49.5h181z" />
    <glyph glyph-name="idieresis" unicode="&#xef;" horiz-adv-x="305" 
d="M242 0h-179v549h179v-549zM-35 688q0 37 22 54t55 17q32 0 55.5 -17t23.5 -54q0 -36 -23.5 -53t-55.5 -17q-33 0 -55 17t-22 53zM184 688q0 37 22.5 54t56.5 17q31 0 54.5 -17t23.5 -54q0 -36 -23.5 -53t-54.5 -17q-34 0 -56.5 17t-22.5 53z" />
    <glyph glyph-name="eth" unicode="&#xf0;" horiz-adv-x="602" 
d="M220 766q72 -32 121 -67l97 67l52 -81l-66 -49q66 -68 100 -152.5t34 -202.5q0 -91 -32 -156.5t-91 -100t-138 -34.5q-75 0 -133 29t-91 85t-33 137t29 136.5t79 84t112 28.5q46 0 73 -11t39 -34l4 2q-14 35 -29 63.5t-37 56.5l-85 -64l-52 82l65 49q-14 10 -32.5 22
t-35.5 23zM299 368q-42 0 -59 -31t-17 -96q0 -58 17.5 -93.5t58.5 -35.5q42 0 59 37.5t17 113.5q0 41 -18.5 73t-57.5 32z" />
    <glyph glyph-name="ntilde" unicode="&#xf1;" horiz-adv-x="630" 
d="M387 559q81 0 132 -47.5t51 -153.5v-358h-179v311q0 57 -15 86t-49 29q-51 0 -68 -45.5t-17 -130.5v-250h-180v549h135l25 -71h7q49 81 158 81zM509 764q-6 -83 -37 -120.5t-76 -37.5q-28 0 -56 12t-54 24.5t-49 12.5q-8 0 -17.5 -10.5t-14.5 -39.5h-83q6 84 35.5 121
t79.5 37q24 0 50.5 -12.5t53.5 -24.5t51 -12q8 0 18 11t14 39h85z" />
    <glyph glyph-name="ograve" unicode="&#xf2;" horiz-adv-x="598" 
d="M558 276q0 -138 -69 -212t-191 -74q-75 0 -133.5 33t-91.5 97t-33 156q0 136 69.5 209.5t191.5 73.5q75 0 133 -33t91 -96t33 -154zM222 276q0 -76 17.5 -116t60.5 -40q42 0 59 40t17 116t-17 114.5t-60 38.5q-41 0 -59 -38.5t-18 -114.5zM318 766q16 -22 38 -49.5
t44.5 -53t37.5 -44.5v-13h-119q-19 13 -45.5 32.5t-55.5 41.5t-54.5 42t-42.5 34v10h197z" />
    <glyph glyph-name="oacute" unicode="&#xf3;" horiz-adv-x="598" 
d="M558 276q0 -138 -69 -212t-191 -74q-75 0 -133.5 33t-91.5 97t-33 156q0 136 69.5 209.5t191.5 73.5q75 0 133 -33t91 -96t33 -154zM222 276q0 -76 17.5 -116t60.5 -40q42 0 59 40t17 116t-17 114.5t-60 38.5q-41 0 -59 -38.5t-18 -114.5zM493 766v-10q-17 -14 -42.5 -34
t-54 -42t-55.5 -41.5t-46 -32.5h-119v13q16 19 38.5 44.5t45 53t37.5 49.5h196z" />
    <glyph glyph-name="ocircumflex" unicode="&#xf4;" horiz-adv-x="598" 
d="M558 276q0 -138 -69 -212t-191 -74q-75 0 -133.5 33t-91.5 97t-33 156q0 136 69.5 209.5t191.5 73.5q75 0 133 -33t91 -96t33 -154zM222 276q0 -76 17.5 -116t60.5 -40q42 0 59 40t17 116t-17 114.5t-60 38.5q-41 0 -59 -38.5t-18 -114.5zM391 766q15 -22 36.5 -49.5
t43 -53.5t37.5 -44v-13h-116q-25 16 -46.5 35.5t-45.5 44.5q-25 -25 -45 -44.5t-45 -35.5h-118v13q18 19 40 44.5t43 53t35 49.5h181z" />
    <glyph glyph-name="otilde" unicode="&#xf5;" horiz-adv-x="598" 
d="M558 276q0 -138 -69 -212t-191 -74q-75 0 -133.5 33t-91.5 97t-33 156q0 136 69.5 209.5t191.5 73.5q75 0 133 -33t91 -96t33 -154zM222 276q0 -76 17.5 -116t60.5 -40q42 0 59 40t17 116t-17 114.5t-60 38.5q-41 0 -59 -38.5t-18 -114.5zM494 764q-6 -83 -37 -120.5
t-76 -37.5q-28 0 -56 12t-54 24.5t-49 12.5q-8 0 -17.5 -10.5t-14.5 -39.5h-83q6 84 35.5 121t79.5 37q24 0 50.5 -12.5t53.5 -24.5t51 -12q8 0 18 11t14 39h85z" />
    <glyph glyph-name="odieresis" unicode="&#xf6;" horiz-adv-x="598" 
d="M558 276q0 -138 -69 -212t-191 -74q-75 0 -133.5 33t-91.5 97t-33 156q0 136 69.5 209.5t191.5 73.5q75 0 133 -33t91 -96t33 -154zM222 276q0 -76 17.5 -116t60.5 -40q42 0 59 40t17 116t-17 114.5t-60 38.5q-41 0 -59 -38.5t-18 -114.5zM112 688q0 37 22 54t55 17
q32 0 55.5 -17t23.5 -54q0 -36 -23.5 -53t-55.5 -17q-33 0 -55 17t-22 53zM331 688q0 37 22.5 54t56.5 17q31 0 54.5 -17t23.5 -54q0 -36 -23.5 -53t-54.5 -17q-34 0 -56.5 17t-22.5 53z" />
    <glyph glyph-name="divide" unicode="&#xf7;" horiz-adv-x="552" 
d="M275 454q-29 0 -50.5 18.5t-21.5 59.5q0 44 21.5 61t50.5 17t50.5 -17t21.5 -61q0 -41 -21.5 -59.5t-50.5 -18.5zM43 293v119h465v-119h-465zM275 95q-29 0 -50.5 18.5t-21.5 59.5q0 43 21.5 60.5t50.5 17.5t50.5 -17.5t21.5 -60.5q0 -41 -21.5 -59.5t-50.5 -18.5z" />
    <glyph glyph-name="oslash" unicode="&#xf8;" horiz-adv-x="624" 
d="M584 276q0 -138 -73 -212t-200 -74q-56 0 -105 20l-39 -56l-78 51l37 54q-40 37 -63 91.5t-23 125.5q0 136 73 209.5t201 73.5q57 0 107 -22l33 46l77 -52l-32 -45q40 -36 62.5 -89t22.5 -121zM211 276q0 -22 1 -41t5 -36l133 226q-18 9 -38 9q-56 0 -78.5 -39.5
t-22.5 -118.5zM413 276q0 19 -1.5 35.5t-3.5 31.5l-130 -222q8 -3 16.5 -4t18.5 -1q57 0 78.5 40.5t21.5 119.5z" />
    <glyph glyph-name="ugrave" unicode="&#xf9;" horiz-adv-x="630" 
d="M568 549v-549h-135l-23 70h-11q-25 -42 -66.5 -61t-89.5 -19q-51 0 -92 21t-65.5 65t-24.5 115v358h180v-311q0 -56 14 -85t48 -29q51 0 68 45t17 130v250h180zM333 766q16 -22 38 -49.5t44.5 -53t37.5 -44.5v-13h-119q-19 13 -45.5 32.5t-55.5 41.5t-54.5 42t-42.5 34
v10h197z" />
    <glyph glyph-name="uacute" unicode="&#xfa;" horiz-adv-x="630" 
d="M568 549v-549h-135l-23 70h-11q-25 -42 -66.5 -61t-89.5 -19q-51 0 -92 21t-65.5 65t-24.5 115v358h180v-311q0 -56 14 -85t48 -29q51 0 68 45t17 130v250h180zM508 766v-10q-17 -14 -42.5 -34t-54 -42t-55.5 -41.5t-46 -32.5h-119v13q16 19 38.5 44.5t45 53t37.5 49.5
h196z" />
    <glyph glyph-name="ucircumflex" unicode="&#xfb;" horiz-adv-x="630" 
d="M568 549v-549h-135l-23 70h-11q-25 -42 -66.5 -61t-89.5 -19q-51 0 -92 21t-65.5 65t-24.5 115v358h180v-311q0 -56 14 -85t48 -29q51 0 68 45t17 130v250h180zM406 766q15 -22 36.5 -49.5t43 -53.5t37.5 -44v-13h-116q-25 16 -46.5 35.5t-45.5 44.5q-25 -25 -45 -44.5
t-45 -35.5h-118v13q18 19 40 44.5t43 53t35 49.5h181z" />
    <glyph glyph-name="udieresis" unicode="&#xfc;" horiz-adv-x="630" 
d="M568 549v-549h-135l-23 70h-11q-25 -42 -66.5 -61t-89.5 -19q-51 0 -92 21t-65.5 65t-24.5 115v358h180v-311q0 -56 14 -85t48 -29q51 0 68 45t17 130v250h180zM127 688q0 37 22 54t55 17q32 0 55.5 -17t23.5 -54q0 -36 -23.5 -53t-55.5 -17q-33 0 -55 17t-22 53z
M346 688q0 37 22.5 54t56.5 17q31 0 54.5 -17t23.5 -54q0 -36 -23.5 -53t-54.5 -17q-34 0 -56.5 17t-22.5 53z" />
    <glyph glyph-name="yacute" unicode="&#xfd;" horiz-adv-x="573" 
d="M0 549h188l86 -311q5 -16 7.5 -36.5t3.5 -42.5h4q2 23 4.5 42.5t7.5 36.5l89 311h184l-209 -602q-32 -93 -87.5 -140t-157.5 -47q-24 0 -42 2.5t-31 5.5v133q10 -2 24.5 -4t30.5 -2q45 0 66 26.5t31 64.5l5 20zM480 766v-10q-17 -14 -42.5 -34t-54 -42t-55.5 -41.5
t-46 -32.5h-119v13q16 19 38.5 44.5t45 53t37.5 49.5h196z" />
    <glyph glyph-name="thorn" unicode="&#xfe;" horiz-adv-x="605" 
d="M565 276q0 -94 -25 -157.5t-68.5 -96t-98.5 -32.5q-48 0 -79.5 19.5t-51.5 45.5h-7q3 -15 5 -37t2 -38v-220h-180v1000h180v-180q0 -32 -3.5 -59.5t-5.5 -42.5h9q17 34 51.5 57.5t86.5 23.5q81 0 133 -71.5t52 -211.5zM382 278q0 74 -15 111t-53 37q-40 0 -56 -33
t-16 -101v-15q0 -73 16 -112t58 -39q38 0 52 39t14 113z" />
    <glyph glyph-name="ydieresis" unicode="&#xff;" horiz-adv-x="573" 
d="M0 549h188l86 -311q5 -16 7.5 -36.5t3.5 -42.5h4q2 23 4.5 42.5t7.5 36.5l89 311h184l-209 -602q-32 -93 -87.5 -140t-157.5 -47q-24 0 -42 2.5t-31 5.5v133q10 -2 24.5 -4t30.5 -2q45 0 66 26.5t31 64.5l5 20zM99 688q0 37 22 54t55 17q32 0 55.5 -17t23.5 -54
q0 -36 -23.5 -53t-55.5 -17q-33 0 -55 17t-22 53zM318 688q0 37 22.5 54t56.5 17q31 0 54.5 -17t23.5 -54q0 -36 -23.5 -53t-54.5 -17q-34 0 -56.5 17t-22.5 53z" />
    <glyph glyph-name="Amacron" unicode="&#x100;" horiz-adv-x="682" 
d="M484 0l-33 153h-218l-34 -153h-199l219 717h241l222 -717h-198zM414 295l-38 144q-8 33 -18 75t-17 84q-6 -42 -15.5 -84t-17.5 -75l-38 -144h144zM507 880v-109h-333v109h333z" />
    <glyph glyph-name="amacron" unicode="&#x101;" horiz-adv-x="586" 
d="M316 560q99 0 154.5 -49.5t55.5 -146.5v-364h-124l-35 74h-4q-33 -44 -70 -64t-101 -20q-68 0 -113 43t-45 133q0 88 58 130.5t167 46.5l87 3v16q0 40 -17 58t-46 18q-31 0 -69 -11.5t-76 -28.5l-51 112q45 24 102 37t127 13zM347 250l-41 -2q-50 -2 -70 -22.5t-20 -55.5
q0 -32 14.5 -45.5t37.5 -13.5q32 0 55.5 25.5t23.5 69.5v44zM460 721v-109h-333v109h333z" />
    <glyph glyph-name="Abreve" unicode="&#x102;" horiz-adv-x="682" 
d="M484 0l-33 153h-218l-34 -153h-199l219 717h241l222 -717h-198zM414 295l-38 144q-8 33 -18 75t-17 84q-6 -42 -15.5 -84t-17.5 -75l-38 -144h144zM526 943q-5 -76 -53.5 -124t-133.5 -48q-89 0 -134.5 46.5t-49.5 125.5h96q10 -42 29.5 -52t58.5 -10q30 0 53.5 11.5
t33.5 50.5h100z" />
    <glyph glyph-name="abreve" unicode="&#x103;" horiz-adv-x="586" 
d="M316 560q99 0 154.5 -49.5t55.5 -146.5v-364h-124l-35 74h-4q-33 -44 -70 -64t-101 -20q-68 0 -113 43t-45 133q0 88 58 130.5t167 46.5l87 3v16q0 40 -17 58t-46 18q-31 0 -69 -11.5t-76 -28.5l-51 112q45 24 102 37t127 13zM347 250l-41 -2q-50 -2 -70 -22.5t-20 -55.5
q0 -32 14.5 -45.5t37.5 -13.5q32 0 55.5 25.5t23.5 69.5v44zM479 784q-5 -76 -53.5 -124t-133.5 -48q-89 0 -134.5 46.5t-49.5 125.5h96q10 -42 29.5 -52t58.5 -10q30 0 53.5 11.5t33.5 50.5h100z" />
    <glyph glyph-name="Aogonek" unicode="&#x104;" horiz-adv-x="682" 
d="M484 0l-33 153h-218l-34 -153h-199l219 717h241l222 -717h-198zM414 295l-38 144q-8 33 -18 75t-17 84q-6 -42 -15.5 -84t-17.5 -75l-38 -144h144zM593 -105q0 -36 35 -36q12 0 28.5 3t25.5 7v-97q-15 -5 -34.5 -8.5t-44.5 -3.5q-53 0 -90 31t-37 81q0 39 22.5 76.5
t84.5 72.5l70 -21q-31 -32 -45.5 -56t-14.5 -49z" />
    <glyph glyph-name="aogonek" unicode="&#x105;" horiz-adv-x="586" 
d="M316 560q99 0 154.5 -49.5t55.5 -146.5v-364h-124l-35 74h-4q-33 -44 -70 -64t-101 -20q-68 0 -113 43t-45 133q0 88 58 130.5t167 46.5l87 3v16q0 40 -17 58t-46 18q-31 0 -69 -11.5t-76 -28.5l-51 112q45 24 102 37t127 13zM347 250l-41 -2q-50 -2 -70 -22.5t-20 -55.5
q0 -32 14.5 -45.5t37.5 -13.5q32 0 55.5 25.5t23.5 69.5v44zM455 -105q0 -36 35 -36q12 0 28.5 3t25.5 7v-97q-15 -5 -34.5 -8.5t-44.5 -3.5q-53 0 -90 31t-37 81q0 39 22.5 76.5t84.5 72.5l70 -21q-31 -32 -45.5 -56t-14.5 -49z" />
    <glyph glyph-name="Cacute" unicode="&#x106;" horiz-adv-x="610" 
d="M376 583q-69 0 -106 -60.5t-37 -167.5q0 -109 38 -166.5t115 -57.5q43 0 84 11.5t82 29.5v-144q-44 -20 -91 -29t-99 -9q-110 0 -179.5 46t-102 128t-32.5 192q0 108 37.5 191t110 130t177.5 47q49 0 106 -13.5t101 -36.5l-55 -136q-35 19 -72 32t-77 13zM546 931v-10
q-17 -14 -42.5 -34t-54 -42t-55.5 -41.5t-46 -32.5h-119v13q16 19 38.5 44.5t45 53t37.5 49.5h196z" />
    <glyph glyph-name="cacute" unicode="&#x107;" horiz-adv-x="507" 
d="M299 -10q-119 0 -189 67.5t-70 214.5q0 100 35.5 163.5t97.5 93.5t140 30q48 0 91.5 -11t76.5 -28l-49 -125q-28 14 -52.5 22t-51.5 8q-47 0 -76.5 -37.5t-29.5 -114.5t29.5 -112.5t76.5 -35.5q35 0 70.5 12.5t66.5 35.5v-138q-33 -23 -73 -34t-93 -11zM469 766v-10
q-17 -14 -42.5 -34t-54 -42t-55.5 -41.5t-46 -32.5h-119v13q16 19 38.5 44.5t45 53t37.5 49.5h196z" />
    <glyph glyph-name="Ccircumflex" unicode="&#x108;" horiz-adv-x="610" 
d="M376 583q-69 0 -106 -60.5t-37 -167.5q0 -109 38 -166.5t115 -57.5q43 0 84 11.5t82 29.5v-144q-44 -20 -91 -29t-99 -9q-110 0 -179.5 46t-102 128t-32.5 192q0 108 37.5 191t110 130t177.5 47q49 0 106 -13.5t101 -36.5l-55 -136q-35 19 -72 32t-77 13zM444 931
q15 -22 36.5 -49.5t43 -53.5t37.5 -44v-13h-116q-25 16 -46.5 35.5t-45.5 44.5q-25 -25 -45 -44.5t-45 -35.5h-118v13q18 19 40 44.5t43 53t35 49.5h181z" />
    <glyph glyph-name="ccircumflex" unicode="&#x109;" horiz-adv-x="507" 
d="M299 -10q-119 0 -189 67.5t-70 214.5q0 100 35.5 163.5t97.5 93.5t140 30q48 0 91.5 -11t76.5 -28l-49 -125q-28 14 -52.5 22t-51.5 8q-47 0 -76.5 -37.5t-29.5 -114.5t29.5 -112.5t76.5 -35.5q35 0 70.5 12.5t66.5 35.5v-138q-33 -23 -73 -34t-93 -11zM367 766
q15 -22 36.5 -49.5t43 -53.5t37.5 -44v-13h-116q-25 16 -46.5 35.5t-45.5 44.5q-25 -25 -45 -44.5t-45 -35.5h-118v13q18 19 40 44.5t43 53t35 49.5h181z" />
    <glyph glyph-name="Cdot" unicode="&#x10a;" horiz-adv-x="610" 
d="M376 583q-69 0 -106 -60.5t-37 -167.5q0 -109 38 -166.5t115 -57.5q43 0 84 11.5t82 29.5v-144q-44 -20 -91 -29t-99 -9q-110 0 -179.5 46t-102 128t-32.5 192q0 108 37.5 191t110 130t177.5 47q49 0 106 -13.5t101 -36.5l-55 -136q-35 19 -72 32t-77 13zM353 932
q38 0 66.5 -16t28.5 -62q0 -45 -28.5 -61.5t-66.5 -16.5q-40 0 -67.5 16.5t-27.5 61.5q0 46 27.5 62t67.5 16z" />
    <glyph glyph-name="cdot" unicode="&#x10b;" horiz-adv-x="507" 
d="M299 -10q-119 0 -189 67.5t-70 214.5q0 100 35.5 163.5t97.5 93.5t140 30q48 0 91.5 -11t76.5 -28l-49 -125q-28 14 -52.5 22t-51.5 8q-47 0 -76.5 -37.5t-29.5 -114.5t29.5 -112.5t76.5 -35.5q35 0 70.5 12.5t66.5 35.5v-138q-33 -23 -73 -34t-93 -11zM276 767
q38 0 66.5 -16t28.5 -62q0 -45 -28.5 -61.5t-66.5 -16.5q-40 0 -67.5 16.5t-27.5 61.5q0 46 27.5 62t67.5 16z" />
    <glyph glyph-name="Ccaron" unicode="&#x10c;" horiz-adv-x="610" 
d="M376 583q-69 0 -106 -60.5t-37 -167.5q0 -109 38 -166.5t115 -57.5q43 0 84 11.5t82 29.5v-144q-44 -20 -91 -29t-99 -9q-110 0 -179.5 46t-102 128t-32.5 192q0 108 37.5 191t110 130t177.5 47q49 0 106 -13.5t101 -36.5l-55 -136q-35 19 -72 32t-77 13zM561 931v-13
q-16 -18 -37.5 -44t-43 -53.5t-36.5 -49.5h-181q-14 22 -35 49.5t-43 53t-40 44.5v13h118q25 -16 45 -35.5t45 -44.5q24 25 45.5 44.5t46.5 35.5h116z" />
    <glyph glyph-name="ccaron" unicode="&#x10d;" horiz-adv-x="507" 
d="M299 -10q-119 0 -189 67.5t-70 214.5q0 100 35.5 163.5t97.5 93.5t140 30q48 0 91.5 -11t76.5 -28l-49 -125q-28 14 -52.5 22t-51.5 8q-47 0 -76.5 -37.5t-29.5 -114.5t29.5 -112.5t76.5 -35.5q35 0 70.5 12.5t66.5 35.5v-138q-33 -23 -73 -34t-93 -11zM484 766v-13
q-16 -18 -37.5 -44t-43 -53.5t-36.5 -49.5h-181q-14 22 -35 49.5t-43 53t-40 44.5v13h118q25 -16 45 -35.5t45 -44.5q24 25 45.5 44.5t46.5 35.5h116z" />
    <glyph glyph-name="Dcaron" unicode="&#x10e;" horiz-adv-x="690" 
d="M642 368q0 -123 -43.5 -204.5t-123 -122.5t-186.5 -41h-216v714h232q162 0 249.5 -88.5t87.5 -257.5zM455 362q0 109 -37.5 161t-110.5 52h-53v-435h40q83 0 122 55.5t39 166.5zM554 931v-13q-16 -18 -37.5 -44t-43 -53.5t-36.5 -49.5h-181q-14 22 -35 49.5t-43 53
t-40 44.5v13h118q25 -16 45 -35.5t45 -44.5q24 25 45.5 44.5t46.5 35.5h116z" />
    <glyph glyph-name="dcaron" unicode="&#x10f;" horiz-adv-x="638" 
d="M224 -10q-80 0 -132 72t-52 212q0 141 53 213t137 72q53 0 84.5 -23t52.5 -57h3q-3 18 -5.5 51.5t-2.5 66.5v163h180v-760h-135l-38 71h-7q-19 -34 -51.5 -57.5t-86.5 -23.5zM297 124q43 0 61.5 33t18.5 100v15q0 74 -17.5 112.5t-64.5 38.5q-33 0 -53.5 -38t-20.5 -114
q0 -75 20.5 -111t55.5 -36zM765 760v-10q-19 -35 -37 -71.5t-44 -78.5h-107v13q7 29 15 72t11 75h162z" />
    <glyph glyph-name="Dcroat" unicode="&#x110;" horiz-adv-x="690" 
d="M305 714q161 0 249 -88.5t88 -257.5q0 -123 -43.5 -204.5t-123 -122.5t-186.5 -41h-216v284h-59v138h59v292h232zM306 575h-53v-153h97v-138h-97v-144h42q82 0 121 55.5t39 166.5q0 109 -37 161t-112 52z" />
    <glyph glyph-name="dcroat" unicode="&#x111;" horiz-adv-x="623" 
d="M216 -10q-76 0 -126 67.5t-50 196.5q0 134 54 200t140 66q52 0 85 -23t54 -57h3q-5 25 -9.5 55.5t-4.5 66.5v16h-107v106h107v76h180v-76h72v-106h-72v-578h-146l-41 71h-6q-19 -34 -50.5 -57.5t-82.5 -23.5zM307 124q38 0 54 29t16 87v13q0 64 -20 97.5t-54 33.5
q-29 0 -47.5 -32t-18.5 -100q0 -58 16.5 -93t53.5 -35z" />
    <glyph glyph-name="Emacron" unicode="&#x112;" horiz-adv-x="516" 
d="M471 0h-398v714h398v-138h-217v-137h201v-138h-201v-161h217v-140zM438 880v-109h-333v109h333z" />
    <glyph glyph-name="emacron" unicode="&#x113;" horiz-adv-x="580" 
d="M297 559q113 0 178.5 -63.5t65.5 -186.5v-78h-320q1 -54 29.5 -86t83.5 -32q50 0 90.5 10t83.5 32v-125q-38 -21 -83 -30.5t-112 -9.5q-78 0 -140 30t-97.5 92t-35.5 159q0 146 71 217t186 71zM302 442q-32 0 -53 -25t-25 -77h155q-1 44 -20 73t-57 29zM456 715v-109
h-333v109h333z" />
    <glyph glyph-name="Ebreve" unicode="&#x114;" horiz-adv-x="516" 
d="M471 0h-398v714h398v-138h-217v-137h201v-138h-201v-161h217v-140zM457 943q-5 -76 -53.5 -124t-133.5 -48q-89 0 -134.5 46.5t-49.5 125.5h96q10 -42 29.5 -52t58.5 -10q30 0 53.5 11.5t33.5 50.5h100z" />
    <glyph glyph-name="ebreve" unicode="&#x115;" horiz-adv-x="580" 
d="M297 559q113 0 178.5 -63.5t65.5 -186.5v-78h-320q1 -54 29.5 -86t83.5 -32q50 0 90.5 10t83.5 32v-125q-38 -21 -83 -30.5t-112 -9.5q-78 0 -140 30t-97.5 92t-35.5 159q0 146 71 217t186 71zM302 442q-32 0 -53 -25t-25 -77h155q-1 44 -20 73t-57 29zM475 778
q-5 -76 -53.5 -124t-133.5 -48q-89 0 -134.5 46.5t-49.5 125.5h96q10 -42 29.5 -52t58.5 -10q30 0 53.5 11.5t33.5 50.5h100z" />
    <glyph glyph-name="Edotaccent" unicode="&#x116;" horiz-adv-x="516" 
d="M471 0h-398v714h398v-138h-217v-137h201v-138h-201v-161h217v-140zM272 932q38 0 66.5 -16t28.5 -62q0 -45 -28.5 -61.5t-66.5 -16.5q-40 0 -67.5 16.5t-27.5 61.5q0 46 27.5 62t67.5 16z" />
    <glyph glyph-name="edotaccent" unicode="&#x117;" horiz-adv-x="580" 
d="M297 559q113 0 178.5 -63.5t65.5 -186.5v-78h-320q1 -54 29.5 -86t83.5 -32q50 0 90.5 10t83.5 32v-125q-38 -21 -83 -30.5t-112 -9.5q-78 0 -140 30t-97.5 92t-35.5 159q0 146 71 217t186 71zM302 442q-32 0 -53 -25t-25 -77h155q-1 44 -20 73t-57 29zM290 767
q38 0 66.5 -16t28.5 -62q0 -45 -28.5 -61.5t-66.5 -16.5q-40 0 -67.5 16.5t-27.5 61.5q0 46 27.5 62t67.5 16z" />
    <glyph glyph-name="Eogonek" unicode="&#x118;" horiz-adv-x="516" 
d="M471 0h-398v714h398v-138h-217v-137h201v-138h-201v-161h217v-140zM407 -105q0 -36 35 -36q12 0 28.5 3t25.5 7v-97q-15 -5 -34.5 -8.5t-44.5 -3.5q-53 0 -90 31t-37 81q0 39 22.5 76.5t84.5 72.5l70 -21q-31 -32 -45.5 -56t-14.5 -49z" />
    <glyph glyph-name="eogonek" unicode="&#x119;" horiz-adv-x="580" 
d="M408 -102q0 -20 11.5 -29.5t28.5 -9.5q15 0 30 3t25 7v-97q-16 -5 -35.5 -8.5t-44.5 -3.5q-56 0 -92 31t-36 81q0 62 70 120q-23 -2 -52 -2q-78 0 -140 30t-97.5 92t-35.5 159q0 146 71 217t186 71q113 0 178.5 -63.5t65.5 -186.5v-78h-320q1 -54 29.5 -86t83.5 -32
q50 0 90.5 10t83.5 32v-125l-3 -1q-39 -35 -60 -58t-29 -40t-8 -33zM302 442q-32 0 -53 -25t-25 -77h155q-1 44 -20 73t-57 29z" />
    <glyph glyph-name="Ecaron" unicode="&#x11a;" horiz-adv-x="516" 
d="M471 0h-398v714h398v-138h-217v-137h201v-138h-201v-161h217v-140zM480 931v-13q-16 -18 -37.5 -44t-43 -53.5t-36.5 -49.5h-181q-14 22 -35 49.5t-43 53t-40 44.5v13h118q25 -16 45 -35.5t45 -44.5q24 25 45.5 44.5t46.5 35.5h116z" />
    <glyph glyph-name="ecaron" unicode="&#x11b;" horiz-adv-x="580" 
d="M297 559q113 0 178.5 -63.5t65.5 -186.5v-78h-320q1 -54 29.5 -86t83.5 -32q50 0 90.5 10t83.5 32v-125q-38 -21 -83 -30.5t-112 -9.5q-78 0 -140 30t-97.5 92t-35.5 159q0 146 71 217t186 71zM302 442q-32 0 -53 -25t-25 -77h155q-1 44 -20 73t-57 29zM498 766v-13
q-16 -18 -37.5 -44t-43 -53.5t-36.5 -49.5h-181q-14 22 -35 49.5t-43 53t-40 44.5v13h118q25 -16 45 -35.5t45 -44.5q24 25 45.5 44.5t46.5 35.5h116z" />
    <glyph glyph-name="Gcircumflex" unicode="&#x11c;" horiz-adv-x="695" 
d="M342 409h289v-377q-53 -19 -119 -30.5t-140 -11.5q-97 0 -170 41t-113.5 123t-40.5 204q0 112 40.5 194t119 127t193.5 45q62 0 118.5 -12t97.5 -32l-57 -135q-36 17 -75 27.5t-83 10.5q-61 0 -97.5 -29.5t-53 -81t-16.5 -117.5q0 -103 39 -163.5t113 -60.5q16 0 39 3
t36 6v132h-120v137zM467 931q15 -22 36.5 -49.5t43 -53.5t37.5 -44v-13h-116q-25 16 -46.5 35.5t-45.5 44.5q-25 -25 -45 -44.5t-45 -35.5h-118v13q18 19 40 44.5t43 53t35 49.5h181z" />
    <glyph glyph-name="gcircumflex" unicode="&#x11d;" horiz-adv-x="605" 
d="M228 559q55 0 88.5 -21t53.5 -58h4l13 69h155v-550q0 -117 -68 -178t-209 -61q-63 0 -111 7t-92 25v137q47 -21 89.5 -31.5t103.5 -10.5q108 0 108 105v11q0 14 1.5 32.5t4.5 35.5h-6q-18 -38 -51 -59.5t-86 -21.5q-83 0 -134.5 74t-51.5 210q0 137 52.5 211t135.5 74z
M296 426q-74 0 -74 -155q0 -77 18.5 -113.5t57.5 -36.5q44 0 61.5 31.5t17.5 101.5v21q0 77 -16.5 114t-64.5 37zM386 766q15 -22 36.5 -49.5t43 -53.5t37.5 -44v-13h-116q-25 16 -46.5 35.5t-45.5 44.5q-25 -25 -45 -44.5t-45 -35.5h-118v13q18 19 40 44.5t43 53t35 49.5
h181z" />
    <glyph glyph-name="Gbreve" unicode="&#x11e;" horiz-adv-x="695" 
d="M342 409h289v-377q-53 -19 -119 -30.5t-140 -11.5q-97 0 -170 41t-113.5 123t-40.5 204q0 112 40.5 194t119 127t193.5 45q62 0 118.5 -12t97.5 -32l-57 -135q-36 17 -75 27.5t-83 10.5q-61 0 -97.5 -29.5t-53 -81t-16.5 -117.5q0 -103 39 -163.5t113 -60.5q16 0 39 3
t36 6v132h-120v137zM561 943q-5 -76 -53.5 -124t-133.5 -48q-89 0 -134.5 46.5t-49.5 125.5h96q10 -42 29.5 -52t58.5 -10q30 0 53.5 11.5t33.5 50.5h100z" />
    <glyph glyph-name="gbreve" unicode="&#x11f;" horiz-adv-x="605" 
d="M228 559q55 0 88.5 -21t53.5 -58h4l13 69h155v-550q0 -117 -68 -178t-209 -61q-63 0 -111 7t-92 25v137q47 -21 89.5 -31.5t103.5 -10.5q108 0 108 105v11q0 14 1.5 32.5t4.5 35.5h-6q-18 -38 -51 -59.5t-86 -21.5q-83 0 -134.5 74t-51.5 210q0 137 52.5 211t135.5 74z
M296 426q-74 0 -74 -155q0 -77 18.5 -113.5t57.5 -36.5q44 0 61.5 31.5t17.5 101.5v21q0 77 -16.5 114t-64.5 37zM480 778q-5 -76 -53.5 -124t-133.5 -48q-89 0 -134.5 46.5t-49.5 125.5h96q10 -42 29.5 -52t58.5 -10q30 0 53.5 11.5t33.5 50.5h100z" />
    <glyph glyph-name="Gdot" unicode="&#x120;" horiz-adv-x="695" 
d="M342 409h289v-377q-53 -19 -119 -30.5t-140 -11.5q-97 0 -170 41t-113.5 123t-40.5 204q0 112 40.5 194t119 127t193.5 45q62 0 118.5 -12t97.5 -32l-57 -135q-36 17 -75 27.5t-83 10.5q-61 0 -97.5 -29.5t-53 -81t-16.5 -117.5q0 -103 39 -163.5t113 -60.5q16 0 39 3
t36 6v132h-120v137zM376 932q38 0 66.5 -16t28.5 -62q0 -45 -28.5 -61.5t-66.5 -16.5q-40 0 -67.5 16.5t-27.5 61.5q0 46 27.5 62t67.5 16z" />
    <glyph glyph-name="gdot" unicode="&#x121;" horiz-adv-x="605" 
d="M228 559q55 0 88.5 -21t53.5 -58h4l13 69h155v-550q0 -117 -68 -178t-209 -61q-63 0 -111 7t-92 25v137q47 -21 89.5 -31.5t103.5 -10.5q108 0 108 105v11q0 14 1.5 32.5t4.5 35.5h-6q-18 -38 -51 -59.5t-86 -21.5q-83 0 -134.5 74t-51.5 210q0 137 52.5 211t135.5 74z
M296 426q-74 0 -74 -155q0 -77 18.5 -113.5t57.5 -36.5q44 0 61.5 31.5t17.5 101.5v21q0 77 -16.5 114t-64.5 37zM295 767q38 0 66.5 -16t28.5 -62q0 -45 -28.5 -61.5t-66.5 -16.5q-40 0 -67.5 16.5t-27.5 61.5q0 46 27.5 62t67.5 16z" />
    <glyph glyph-name="uni0122" unicode="&#x122;" horiz-adv-x="695" 
d="M342 409h289v-377q-53 -19 -119 -30.5t-140 -11.5q-97 0 -170 41t-113.5 123t-40.5 204q0 112 40.5 194t119 127t193.5 45q62 0 118.5 -12t97.5 -32l-57 -135q-36 17 -75 27.5t-83 10.5q-61 0 -97.5 -29.5t-53 -81t-16.5 -117.5q0 -103 39 -163.5t113 -60.5q16 0 39 3
t36 6v132h-120v137zM453 -61v-10q-16 -37 -33.5 -73.5t-44.5 -76.5h-106v13q8 31 14 73.5t8 73.5h162z" />
    <glyph glyph-name="uni0123" unicode="&#x123;" horiz-adv-x="638" 
d="M228 559q55 0 88.5 -21t53.5 -58h4l13 69h155v-550q0 -117 -68 -178t-209 -61q-63 0 -111 7t-92 25v137q47 -21 89.5 -31.5t103.5 -10.5q108 0 108 105v11q0 14 1.5 32.5t4.5 35.5h-6q-18 -38 -51 -59.5t-86 -21.5q-83 0 -134.5 74t-51.5 210q0 137 52.5 211t135.5 74z
M296 426q-74 0 -74 -155q0 -77 18.5 -113.5t57.5 -36.5q44 0 61.5 31.5t17.5 101.5v21q0 77 -16.5 114t-64.5 37zM381 766v-13q-6 -31 -12 -73t-8 -74h-164v10q13 36 33 72.5t45 77.5h106z" />
    <glyph glyph-name="Hcircumflex" unicode="&#x124;" horiz-adv-x="721" 
d="M648 0h-182v300h-211v-300h-182v714h182v-273h211v273h182v-714zM452 931q15 -22 36.5 -49.5t43 -53.5t37.5 -44v-13h-116q-25 16 -46.5 35.5t-45.5 44.5q-25 -25 -45 -44.5t-45 -35.5h-118v13q18 19 40 44.5t43 53t35 49.5h181z" />
    <glyph glyph-name="hcircumflex" unicode="&#x125;" horiz-adv-x="630" 
d="M242 760v-133q0 -50 -3 -89.5t-5 -57.5h9q25 43 60.5 61t81.5 18q51 0 93 -21t67 -65.5t25 -114.5v-358h-181v311q0 115 -62 115q-49 0 -67 -45.5t-18 -129.5v-251h-180v760h180zM245 977q15 -22 36.5 -49.5t43 -53.5t37.5 -44v-13h-116q-25 16 -46.5 35.5t-45.5 44.5
q-25 -25 -45 -44.5t-45 -35.5h-118v13q18 19 40 44.5t43 53t35 49.5h181z" />
    <glyph glyph-name="Hbar" unicode="&#x126;" horiz-adv-x="735" 
d="M80 0v522h-80v104h80v88h181v-88h212v88h182v-88h80v-104h-80v-522h-182v300h-212v-300h-181zM261 441h212v81h-212v-81z" />
    <glyph glyph-name="hbar" unicode="&#x127;" horiz-adv-x="639" 
d="M250 760v-76h108v-106h-108v-15q0 -32 -3 -67.5t-4 -54.5h11q25 42 59.5 60.5t82.5 18.5q52 0 93 -21t65.5 -65t24.5 -114v-320h-180v272q0 115 -63 115q-48 0 -67 -45.5t-19 -130.5v-211h-179v578h-71v106h71v76h179z" />
    <glyph glyph-name="Itilde" unicode="&#x128;" horiz-adv-x="413" 
d="M381 0h-349v97l84 37v446l-84 37v97h349v-97l-83 -37v-446l83 -37v-97zM401 929q-6 -83 -37 -120.5t-76 -37.5q-28 0 -56 12t-54 24.5t-49 12.5q-8 0 -17.5 -10.5t-14.5 -39.5h-83q6 84 35.5 121t79.5 37q24 0 50.5 -12.5t53.5 -24.5t51 -12q8 0 18 11t14 39h85z" />
    <glyph glyph-name="itilde" unicode="&#x129;" horiz-adv-x="305" 
d="M242 0h-179v549h179v-549zM347 764q-6 -83 -37 -120.5t-76 -37.5q-28 0 -56 12t-54 24.5t-49 12.5q-8 0 -17.5 -10.5t-14.5 -39.5h-83q6 84 35.5 121t79.5 37q24 0 50.5 -12.5t53.5 -24.5t51 -12q8 0 18 11t14 39h85z" />
    <glyph glyph-name="Imacron" unicode="&#x12a;" horiz-adv-x="413" 
d="M381 0h-349v97l84 37v446l-84 37v97h349v-97l-83 -37v-446l83 -37v-97zM372 880v-109h-333v109h333z" />
    <glyph glyph-name="imacron" unicode="&#x12b;" horiz-adv-x="305" 
d="M242 0h-179v549h179v-549zM319 715v-109h-333v109h333z" />
    <glyph glyph-name="Ibreve" unicode="&#x12c;" horiz-adv-x="413" 
d="M381 0h-349v97l84 37v446l-84 37v97h349v-97l-83 -37v-446l83 -37v-97zM392 943q-5 -76 -53.5 -124t-133.5 -48q-89 0 -134.5 46.5t-49.5 125.5h96q10 -42 29.5 -52t58.5 -10q30 0 53.5 11.5t33.5 50.5h100z" />
    <glyph glyph-name="ibreve" unicode="&#x12d;" horiz-adv-x="305" 
d="M242 0h-179v549h179v-549zM338 778q-5 -76 -53.5 -124t-133.5 -48q-89 0 -134.5 46.5t-49.5 125.5h96q10 -42 29.5 -52t58.5 -10q30 0 53.5 11.5t33.5 50.5h100z" />
    <glyph glyph-name="Iogonek" unicode="&#x12e;" horiz-adv-x="413" 
d="M381 0h-349v97l84 37v446l-84 37v97h349v-97l-83 -37v-446l83 -37v-97zM286 -105q0 -36 35 -36q12 0 28.5 3t25.5 7v-97q-15 -5 -34.5 -8.5t-44.5 -3.5q-53 0 -90 31t-37 81q0 39 22.5 76.5t84.5 72.5l70 -21q-31 -32 -45.5 -56t-14.5 -49z" />
    <glyph glyph-name="iogonek" unicode="&#x12f;" horiz-adv-x="305" 
d="M154 767q38 0 66 -16t28 -62q0 -45 -28 -61.5t-66 -16.5q-40 0 -68 16.5t-28 61.5q0 46 28 62t68 16zM242 549v-549h-179v549h179zM160 -105q0 -36 35 -36q12 0 28.5 3t25.5 7v-97q-15 -5 -34.5 -8.5t-44.5 -3.5q-53 0 -90 31t-37 81q0 39 22.5 76.5t84.5 72.5l70 -21
q-31 -32 -45.5 -56t-14.5 -49z" />
    <glyph glyph-name="Idotaccent" unicode="&#x130;" horiz-adv-x="413" 
d="M381 0h-349v97l84 37v446l-84 37v97h349v-97l-83 -37v-446l83 -37v-97zM207 932q38 0 66.5 -16t28.5 -62q0 -45 -28.5 -61.5t-66.5 -16.5q-40 0 -67.5 16.5t-27.5 61.5q0 46 27.5 62t67.5 16z" />
    <glyph glyph-name="dotlessi" unicode="&#x131;" horiz-adv-x="305" 
d="M242 0h-179v549h179v-549z" />
    <glyph glyph-name="IJ" unicode="&#x132;" horiz-adv-x="743" 
d="M381 0h-349v97l84 37v446l-84 37v97h349v-97l-83 -37v-446l83 -37v-97zM433 -216q-32 0 -55 3t-39 7v137q15 -3 31.5 -6.5t35.5 -3.5q48 0 65.5 28t17.5 100v665h182v-657q0 -99 -30.5 -159t-84 -87t-123.5 -27z" />
    <glyph glyph-name="ij" unicode="&#x133;" horiz-adv-x="610" 
d="M154 767q38 0 66 -16t28 -62q0 -45 -28 -61.5t-66 -16.5q-40 0 -68 16.5t-28 61.5q0 46 28 62t68 16zM242 549v-549h-179v549h179zM363 689q0 46 27.5 62t66.5 16t67.5 -16t28.5 -62q0 -45 -28.5 -61.5t-67.5 -16.5t-66.5 16.5t-27.5 61.5zM353 -240q-21 0 -49.5 3.5
t-46.5 8.5v132q15 -4 27.5 -6.5t28.5 -2.5q22 0 38 16.5t16 66.5v571h179v-602q0 -50 -18.5 -92.5t-60.5 -68.5t-114 -26z" />
    <glyph glyph-name="Jcircumflex" unicode="&#x134;" horiz-adv-x="331" 
d="M20 -216q-32 0 -55 3t-39 7v137q15 -3 31.5 -6.5t35.5 -3.5q48 0 65.5 28t17.5 100v665h182v-657q0 -99 -30.5 -159t-84 -87t-123.5 -27zM257 931q15 -22 36.5 -49.5t43 -53.5t37.5 -44v-13h-116q-25 16 -46.5 35.5t-45.5 44.5q-25 -25 -45 -44.5t-45 -35.5h-118v13
q18 19 40 44.5t43 53t35 49.5h181z" />
    <glyph glyph-name="jcircumflex" unicode="&#x135;" horiz-adv-x="305" 
d="M48 -240q-21 0 -49.5 3.5t-46.5 8.5v132q15 -4 27.5 -6.5t28.5 -2.5q22 0 38 16.5t16 66.5v571h179v-602q0 -50 -18.5 -92.5t-60.5 -68.5t-114 -26zM243 766q15 -22 36.5 -49.5t43 -53.5t37.5 -44v-13h-116q-25 16 -46.5 35.5t-45.5 44.5q-25 -25 -45 -44.5t-45 -35.5
h-118v13q18 19 40 44.5t43 53t35 49.5h181z" />
    <glyph glyph-name="uni0136" unicode="&#x136;" horiz-adv-x="646" 
d="M646 0h-205l-132 288l-54 -40v-248h-182v714h182v-319q11 22 26 44t28 44l143 231h197l-211 -318zM425 -61v-10q-16 -37 -33.5 -73.5t-44.5 -76.5h-106v13q8 31 14 73.5t8 73.5h162z" />
    <glyph glyph-name="uni0137" unicode="&#x137;" horiz-adv-x="619" 
d="M242 760v-321q0 -32 -3 -68t-7 -68h4q7 19 22.5 41t32.5 44l118 161h199l-181 -236l192 -313h-204l-115 210l-58 -49v-161h-180v760h180zM402 -61v-10q-16 -37 -33.5 -73.5t-44.5 -76.5h-106v13q8 31 14 73.5t8 73.5h162z" />
    <glyph glyph-name="kgreenlandic" unicode="&#x138;" horiz-adv-x="619" 
d="M611 549l-186 -246l194 -303h-202l-115 202l-60 -46v-156h-180v549h180v-132q0 -35 -2 -65t-3 -54h4q9 17 23 38.5t31 46.5l115 166h201z" />
    <glyph glyph-name="Lacute" unicode="&#x139;" horiz-adv-x="547" 
d="M73 0v714h181v-575h258v-139h-439zM353 931v-10q-17 -14 -42.5 -34t-54 -42t-55.5 -41.5t-46 -32.5h-119v13q16 19 38.5 44.5t45 53t37.5 49.5h196z" />
    <glyph glyph-name="lacute" unicode="&#x13a;" horiz-adv-x="304" 
d="M242 0h-180v760h180v-760zM345 977v-10q-17 -14 -42.5 -34t-54 -42t-55.5 -41.5t-46 -32.5h-119v13q16 19 38.5 44.5t45 53t37.5 49.5h196z" />
    <glyph glyph-name="uni013B" unicode="&#x13b;" horiz-adv-x="547" 
d="M73 0v714h181v-575h258v-139h-439zM377 -61v-10q-16 -37 -33.5 -73.5t-44.5 -76.5h-106v13q8 31 14 73.5t8 73.5h162z" />
    <glyph glyph-name="uni013C" unicode="&#x13c;" horiz-adv-x="304" 
d="M242 0h-180v760h180v-760zM238 -61v-10q-16 -37 -33.5 -73.5t-44.5 -76.5h-106v13q8 31 14 73.5t8 73.5h162z" />
    <glyph glyph-name="Lcaron" unicode="&#x13d;" horiz-adv-x="573" 
d="M73 0v714h181v-575h258v-139h-439zM548 714v-10q-19 -35 -37 -71.5t-44 -78.5h-107v13q7 29 15 72t11 75h162z" />
    <glyph glyph-name="lcaron" unicode="&#x13e;" horiz-adv-x="313" 
d="M242 0h-180v760h180v-760zM472 760v-10q-19 -35 -37 -71.5t-44 -78.5h-107v13q7 29 15 72t11 75h162z" />
    <glyph glyph-name="Ldot" unicode="&#x13f;" horiz-adv-x="547" 
d="M73 0v714h181v-575h258v-139h-439zM437 472q38 0 66.5 -16t28.5 -62q0 -45 -28.5 -61.5t-66.5 -16.5q-40 0 -67.5 16.5t-27.5 61.5q0 46 27.5 62t67.5 16z" />
    <glyph glyph-name="ldot" unicode="&#x140;" horiz-adv-x="395" 
d="M242 0h-180v760h180v-760zM349 457q38 0 66.5 -16t28.5 -62q0 -45 -28.5 -61.5t-66.5 -16.5q-40 0 -67.5 16.5t-27.5 61.5q0 46 27.5 62t67.5 16z" />
    <glyph glyph-name="Lslash" unicode="&#x141;" horiz-adv-x="571" 
d="M97 0v238l-47 -24l-64 108l111 61v331h181v-226l97 53l67 -107l-164 -92v-203h259v-139h-440z" />
    <glyph glyph-name="lslash" unicode="&#x142;" horiz-adv-x="391" 
d="M107 0v216l-57 -26l-64 107l121 64v399h179v-297l52 27l67 -107l-119 -65v-318h-179z" />
    <glyph glyph-name="Nacute" unicode="&#x143;" horiz-adv-x="785" 
d="M712 0h-237l-246 523h-4q0 -19 2 -51t4.5 -69.5t2.5 -72.5v-330h-161v714h236l245 -517h3q0 18 -1.5 49t-3.5 67.5t-2 69.5v331h162v-714zM586 931v-10q-17 -14 -42.5 -34t-54 -42t-55.5 -41.5t-46 -32.5h-119v13q16 19 38.5 44.5t45 53t37.5 49.5h196z" />
    <glyph glyph-name="nacute" unicode="&#x144;" horiz-adv-x="630" 
d="M387 559q81 0 132 -47.5t51 -153.5v-358h-179v311q0 57 -15 86t-49 29q-51 0 -68 -45.5t-17 -130.5v-250h-180v549h135l25 -71h7q49 81 158 81zM508 766v-10q-17 -14 -42.5 -34t-54 -42t-55.5 -41.5t-46 -32.5h-119v13q16 19 38.5 44.5t45 53t37.5 49.5h196z" />
    <glyph glyph-name="uni0145" unicode="&#x145;" horiz-adv-x="785" 
d="M712 0h-237l-246 523h-4q0 -19 2 -51t4.5 -69.5t2.5 -72.5v-330h-161v714h236l245 -517h3q0 18 -1.5 49t-3.5 67.5t-2 69.5v331h162v-714zM479 -61v-10q-16 -37 -33.5 -73.5t-44.5 -76.5h-106v13q8 31 14 73.5t8 73.5h162z" />
    <glyph glyph-name="uni0146" unicode="&#x146;" horiz-adv-x="630" 
d="M387 559q81 0 132 -47.5t51 -153.5v-358h-179v311q0 57 -15 86t-49 29q-51 0 -68 -45.5t-17 -130.5v-250h-180v549h135l25 -71h7q49 81 158 81zM401 -61v-10q-16 -37 -33.5 -73.5t-44.5 -76.5h-106v13q8 31 14 73.5t8 73.5h162z" />
    <glyph glyph-name="Ncaron" unicode="&#x147;" horiz-adv-x="785" 
d="M712 0h-237l-246 523h-4q0 -19 2 -51t4.5 -69.5t2.5 -72.5v-330h-161v714h236l245 -517h3q0 18 -1.5 49t-3.5 67.5t-2 69.5v331h162v-714zM601 931v-13q-16 -18 -37.5 -44t-43 -53.5t-36.5 -49.5h-181q-14 22 -35 49.5t-43 53t-40 44.5v13h118q25 -16 45 -35.5t45 -44.5
q24 25 45.5 44.5t46.5 35.5h116z" />
    <glyph glyph-name="ncaron" unicode="&#x148;" horiz-adv-x="630" 
d="M387 559q81 0 132 -47.5t51 -153.5v-358h-179v311q0 57 -15 86t-49 29q-51 0 -68 -45.5t-17 -130.5v-250h-180v549h135l25 -71h7q49 81 158 81zM523 766v-13q-16 -18 -37.5 -44t-43 -53.5t-36.5 -49.5h-181q-14 22 -35 49.5t-43 53t-40 44.5v13h118q25 -16 45 -35.5
t45 -44.5q24 25 45.5 44.5t46.5 35.5h116z" />
    <glyph glyph-name="napostrophe" unicode="&#x149;" horiz-adv-x="798" 
d="M555 559q81 0 132 -47.5t51 -153.5v-358h-179v311q0 57 -15 86t-49 29q-51 0 -68 -45.5t-17 -130.5v-250h-180v549h135l25 -71h7q49 81 158 81zM204 714l7 -11q-9 -36 -22 -81t-28 -90t-31 -82h-127q13 64 26 136t19 128h156z" />
    <glyph glyph-name="Eng" unicode="&#x14a;" horiz-adv-x="785" 
d="M473 -223q-35 0 -60.5 3t-42.5 7v133q17 -4 36.5 -7t42.5 -3q55 0 81 22t30 69l-331 522h-4q1 -7 2.5 -29t3 -52.5t2.5 -63t1 -59.5v-319h-161v714h218l263 -419h4q-1 6 -2.5 28.5t-2.5 53t-2 62.5t-1 57v218h162v-716q0 -74 -30.5 -123.5t-84.5 -73.5t-124 -24z" />
    <glyph glyph-name="eng" unicode="&#x14b;" horiz-adv-x="630" 
d="M381 -240q-22 0 -50 3.5t-47 8.5v132q16 -4 27.5 -6.5t26.5 -2.5q21 0 36 16.5t15 66.5v347q0 101 -62 101q-51 0 -68 -45.5t-17 -130.5v-250h-180v549h135l23 -69h12q25 42 67.5 60.5t89.5 18.5q50 0 91 -21t65.5 -65.5t24.5 -114.5v-411q0 -50 -18.5 -92.5t-60 -68.5
t-110.5 -26z" />
    <glyph glyph-name="Omacron" unicode="&#x14c;" horiz-adv-x="749" 
d="M700 358q0 -111 -33.5 -193.5t-105 -128.5t-187.5 -46q-112 0 -184.5 46t-107 129t-34.5 194t34.5 193t107 127.5t185.5 45.5q115 0 186.5 -45.5t105 -128t33.5 -193.5zM238 358q0 -105 31.5 -165t104.5 -60q74 0 105 60t31 165t-31 165.5t-104 60.5q-74 0 -105.5 -60.5
t-31.5 -165.5zM540 891v-109h-333v109h333z" />
    <glyph glyph-name="omacron" unicode="&#x14d;" horiz-adv-x="598" 
d="M558 276q0 -138 -69 -212t-191 -74q-75 0 -133.5 33t-91.5 97t-33 156q0 136 69.5 209.5t191.5 73.5q75 0 133 -33t91 -96t33 -154zM222 276q0 -76 17.5 -116t60.5 -40q42 0 59 40t17 116t-17 114.5t-60 38.5q-41 0 -59 -38.5t-18 -114.5zM466 715v-109h-333v109h333z
" />
    <glyph glyph-name="Obreve" unicode="&#x14e;" horiz-adv-x="749" 
d="M700 358q0 -111 -33.5 -193.5t-105 -128.5t-187.5 -46q-112 0 -184.5 46t-107 129t-34.5 194t34.5 193t107 127.5t185.5 45.5q115 0 186.5 -45.5t105 -128t33.5 -193.5zM238 358q0 -105 31.5 -165t104.5 -60q74 0 105 60t31 165t-31 165.5t-104 60.5q-74 0 -105.5 -60.5
t-31.5 -165.5zM559 954q-5 -76 -53.5 -124t-133.5 -48q-89 0 -134.5 46.5t-49.5 125.5h96q10 -42 29.5 -52t58.5 -10q30 0 53.5 11.5t33.5 50.5h100z" />
    <glyph glyph-name="obreve" unicode="&#x14f;" horiz-adv-x="598" 
d="M558 276q0 -138 -69 -212t-191 -74q-75 0 -133.5 33t-91.5 97t-33 156q0 136 69.5 209.5t191.5 73.5q75 0 133 -33t91 -96t33 -154zM222 276q0 -76 17.5 -116t60.5 -40q42 0 59 40t17 116t-17 114.5t-60 38.5q-41 0 -59 -38.5t-18 -114.5zM485 778q-5 -76 -53.5 -124
t-133.5 -48q-89 0 -134.5 46.5t-49.5 125.5h96q10 -42 29.5 -52t58.5 -10q30 0 53.5 11.5t33.5 50.5h100z" />
    <glyph glyph-name="Ohungarumlaut" unicode="&#x150;" horiz-adv-x="749" 
d="M700 358q0 -111 -33.5 -193.5t-105 -128.5t-187.5 -46q-112 0 -184.5 46t-107 129t-34.5 194t34.5 193t107 127.5t185.5 45.5q115 0 186.5 -45.5t105 -128t33.5 -193.5zM238 358q0 -105 31.5 -165t104.5 -60q74 0 105 60t31 165t-31 165.5t-104 60.5q-74 0 -105.5 -60.5
t-31.5 -165.5zM613 942v-10q-8 -13 -28.5 -33t-47.5 -42t-53 -41.5t-44 -33.5h-93v13q14 19 31.5 45t35 53t28.5 49h171zM399 942v-10q-8 -13 -28.5 -33t-46.5 -42t-52 -41.5t-44 -33.5h-93v13q13 19 30.5 45t35 53t29.5 49h169z" />
    <glyph glyph-name="ohungarumlaut" unicode="&#x151;" horiz-adv-x="598" 
d="M558 276q0 -138 -69 -212t-191 -74q-75 0 -133.5 33t-91.5 97t-33 156q0 136 69.5 209.5t191.5 73.5q75 0 133 -33t91 -96t33 -154zM222 276q0 -76 17.5 -116t60.5 -40q42 0 59 40t17 116t-17 114.5t-60 38.5q-41 0 -59 -38.5t-18 -114.5zM539 766v-10q-8 -13 -28.5 -33
t-47.5 -42t-53 -41.5t-44 -33.5h-93v13q14 19 31.5 45t35 53t28.5 49h171zM325 766v-10q-8 -13 -28.5 -33t-46.5 -42t-52 -41.5t-44 -33.5h-93v13q13 19 30.5 45t35 53t29.5 49h169z" />
    <glyph glyph-name="OE" unicode="&#x152;" horiz-adv-x="900" 
d="M356 725q25 0 59.5 -3t55.5 -8h384v-138h-218v-137h201v-138h-201v-161h218v-140h-388q-19 -4 -53.5 -7t-58.5 -3q-102 0 -170 46t-102.5 129t-34.5 194t34 193t102 127.5t172 45.5zM356 584q-61 0 -89.5 -60.5t-28.5 -165.5t28.5 -165t89.5 -60q28 0 55.5 5t44.5 15v409
q-16 10 -43.5 16t-56.5 6z" />
    <glyph glyph-name="oe" unicode="&#x153;" horiz-adv-x="921" 
d="M656 559q66 0 117 -28.5t79.5 -84.5t28.5 -138v-77h-320q3 -53 33 -85.5t87 -32.5q37 0 80.5 9.5t87.5 32.5v-125q-38 -21 -81 -30.5t-110 -9.5q-51 0 -96 17.5t-79 54.5q-69 -72 -185 -72q-75 0 -133.5 33t-91.5 97t-33 156q0 136 69.5 209.5t191.5 73.5q103 0 172 -69
q34 34 78 51.5t105 17.5zM645 442q-32 0 -54 -24t-26 -78h156q-1 43 -20 72.5t-56 29.5zM299 429q-41 0 -59 -38.5t-18 -114.5t17.5 -116t60.5 -40q42 0 59 40t17 116t-17 114.5t-60 38.5z" />
    <glyph glyph-name="Racute" unicode="&#x154;" horiz-adv-x="636" 
d="M293 714q273 0 273 -213q0 -70 -30.5 -116t-83.5 -74l195 -311h-204l-142 268h-47v-268h-181v714h220zM290 580h-36v-179h34q41 0 68 22.5t27 71.5q0 43 -21.5 64t-71.5 21zM512 931v-10q-17 -14 -42.5 -34t-54 -42t-55.5 -41.5t-46 -32.5h-119v13q16 19 38.5 44.5t45 53
t37.5 49.5h196z" />
    <glyph glyph-name="racute" unicode="&#x155;" horiz-adv-x="441" 
d="M376 559q15 0 31 -1.5t24 -3.5l-16 -158q-10 2 -23.5 3.5t-37.5 1.5q-23 0 -49 -10.5t-44.5 -37.5t-18.5 -78v-275h-180v549h134l28 -90h8q22 41 60.5 70.5t83.5 29.5zM444 766v-10q-17 -14 -42.5 -34t-54 -42t-55.5 -41.5t-46 -32.5h-119v13q16 19 38.5 44.5t45 53
t37.5 49.5h196z" />
    <glyph glyph-name="uni0156" unicode="&#x156;" horiz-adv-x="636" 
d="M293 714q273 0 273 -213q0 -70 -30.5 -116t-83.5 -74l195 -311h-204l-142 268h-47v-268h-181v714h220zM290 580h-36v-179h34q41 0 68 22.5t27 71.5q0 43 -21.5 64t-71.5 21zM419 -61v-10q-16 -37 -33.5 -73.5t-44.5 -76.5h-106v13q8 31 14 73.5t8 73.5h162z" />
    <glyph glyph-name="uni0157" unicode="&#x157;" horiz-adv-x="441" 
d="M376 559q15 0 31 -1.5t24 -3.5l-16 -158q-10 2 -23.5 3.5t-37.5 1.5q-23 0 -49 -10.5t-44.5 -37.5t-18.5 -78v-275h-180v549h134l28 -90h8q22 41 60.5 70.5t83.5 29.5zM241 -61v-10q-16 -37 -33.5 -73.5t-44.5 -76.5h-106v13q8 31 14 73.5t8 73.5h162z" />
    <glyph glyph-name="Rcaron" unicode="&#x158;" horiz-adv-x="636" 
d="M293 714q273 0 273 -213q0 -70 -30.5 -116t-83.5 -74l195 -311h-204l-142 268h-47v-268h-181v714h220zM290 580h-36v-179h34q41 0 68 22.5t27 71.5q0 43 -21.5 64t-71.5 21zM527 931v-13q-16 -18 -37.5 -44t-43 -53.5t-36.5 -49.5h-181q-14 22 -35 49.5t-43 53t-40 44.5
v13h118q25 -16 45 -35.5t45 -44.5q24 25 45.5 44.5t46.5 35.5h116z" />
    <glyph glyph-name="rcaron" unicode="&#x159;" horiz-adv-x="441" 
d="M376 559q15 0 31 -1.5t24 -3.5l-16 -158q-10 2 -23.5 3.5t-37.5 1.5q-23 0 -49 -10.5t-44.5 -37.5t-18.5 -78v-275h-180v549h134l28 -90h8q22 41 60.5 70.5t83.5 29.5zM459 766v-13q-16 -18 -37.5 -44t-43 -53.5t-36.5 -49.5h-181q-14 22 -35 49.5t-43 53t-40 44.5v13
h118q25 -16 45 -35.5t45 -44.5q24 25 45.5 44.5t46.5 35.5h116z" />
    <glyph glyph-name="Sacute" unicode="&#x15a;" horiz-adv-x="541" 
d="M510 207q0 -61 -27.5 -110.5t-85.5 -78t-150 -28.5q-68 0 -113 11t-93 33v155q54 -25 109.5 -42t101.5 -17q40 0 58.5 18t18.5 47q0 35 -27.5 56t-93.5 49q-50 20 -86 46.5t-56 67t-20 104.5q0 66 32 112t88.5 70t131.5 24q66 0 119 -14t94 -36l-56 -133q-43 21 -85 32.5
t-77 11.5t-51.5 -17t-16.5 -43q0 -21 12.5 -36.5t41.5 -32t78 -40.5t83 -51t52 -65t18 -93zM474 931v-10q-17 -14 -42.5 -34t-54 -42t-55.5 -41.5t-46 -32.5h-119v13q16 19 38.5 44.5t45 53t37.5 49.5h196z" />
    <glyph glyph-name="sacute" unicode="&#x15b;" horiz-adv-x="486" 
d="M448 166q0 -82 -50.5 -129t-168.5 -47q-56 0 -99.5 7t-88.5 25v136q49 -22 99.5 -33.5t80.5 -11.5q31 0 44.5 10t13.5 28q0 13 -9.5 23t-33.5 23t-68 33q-43 20 -71.5 42.5t-42.5 53t-14 76.5q0 78 58.5 117.5t155.5 39.5q51 0 96 -11t94 -34l-48 -114q-39 18 -78.5 29
t-62.5 11q-45 0 -45 -30q0 -12 8 -21t31 -20.5t66 -30.5q45 -19 74.5 -40t44 -52.5t14.5 -79.5zM429 766v-10q-17 -14 -42.5 -34t-54 -42t-55.5 -41.5t-46 -32.5h-119v13q16 19 38.5 44.5t45 53t37.5 49.5h196z" />
    <glyph glyph-name="Scircumflex" unicode="&#x15c;" horiz-adv-x="541" 
d="M510 207q0 -61 -27.5 -110.5t-85.5 -78t-150 -28.5q-68 0 -113 11t-93 33v155q54 -25 109.5 -42t101.5 -17q40 0 58.5 18t18.5 47q0 35 -27.5 56t-93.5 49q-50 20 -86 46.5t-56 67t-20 104.5q0 66 32 112t88.5 70t131.5 24q66 0 119 -14t94 -36l-56 -133q-43 21 -85 32.5
t-77 11.5t-51.5 -17t-16.5 -43q0 -21 12.5 -36.5t41.5 -32t78 -40.5t83 -51t52 -65t18 -93zM372 931q15 -22 36.5 -49.5t43 -53.5t37.5 -44v-13h-116q-25 16 -46.5 35.5t-45.5 44.5q-25 -25 -45 -44.5t-45 -35.5h-118v13q18 19 40 44.5t43 53t35 49.5h181z" />
    <glyph glyph-name="scircumflex" unicode="&#x15d;" horiz-adv-x="486" 
d="M448 166q0 -82 -50.5 -129t-168.5 -47q-56 0 -99.5 7t-88.5 25v136q49 -22 99.5 -33.5t80.5 -11.5q31 0 44.5 10t13.5 28q0 13 -9.5 23t-33.5 23t-68 33q-43 20 -71.5 42.5t-42.5 53t-14 76.5q0 78 58.5 117.5t155.5 39.5q51 0 96 -11t94 -34l-48 -114q-39 18 -78.5 29
t-62.5 11q-45 0 -45 -30q0 -12 8 -21t31 -20.5t66 -30.5q45 -19 74.5 -40t44 -52.5t14.5 -79.5zM327 766q15 -22 36.5 -49.5t43 -53.5t37.5 -44v-13h-116q-25 16 -46.5 35.5t-45.5 44.5q-25 -25 -45 -44.5t-45 -35.5h-118v13q18 19 40 44.5t43 53t35 49.5h181z" />
    <glyph glyph-name="Scedilla" unicode="&#x15e;" horiz-adv-x="541" 
d="M510 207q0 -61 -27.5 -110.5t-85.5 -78t-150 -28.5q-68 0 -113 11t-93 33v155q54 -25 109.5 -42t101.5 -17q40 0 58.5 18t18.5 47q0 35 -27.5 56t-93.5 49q-50 20 -86 46.5t-56 67t-20 104.5q0 66 32 112t88.5 70t131.5 24q66 0 119 -14t94 -36l-56 -133q-43 21 -85 32.5
t-77 11.5t-51.5 -17t-16.5 -43q0 -21 12.5 -36.5t41.5 -32t78 -40.5t83 -51t52 -65t18 -93zM396 -122q0 -56 -34.5 -87t-91.5 -31q-32 0 -58.5 4t-42.5 9v88q15 -5 30 -8t30 -3q39 0 39 29q0 18 -16 30t-52 19l29 72h89l-8 -30q19 -6 38.5 -17t33.5 -29t14 -46z" />
    <glyph glyph-name="scedilla" unicode="&#x15f;" horiz-adv-x="486" 
d="M448 166q0 -82 -50.5 -129t-168.5 -47q-56 0 -99.5 7t-88.5 25v136q49 -22 99.5 -33.5t80.5 -11.5q31 0 44.5 10t13.5 28q0 13 -9.5 23t-33.5 23t-68 33q-43 20 -71.5 42.5t-42.5 53t-14 76.5q0 78 58.5 117.5t155.5 39.5q51 0 96 -11t94 -34l-48 -114q-39 18 -78.5 29
t-62.5 11q-45 0 -45 -30q0 -12 8 -21t31 -20.5t66 -30.5q45 -19 74.5 -40t44 -52.5t14.5 -79.5zM366 -122q0 -56 -34.5 -87t-91.5 -31q-32 0 -58.5 4t-42.5 9v88q15 -5 30 -8t30 -3q39 0 39 29q0 18 -16 30t-52 19l29 72h89l-8 -30q19 -6 38.5 -17t33.5 -29t14 -46z" />
    <glyph glyph-name="Scaron" unicode="&#x160;" horiz-adv-x="541" 
d="M510 207q0 -61 -27.5 -110.5t-85.5 -78t-150 -28.5q-68 0 -113 11t-93 33v155q54 -25 109.5 -42t101.5 -17q40 0 58.5 18t18.5 47q0 35 -27.5 56t-93.5 49q-50 20 -86 46.5t-56 67t-20 104.5q0 66 32 112t88.5 70t131.5 24q66 0 119 -14t94 -36l-56 -133q-43 21 -85 32.5
t-77 11.5t-51.5 -17t-16.5 -43q0 -21 12.5 -36.5t41.5 -32t78 -40.5t83 -51t52 -65t18 -93zM489 931v-13q-16 -18 -37.5 -44t-43 -53.5t-36.5 -49.5h-181q-14 22 -35 49.5t-43 53t-40 44.5v13h118q25 -16 45 -35.5t45 -44.5q24 25 45.5 44.5t46.5 35.5h116z" />
    <glyph glyph-name="scaron" unicode="&#x161;" horiz-adv-x="486" 
d="M448 166q0 -82 -50.5 -129t-168.5 -47q-56 0 -99.5 7t-88.5 25v136q49 -22 99.5 -33.5t80.5 -11.5q31 0 44.5 10t13.5 28q0 13 -9.5 23t-33.5 23t-68 33q-43 20 -71.5 42.5t-42.5 53t-14 76.5q0 78 58.5 117.5t155.5 39.5q51 0 96 -11t94 -34l-48 -114q-39 18 -78.5 29
t-62.5 11q-45 0 -45 -30q0 -12 8 -21t31 -20.5t66 -30.5q45 -19 74.5 -40t44 -52.5t14.5 -79.5zM444 766v-13q-16 -18 -37.5 -44t-43 -53.5t-36.5 -49.5h-181q-14 22 -35 49.5t-43 53t-40 44.5v13h118q25 -16 45 -35.5t45 -44.5q24 25 45.5 44.5t46.5 35.5h116z" />
    <glyph glyph-name="uni0162" unicode="&#x162;" horiz-adv-x="556" 
d="M368 0h-181v573h-164v141h509v-141h-164v-573zM413 -122q0 -56 -34.5 -87t-91.5 -31q-32 0 -58.5 4t-42.5 9v88q15 -5 30 -8t30 -3q39 0 39 29q0 18 -16 30t-52 19l29 72h89l-8 -30q19 -6 38.5 -17t33.5 -29t14 -46z" />
    <glyph glyph-name="uni0163" unicode="&#x163;" horiz-adv-x="432" 
d="M316 124q25 0 44.5 5t41.5 13v-124q-28 -12 -61 -20t-84 -8t-89 16.5t-59 57t-21 112.5v247h-64v70l80 54l47 116h116v-114h129v-126h-129v-241q0 -58 49 -58zM392 -122q0 -56 -34.5 -87t-91.5 -31q-32 0 -58.5 4t-42.5 9v88q15 -5 30 -8t30 -3q39 0 39 29q0 18 -16 30
t-52 19l29 72h89l-8 -30q19 -6 38.5 -17t33.5 -29t14 -46z" />
    <glyph glyph-name="Tcaron" unicode="&#x164;" horiz-adv-x="556" 
d="M368 0h-181v573h-164v141h509v-141h-164v-573zM486 931v-13q-16 -18 -37.5 -44t-43 -53.5t-36.5 -49.5h-181q-14 22 -35 49.5t-43 53t-40 44.5v13h118q25 -16 45 -35.5t45 -44.5q24 25 45.5 44.5t46.5 35.5h116z" />
    <glyph glyph-name="tcaron" unicode="&#x165;" horiz-adv-x="432" 
d="M316 124q25 0 44.5 5t41.5 13v-124q-28 -12 -61 -20t-84 -8t-89 16.5t-59 57t-21 112.5v247h-64v70l80 54l47 116h116v-114h129v-126h-129v-241q0 -58 49 -58zM580 760v-10q-19 -35 -37 -71.5t-44 -78.5h-107v13q7 29 15 72t11 75h162z" />
    <glyph glyph-name="Tbar" unicode="&#x166;" horiz-adv-x="556" 
d="M187 0v280h-95v140h95v153h-164v141h509v-141h-164v-153h97v-140h-97v-280h-181z" />
    <glyph glyph-name="tbar" unicode="&#x167;" horiz-adv-x="455" 
d="M34 231v107h54v85h-64v70l80 54l47 116h116v-114h129v-126h-129v-85h124v-107h-124v-49q0 -58 49 -58q25 0 44.5 5t41.5 13v-124q-28 -12 -61 -20t-84 -8t-89 16.5t-59 57t-21 112.5v55h-54z" />
    <glyph glyph-name="Utilde" unicode="&#x168;" horiz-adv-x="711" 
d="M643 714v-447q0 -81 -32 -143.5t-96.5 -98t-161.5 -35.5q-139 0 -212 74t-73 202v448h182v-429q0 -83 27 -117.5t79 -34.5q56 0 81 36.5t25 116.5v428h181zM550 929q-6 -83 -37 -120.5t-76 -37.5q-28 0 -56 12t-54 24.5t-49 12.5q-8 0 -17.5 -10.5t-14.5 -39.5h-83
q6 84 35.5 121t79.5 37q24 0 50.5 -12.5t53.5 -24.5t51 -12q8 0 18 11t14 39h85z" />
    <glyph glyph-name="utilde" unicode="&#x169;" horiz-adv-x="630" 
d="M568 549v-549h-135l-23 70h-11q-25 -42 -66.5 -61t-89.5 -19q-51 0 -92 21t-65.5 65t-24.5 115v358h180v-311q0 -56 14 -85t48 -29q51 0 68 45t17 130v250h180zM509 764q-6 -83 -37 -120.5t-76 -37.5q-28 0 -56 12t-54 24.5t-49 12.5q-8 0 -17.5 -10.5t-14.5 -39.5h-83
q6 84 35.5 121t79.5 37q24 0 50.5 -12.5t53.5 -24.5t51 -12q8 0 18 11t14 39h85z" />
    <glyph glyph-name="Umacron" unicode="&#x16a;" horiz-adv-x="711" 
d="M643 714v-447q0 -81 -32 -143.5t-96.5 -98t-161.5 -35.5q-139 0 -212 74t-73 202v448h182v-429q0 -83 27 -117.5t79 -34.5q56 0 81 36.5t25 116.5v428h181zM522 880v-109h-333v109h333z" />
    <glyph glyph-name="umacron" unicode="&#x16b;" horiz-adv-x="630" 
d="M568 549v-549h-135l-23 70h-11q-25 -42 -66.5 -61t-89.5 -19q-51 0 -92 21t-65.5 65t-24.5 115v358h180v-311q0 -56 14 -85t48 -29q51 0 68 45t17 130v250h180zM481 715v-109h-333v109h333z" />
    <glyph glyph-name="Ubreve" unicode="&#x16c;" horiz-adv-x="711" 
d="M643 714v-447q0 -81 -32 -143.5t-96.5 -98t-161.5 -35.5q-139 0 -212 74t-73 202v448h182v-429q0 -83 27 -117.5t79 -34.5q56 0 81 36.5t25 116.5v428h181zM541 943q-5 -76 -53.5 -124t-133.5 -48q-89 0 -134.5 46.5t-49.5 125.5h96q10 -42 29.5 -52t58.5 -10
q30 0 53.5 11.5t33.5 50.5h100z" />
    <glyph glyph-name="ubreve" unicode="&#x16d;" horiz-adv-x="630" 
d="M568 549v-549h-135l-23 70h-11q-25 -42 -66.5 -61t-89.5 -19q-51 0 -92 21t-65.5 65t-24.5 115v358h180v-311q0 -56 14 -85t48 -29q51 0 68 45t17 130v250h180zM500 778q-5 -76 -53.5 -124t-133.5 -48q-89 0 -134.5 46.5t-49.5 125.5h96q10 -42 29.5 -52t58.5 -10
q30 0 53.5 11.5t33.5 50.5h100z" />
    <glyph glyph-name="Uring" unicode="&#x16e;" horiz-adv-x="711" 
d="M643 714v-447q0 -81 -32 -143.5t-96.5 -98t-161.5 -35.5q-139 0 -212 74t-73 202v448h182v-429q0 -83 27 -117.5t79 -34.5q56 0 81 36.5t25 116.5v428h181zM355 770q-55 0 -88 31.5t-33 87.5t33 87.5t88 31.5q52 0 88.5 -31.5t36.5 -86.5q0 -56 -36 -88t-89 -32zM355 845
q17 0 28 12t11 32t-11 32t-28 12q-16 0 -27.5 -12t-11.5 -32t10 -32t29 -12z" />
    <glyph glyph-name="uring" unicode="&#x16f;" horiz-adv-x="630" 
d="M568 549v-549h-135l-23 70h-11q-25 -42 -66.5 -61t-89.5 -19q-51 0 -92 21t-65.5 65t-24.5 115v358h180v-311q0 -56 14 -85t48 -29q51 0 68 45t17 130v250h180zM313 605q-55 0 -88 31.5t-33 87.5t33 87.5t88 31.5q52 0 88.5 -31.5t36.5 -86.5q0 -56 -36 -88t-89 -32z
M313 680q17 0 28 12t11 32t-11 32t-28 12q-16 0 -27.5 -12t-11.5 -32t10 -32t29 -12z" />
    <glyph glyph-name="Uhungarumlaut" unicode="&#x170;" horiz-adv-x="711" 
d="M643 714v-447q0 -81 -32 -143.5t-96.5 -98t-161.5 -35.5q-139 0 -212 74t-73 202v448h182v-429q0 -83 27 -117.5t79 -34.5q56 0 81 36.5t25 116.5v428h181zM595 931v-10q-8 -13 -28.5 -33t-47.5 -42t-53 -41.5t-44 -33.5h-93v13q14 19 31.5 45t35 53t28.5 49h171z
M381 931v-10q-8 -13 -28.5 -33t-46.5 -42t-52 -41.5t-44 -33.5h-93v13q13 19 30.5 45t35 53t29.5 49h169z" />
    <glyph glyph-name="uhungarumlaut" unicode="&#x171;" horiz-adv-x="630" 
d="M568 549v-549h-135l-23 70h-11q-25 -42 -66.5 -61t-89.5 -19q-51 0 -92 21t-65.5 65t-24.5 115v358h180v-311q0 -56 14 -85t48 -29q51 0 68 45t17 130v250h180zM554 766v-10q-8 -13 -28.5 -33t-47.5 -42t-53 -41.5t-44 -33.5h-93v13q14 19 31.5 45t35 53t28.5 49h171z
M340 766v-10q-8 -13 -28.5 -33t-46.5 -42t-52 -41.5t-44 -33.5h-93v13q13 19 30.5 45t35 53t29.5 49h169z" />
    <glyph glyph-name="Uogonek" unicode="&#x172;" horiz-adv-x="756" 
d="M471 -94q0 -26 11 -36.5t28 -10.5q14 0 30 3t26 7v-97q-16 -5 -35 -8.5t-45 -3.5q-56 0 -92 32t-36 88q0 59 46 113q-24 -3 -51 -3q-139 0 -212 74t-73 202v448h182v-429q0 -83 27 -117.5t79 -34.5q56 0 81 36.5t25 116.5v428h181v-447q0 -67 -21.5 -121.5t-64.5 -90.5
q-43 -46 -64.5 -80.5t-21.5 -68.5z" />
    <glyph glyph-name="uogonek" unicode="&#x173;" horiz-adv-x="630" 
d="M568 549v-549h-135l-23 70h-11q-25 -42 -66.5 -61t-89.5 -19q-51 0 -92 21t-65.5 65t-24.5 115v358h180v-311q0 -56 14 -85t48 -29q51 0 68 45t17 130v250h180zM476 -105q0 -36 35 -36q12 0 28.5 3t25.5 7v-97q-15 -5 -34.5 -8.5t-44.5 -3.5q-53 0 -90 31t-37 81
q0 39 22.5 76.5t84.5 72.5l70 -21q-31 -32 -45.5 -56t-14.5 -49z" />
    <glyph glyph-name="Wcircumflex" unicode="&#x174;" horiz-adv-x="976" 
d="M962 714l-166 -714h-213l-67 341q-2 10 -5.5 31.5t-8 48.5t-7.5 52.5l-5 42.5q-2 -17 -6 -42.5t-8.5 -52t-8.5 -49t-6 -32.5l-67 -340h-213l-167 714h175l77 -380q4 -20 10 -53.5t11 -68.5t8 -61q6 41 14.5 91t16.5 85l80 387h169l76 -384q7 -34 16 -85.5t15 -93.5
q4 27 10 62.5t13 69.5t11 55l74 376h172zM580 931q15 -22 36.5 -49.5t43 -53.5t37.5 -44v-13h-116q-25 16 -46.5 35.5t-45.5 44.5q-25 -25 -45 -44.5t-45 -35.5h-118v13q18 19 40 44.5t43 53t35 49.5h181z" />
    <glyph glyph-name="wcircumflex" unicode="&#x175;" horiz-adv-x="854" 
d="M505 0l-54 272q-7 36 -13 72t-9 64h-3q-2 -27 -9 -63.5t-14 -75.5l-60 -269h-202l-130 549h175l43 -248q6 -36 12 -81t8 -79h3q2 23 7.5 54.5t11 59t7.5 38.5l55 256h192l53 -256q4 -17 8.5 -44t9 -56.5t5.5 -51.5h3q3 33 8.5 75t12.5 81l47 252h171l-134 -549h-204z
M518 766q15 -22 36.5 -49.5t43 -53.5t37.5 -44v-13h-116q-25 16 -46.5 35.5t-45.5 44.5q-25 -25 -45 -44.5t-45 -35.5h-118v13q18 19 40 44.5t43 53t35 49.5h181z" />
    <glyph glyph-name="Ycircumflex" unicode="&#x176;" horiz-adv-x="623" 
d="M312 433l116 281h195l-221 -436v-278h-181v273l-221 441h197zM403 931q15 -22 36.5 -49.5t43 -53.5t37.5 -44v-13h-116q-25 16 -46.5 35.5t-45.5 44.5q-25 -25 -45 -44.5t-45 -35.5h-118v13q18 19 40 44.5t43 53t35 49.5h181z" />
    <glyph glyph-name="ycircumflex" unicode="&#x177;" horiz-adv-x="573" 
d="M0 549h188l86 -311q5 -16 7.5 -36.5t3.5 -42.5h4q2 23 4.5 42.5t7.5 36.5l89 311h184l-209 -602q-32 -93 -87.5 -140t-157.5 -47q-24 0 -42 2.5t-31 5.5v133q10 -2 24.5 -4t30.5 -2q45 0 66 26.5t31 64.5l5 20zM378 766q15 -22 36.5 -49.5t43 -53.5t37.5 -44v-13h-116
q-25 16 -46.5 35.5t-45.5 44.5q-25 -25 -45 -44.5t-45 -35.5h-118v13q18 19 40 44.5t43 53t35 49.5h181z" />
    <glyph glyph-name="Ydieresis" unicode="&#x178;" horiz-adv-x="623" 
d="M312 433l116 281h195l-221 -436v-278h-181v273l-221 441h197zM124 853q0 37 22 54t55 17q32 0 55.5 -17t23.5 -54q0 -36 -23.5 -53t-55.5 -17q-33 0 -55 17t-22 53zM343 853q0 37 22.5 54t56.5 17q31 0 54.5 -17t23.5 -54q0 -36 -23.5 -53t-54.5 -17q-34 0 -56.5 17
t-22.5 53z" />
    <glyph glyph-name="Zacute" unicode="&#x179;" horiz-adv-x="574" 
d="M550 0h-522v108l291 467h-284v139h508v-108l-291 -467h298v-139zM488 931v-10q-17 -14 -42.5 -34t-54 -42t-55.5 -41.5t-46 -32.5h-119v13q16 19 38.5 44.5t45 53t37.5 49.5h196z" />
    <glyph glyph-name="zacute" unicode="&#x17a;" horiz-adv-x="477" 
d="M453 0h-430v98l216 322h-204v129h407v-106l-205 -314h216v-129zM432 766v-10q-17 -14 -42.5 -34t-54 -42t-55.5 -41.5t-46 -32.5h-119v13q16 19 38.5 44.5t45 53t37.5 49.5h196z" />
    <glyph glyph-name="Zdotaccent" unicode="&#x17b;" horiz-adv-x="574" 
d="M550 0h-522v108l291 467h-284v139h508v-108l-291 -467h298v-139zM295 932q38 0 66.5 -16t28.5 -62q0 -45 -28.5 -61.5t-66.5 -16.5q-40 0 -67.5 16.5t-27.5 61.5q0 46 27.5 62t67.5 16z" />
    <glyph glyph-name="zdotaccent" unicode="&#x17c;" horiz-adv-x="477" 
d="M453 0h-430v98l216 322h-204v129h407v-106l-205 -314h216v-129zM239 767q38 0 66.5 -16t28.5 -62q0 -45 -28.5 -61.5t-66.5 -16.5q-40 0 -67.5 16.5t-27.5 61.5q0 46 27.5 62t67.5 16z" />
    <glyph glyph-name="Zcaron" unicode="&#x17d;" horiz-adv-x="574" 
d="M550 0h-522v108l291 467h-284v139h508v-108l-291 -467h298v-139zM503 931v-13q-16 -18 -37.5 -44t-43 -53.5t-36.5 -49.5h-181q-14 22 -35 49.5t-43 53t-40 44.5v13h118q25 -16 45 -35.5t45 -44.5q24 25 45.5 44.5t46.5 35.5h116z" />
    <glyph glyph-name="zcaron" unicode="&#x17e;" horiz-adv-x="477" 
d="M453 0h-430v98l216 322h-204v129h407v-106l-205 -314h216v-129zM447 766v-13q-16 -18 -37.5 -44t-43 -53.5t-36.5 -49.5h-181q-14 22 -35 49.5t-43 53t-40 44.5v13h118q25 -16 45 -35.5t45 -44.5q24 25 45.5 44.5t46.5 35.5h116z" />
    <glyph glyph-name="longs" unicode="&#x17f;" horiz-adv-x="379" 
d="M292 638q-31 0 -40.5 -18.5t-9.5 -51.5v-568h-180v574q0 77 23.5 118.5t66.5 57t102 15.5q48 0 84 -7t60 -17l-35 -118q-17 5 -33.5 10t-37.5 5z" />
    <glyph glyph-name="uni0180" unicode="&#x180;" horiz-adv-x="611" 
d="M384 -10q-38 0 -63 10t-41 25t-29 31h-11l-29 -56h-142v576h-71v109h71v75h182v-75h113v-109h-113v-6q0 -55 -7 -101h7q17 31 49 54.5t88 23.5q52 0 94.5 -26.5t67.5 -86t25 -158.5q0 -96 -25.5 -159.5t-69 -95t-96.5 -31.5zM326 127q26 0 44.5 38.5t18.5 112.5
q0 73 -18.5 103.5t-46.5 30.5t-50.5 -31t-22.5 -97v-5q0 -73 15.5 -112.5t59.5 -39.5z" />
    <glyph glyph-name="uni0181" unicode="&#x181;" horiz-adv-x="780" 
d="M214 0v573h-24q-22 0 -33 -15t-11 -35q0 -17 3.5 -28t6.5 -19h-141q-4 8 -8 23t-4 36q0 48 17.5 88.5t59.5 65.5t115 25h238q139 0 212 -39t73 -142q0 -61 -23 -103t-64 -51v-5q24 -8 48 -25t40 -51t16 -91q0 -95 -66.5 -151t-184.5 -56h-270zM398 438h54q47 0 62.5 18
t15.5 53t-19 49.5t-65 14.5h-48v-135zM398 142h64q52 0 67.5 23t15.5 61q0 32 -15.5 54.5t-69.5 22.5h-62v-161z" />
    <glyph glyph-name="uni0182" unicode="&#x182;" horiz-adv-x="608" 
d="M73 0v714h442v-139h-261v-125h66q129 0 190.5 -61t61.5 -157q0 -109 -72 -170.5t-199 -61.5h-228zM254 137h49q45 0 66 21.5t21 69.5q0 47 -23.5 66t-58.5 19h-54v-176z" />
    <glyph glyph-name="uni0183" unicode="&#x183;" horiz-adv-x="611" 
d="M383 -10q-39 0 -63.5 10t-40.5 25t-29 31h-10l-29 -56h-142v760h457v-127h-276v-59q0 -34 -2 -64.5t-4 -40.5h6q17 31 49.5 54.5t88.5 23.5q52 0 94.5 -26.5t67.5 -86t25 -158.5q0 -96 -26 -159.5t-69.5 -95t-96.5 -31.5zM326 127q26 0 44 38.5t18 112.5q0 73 -18 103.5
t-46 30.5t-51 -31t-23 -97v-5q0 -73 16 -112.5t60 -39.5z" />
    <glyph glyph-name="uni0184" unicode="&#x184;" horiz-adv-x="646" 
d="M341 -12q-127 0 -197 52t-70 171v503h184v-266h61q103 0 167 -29.5t94.5 -81t30.5 -116.5q0 -107 -66.5 -170t-203.5 -63zM334 128q39 0 65 21.5t26 71.5q0 55 -35.5 71t-96.5 16h-35v-89q0 -91 76 -91z" />
    <glyph glyph-name="uni0185" unicode="&#x185;" horiz-adv-x="613" 
d="M325 -10q-121 0 -190.5 73t-69.5 206v491h182v-173q0 -32 -2 -59.5t-4 -46.5h6q19 31 53 54.5t89 23.5q52 0 94.5 -32t67.5 -95.5t25 -157.5q0 -98 -34.5 -160.5t-91.5 -93t-125 -30.5zM321 126q33 0 51.5 33t18.5 115q0 76 -19 113.5t-47 37.5q-41 0 -59.5 -33
t-18.5 -96v-30q0 -76 21.5 -108t52.5 -32z" />
    <glyph glyph-name="uni0186" unicode="&#x186;" horiz-adv-x="610" 
d="M234 -10q-50 0 -93.5 9t-84.5 27v143q42 -17 82 -27.5t77 -10.5q82 0 121 58t39 167q0 106 -37.5 166.5t-108.5 60.5q-35 0 -76 -12.5t-77 -31.5l-44 135q51 25 110.5 37.5t108.5 12.5q105 0 174 -45t103 -126t34 -189q0 -110 -36.5 -194.5t-109 -132t-182.5 -47.5z" />
    <glyph glyph-name="uni0187" unicode="&#x187;" horiz-adv-x="605" 
d="M596 883q22 0 42.5 -5.5t27.5 -9.5v-130q-8 3 -22 6.5t-30 3.5q-20 0 -31.5 -12t-11.5 -41v-35l-59 -127q-37 18 -75 33t-73 15q-59 0 -90.5 -60t-31.5 -166q0 -108 29 -165t97 -57q40 0 82 10.5t95 30.5v-145q-49 -21 -92 -30t-99 -9q-106 0 -172.5 45.5t-97.5 128
t-31 192.5q0 108 35 191t104.5 130t172.5 47q16 0 31.5 -2.5t30.5 -6.5v3q0 57 23.5 93.5t61.5 54t84 17.5z" />
    <glyph glyph-name="uni0188" unicode="&#x188;" horiz-adv-x="499" 
d="M282 -10q-117 0 -181.5 66t-64.5 216q0 103 34 166t93 92t133 29q8 0 16 -0.5t15 -2.5v24q0 100 48 142.5t122 42.5q23 0 42.5 -5.5t27.5 -10.5v-130q-9 3 -23 6.5t-30 3.5q-20 0 -31.5 -12.5t-11.5 -40.5v-62l-54 -125q-34 15 -62.5 25t-58.5 10q-75 0 -75 -151
q0 -78 22 -112t57 -34q48 0 82.5 13.5t67.5 37.5v-144q-35 -24 -72 -34t-96 -10z" />
    <glyph glyph-name="uni0189" unicode="&#x189;" horiz-adv-x="690" 
d="M305 714q161 0 249 -88.5t88 -257.5q0 -123 -43.5 -204.5t-123 -122.5t-186.5 -41h-216v284h-59v138h59v292h232zM306 575h-53v-153h97v-138h-97v-144h42q82 0 121 55.5t39 166.5q0 109 -37 161t-112 52z" />
    <glyph glyph-name="uni018A" unicode="&#x18a;" horiz-adv-x="839" 
d="M214 0v573h-24q-22 0 -33 -15t-11 -35q0 -17 3.5 -28t6.5 -19h-140q-4 8 -8.5 23t-4.5 36q0 48 18 88.5t59.5 65.5t114.5 25h243q104 0 184 -40t125 -118t45 -192q0 -120 -45.5 -201t-129.5 -122t-200 -41h-203zM398 142h39q84 0 124 54.5t40 163.5q0 111 -38 162
t-109 51h-56v-431z" />
    <glyph glyph-name="uni018B" unicode="&#x18b;" horiz-adv-x="605" 
d="M295 0q-127 0 -194.5 57t-67.5 165q0 64 29.5 116t87.5 82t145 30h56v123h-258v141h439v-714h-237zM301 137h50v176h-53q-36 0 -59.5 -20t-23.5 -68q0 -47 21 -67.5t65 -20.5z" />
    <glyph glyph-name="uni018C" unicode="&#x18c;" horiz-adv-x="611" 
d="M221 -10q-52 0 -94 32.5t-66.5 96t-24.5 156.5q0 87 25 148t68.5 92.5t97.5 31.5q55 0 89.5 -23.5t50.5 -53.5h6q-6 26 -10 49.5t-4 56.5v57h-274v127h457v-760h-142l-35 69h-6q-17 -31 -49 -55t-89 -24zM293 125q42 0 61 31.5t19 98.5v17q0 65 -18 101.5t-65 36.5
q-31 0 -50.5 -35.5t-19.5 -102.5q0 -73 20 -110t53 -37z" />
    <glyph glyph-name="uni018D" unicode="&#x18d;" horiz-adv-x="598" 
d="M269 -218q-62 0 -119.5 14.5t-110.5 40.5l66 120q47 -23 89 -36.5t73 -13.5q29 0 42 11.5t13 29.5q0 23 -25 45t-95 60q-86 48 -124 109.5t-38 143.5q0 129 72 191t190 62q74 0 132 -26t91 -76t33 -122q0 -92 -38 -147.5t-127 -82.5q99 -63 99 -169q0 -72 -54.5 -113
t-168.5 -41zM297 172q17 7 35 25t31 50t13 80q0 44 -19 73t-57 29q-36 0 -57 -30.5t-21 -87.5q0 -47 21.5 -81t53.5 -58z" />
    <glyph glyph-name="uni018E" unicode="&#x18e;" horiz-adv-x="530" 
d="M450 714v-714h-395v142h211v166h-194v140h194v126h-211v140h395z" />
    <glyph glyph-name="uni018F" unicode="&#x18f;" horiz-adv-x="745" 
d="M345 584q-67 0 -131 -25t-125 -57v149q47 29 120.5 51.5t157.5 22.5q91 0 166 -42.5t120.5 -124t45.5 -199.5q0 -120 -42 -202.5t-117.5 -124.5t-175.5 -42q-158 0 -239.5 102.5t-81.5 284.5v33h463q-4 76 -40 125t-121 49zM369 126q54 0 93 40t44 114h-275
q5 -70 40.5 -112t97.5 -42z" />
    <glyph glyph-name="uni0190" unicode="&#x190;" horiz-adv-x="598" 
d="M311 725q86 0 146 -21t113 -58l-75 -114q-33 24 -73.5 40t-88.5 16q-49 0 -72 -19t-23 -50q0 -25 15.5 -43t54.5 -28.5t108 -10.5h32v-132h-43q-88 0 -138.5 -20.5t-50.5 -67.5q0 -43 29.5 -68t110.5 -25q46 0 100.5 12t95.5 35v-143q-42 -19 -102 -29t-140 -10
q-97 0 -158 27t-89.5 74.5t-28.5 109.5q0 74 51 119.5t141 52.5v3q-70 11 -117.5 48t-47.5 114q0 84 63.5 136t186.5 52z" />
    <glyph glyph-name="uni0191" unicode="&#x191;" horiz-adv-x="535" 
d="M68 -252q-26 0 -50.5 5t-34.5 10v129q6 -3 20.5 -6.5t31.5 -3.5q19 0 32 14t13 43v775h391v-140h-210v-160h195v-140h-195v-340q0 -99 -51 -142.5t-142 -43.5z" />
    <glyph glyph-name="florin" unicode="&#x192;" horiz-adv-x="522" 
d="M333 743q40 0 79 -7t70 -17l-35 -117q-16 5 -32 9t-31 4q-25 0 -35.5 -18t-10.5 -51v-19h117v-126h-117v-452q0 -83 -45 -136t-130 -53q-25 0 -53.5 3.5t-45.5 9.5v131q14 -4 24.5 -6.5t26.5 -2.5q22 0 32.5 17t10.5 60v429h-69v82l73 43v30q0 105 41 146t130 41z" />
    <glyph glyph-name="uni0193" unicode="&#x193;" horiz-adv-x="681" 
d="M633 883q23 0 43 -5.5t28 -9.5v-130q-8 3 -22 6.5t-30 3.5q-20 0 -31 -12t-11 -41v-26l-62 -126q-25 15 -62.5 26.5t-78.5 11.5q-49 0 -86 -28t-58 -79t-21 -119q0 -63 11 -113t38 -79.5t74 -29.5q23 0 36 2t25 4v128h-94v142h274v-378q-55 -19 -113.5 -30t-135.5 -11
q-145 0 -224.5 93.5t-79.5 274.5q0 114 41 196t120.5 126t192.5 44q29 0 57 -6v1q0 57 23.5 93.5t62 53.5t83.5 17z" />
    <glyph glyph-name="uni0194" unicode="&#x194;" horiz-adv-x="631" 
d="M314 -240q-78 0 -119.5 43t-41.5 113q0 53 22.5 107t49.5 115l-225 576h193l92 -293q8 -28 15.5 -62.5t13.5 -66.5q8 32 16.5 65.5t19.5 62.5l102 294h193l-244 -579q27 -56 51.5 -111.5t24.5 -108.5q0 -67 -42.5 -111t-120.5 -44zM315 -130q27 0 27 50q0 21 -7 50.5
t-20 59.5q-13 -28 -19.5 -57.5t-6.5 -51.5q0 -51 26 -51z" />
    <glyph glyph-name="uni0195" unicode="&#x195;" horiz-adv-x="960" 
d="M641 -12q-133 0 -192.5 53t-59.5 171v102q0 111 -59 111q-46 0 -63 -46t-17 -129v-250h-181v760h181v-136q0 -35 -2 -71t-5 -71h8q24 38 59 57.5t77 19.5q53 0 94.5 -21.5t66 -67.5t24.5 -118v-114q0 -114 67 -114q38 0 55 31.5t17 105.5v286h183v-301q0 -131 -63 -194.5
t-190 -63.5z" />
    <glyph glyph-name="uni0196" unicode="&#x196;" horiz-adv-x="415" 
d="M268 -10q-52 0 -95 17.5t-69 60t-26 118.5v528h194v-514q0 -32 15 -49t36 -17q25 0 44 5t41 13v-135q-25 -11 -61.5 -19t-78.5 -8z" />
    <glyph glyph-name="uni0197" unicode="&#x197;" horiz-adv-x="401" 
d="M381 714v-97l-88 -47v-145h88v-142h-88v-139l88 -47v-97h-359v97l86 47v139h-86v142h86v145l-86 47v97h359z" />
    <glyph glyph-name="uni0198" unicode="&#x198;" horiz-adv-x="658" 
d="M550 726q29 0 51 -5.5t35 -11.5v-134q-9 4 -21.5 7t-28.5 3q-20 0 -35.5 -12.5t-26.5 -31.5l-82 -146l216 -395h-208l-139 285l-48 -38v-247h-183v714h183v-320q14 23 27.5 49.5t25.5 49.5l48 88q36 68 76.5 106.5t109.5 38.5z" />
    <glyph glyph-name="uni0199" unicode="&#x199;" horiz-adv-x="639" 
d="M258 767q26 0 49 -5.5t34 -10.5v-128q-7 3 -21.5 6.5t-30.5 3.5q-17 0 -28 -11.5t-11 -40.5v-152q0 -30 -2.5 -60t-5.5 -59h2q11 22 27.5 44.5t34.5 42.5l120 152h203l-206 -239l216 -310h-208l-129 211l-52 -45v-166h-181v584q0 67 24 107t66.5 58t98.5 18z" />
    <glyph glyph-name="uni019A" unicode="&#x19a;" horiz-adv-x="304" 
d="M62 0v303h-55v122h55v335h179v-335h57v-122h-57v-303h-179z" />
    <glyph glyph-name="uni019B" unicode="&#x19b;" horiz-adv-x="625" 
d="M0 0l223 516l-1 18l-91 -30l-30 90l73 23q-8 11 -23 15t-32 4q-14 0 -28 -2t-28 -5v129q9 2 25 4t33 3t29 1q69 0 114.5 -24t74.5 -73l82 29l30 -93l-69 -24l120 -366q18 -56 34.5 -72t41.5 -16q11 0 20.5 1.5t17.5 3.5v-125q-11 -6 -32.5 -11t-55.5 -5
q-73 0 -113.5 32.5t-58.5 92.5l-33 112q-9 32 -14.5 58t-8.5 46h-4q-7 -26 -13.5 -53.5t-14.5 -47.5l-82 -231h-186z" />
    <glyph glyph-name="uni019C" unicode="&#x19c;" horiz-adv-x="994" 
d="M269 -10q-55 0 -98.5 20.5t-68 65t-24.5 115.5v523h184v-471q0 -109 54 -109q47 0 66 41.5t19 117.5v421h184v-471q0 -109 53 -109q52 0 68.5 46t16.5 128v406h186v-714h-139l-25 75h-10q-27 -43 -70 -64t-88 -21q-49 0 -86 22t-63 63h-9q-27 -42 -66 -63.5t-84 -21.5z
" />
    <glyph glyph-name="uni019D" unicode="&#x19d;" horiz-adv-x="802" 
d="M59 -252q-26 0 -46 5t-30 10v129q6 -3 20.5 -6.5t31.5 -3.5q19 0 32 14t13 43v775h238l245 -515h3q-1 4 -2 26.5t-2.5 55t-2.5 65.5t-1 57v311h164v-714h-239l-246 521h-4q-1 6 0.5 -14.5t3.5 -55.5t4 -73t2 -68v-376q0 -99 -51 -142.5t-133 -43.5z" />
    <glyph glyph-name="uni019E" unicode="&#x19e;" horiz-adv-x="630" 
d="M387 559q51 0 92.5 -21t66 -65.5t24.5 -114.5v-598h-179v557q0 53 -15 81t-49 28q-51 0 -68 -45.5t-17 -130.5v-250h-180v549h135l23 -69h11q25 42 66.5 60.5t89.5 18.5z" />
    <glyph glyph-name="uni019F" unicode="&#x19f;" horiz-adv-x="749" 
d="M700 358q0 -111 -33.5 -193.5t-105 -128.5t-187.5 -46q-112 0 -184.5 46t-107 129t-34.5 194t34.5 193t107 127.5t185.5 45.5q115 0 186.5 -45.5t105 -128t33.5 -193.5zM375 589q-70 0 -105.5 -41.5t-43.5 -116.5h296q-8 75 -42.5 116.5t-104.5 41.5zM374 128
q74 0 109.5 45t40.5 124h-301q6 -79 42.5 -124t108.5 -45z" />
    <glyph glyph-name="Ohorn" unicode="&#x1a0;" horiz-adv-x="793" 
d="M701 358q0 -111 -33.5 -193.5t-105.5 -128.5t-188 -46q-112 0 -184.5 46t-107 129t-34.5 194t35 193t107.5 127.5t185.5 45.5q84 0 146 -25.5t101 -71.5q12 19 21 52t9 80h172l6 -11q-19 -89 -54 -140.5t-94 -77.5q10 -37 14 -80.5t4 -92.5zM238 358q0 -105 32 -165
t104 -60q74 0 105 60t31 165q0 106 -31 166t-104 60t-105 -60t-32 -166z" />
    <glyph glyph-name="ohorn" unicode="&#x1a1;" horiz-adv-x="678" 
d="M558 276q0 -138 -69 -212t-191 -74q-75 0 -133.5 33t-91.5 97t-33 156q0 136 69.5 209.5t191.5 73.5q53 0 101 -16.5t83 -49.5q23 11 35.5 48t12.5 90h172l7 -11q-8 -50 -24 -92.5t-50 -74t-97 -48.5q9 -28 13 -60t4 -69zM222 276q0 -75 18 -113t60 -38q40 0 58 38
t18 113t-18 111.5t-59 36.5t-59 -36.5t-18 -111.5z" />
    <glyph glyph-name="uni01A2" unicode="&#x1a2;" horiz-adv-x="1092" 
d="M695 358q0 -112 -33.5 -195t-104.5 -128t-184 -45q-111 0 -182 45t-104.5 128t-33.5 196q0 111 33.5 193t104.5 127.5t183 45.5q77 0 134.5 -23t96.5 -65q37 37 85.5 62.5t117.5 25.5q58 0 105.5 -25t75 -77.5t27.5 -136.5v-486h-186v472q0 110 -75 110q-36 0 -55.5 -10
t-32.5 -24q28 -80 28 -190zM246 358q0 -106 30 -165t97 -59q71 0 100 59t29 165q0 104 -27 164.5t-101 60.5q-69 0 -98.5 -59.5t-29.5 -165.5z" />
    <glyph glyph-name="uni01A3" unicode="&#x1a3;" horiz-adv-x="905" 
d="M532 276q0 -140 -69 -213t-181 -73q-70 0 -126 31.5t-88 95t-32 159.5q0 138 68 210.5t181 72.5q57 0 103.5 -19.5t80.5 -61.5q36 44 81 62.5t96 18.5q88 0 143.5 -48t55.5 -155v-596h-182v552q0 55 -17.5 84t-54.5 29q-25 0 -42 -8.5t-28 -24.5q5 -25 8 -54t3 -62z
M221 276q0 -76 14.5 -113t48.5 -37q33 0 47 36.5t14 113.5q0 76 -14 112t-48 36q-35 0 -48.5 -36.5t-13.5 -111.5z" />
    <glyph glyph-name="uni01A4" unicode="&#x1a4;" horiz-adv-x="740" 
d="M214 0v573h-24q-22 0 -33 -15t-11 -35q0 -17 3.5 -28t6.5 -19h-140q-4 8 -8.5 23t-4.5 36q0 48 18 88.5t59.5 65.5t114.5 25h256q133 0 193 -61t60 -166q0 -45 -11 -88t-39.5 -77.5t-80 -55t-132.5 -20.5h-43v-246h-184zM398 386h27q41 0 67.5 23.5t26.5 72.5
q0 91 -76 91h-45v-187z" />
    <glyph glyph-name="uni01A5" unicode="&#x1a5;" horiz-adv-x="611" 
d="M254 765q26 0 48.5 -5.5t30.5 -10.5v-129q-5 2 -18.5 6t-28.5 4q-16 0 -26 -11t-10 -36v-19q0 -20 -2 -39t-4 -45h6q20 32 52.5 55.5t83.5 23.5q53 0 96 -32t68 -95t25 -156q0 -96 -25.5 -159.5t-68 -95t-94.5 -31.5q-55 0 -86 19t-48 43h-8q3 -13 4 -31.5t1 -39.5v-221
h-181v826q0 98 51.5 138.5t133.5 40.5zM322 425q-40 0 -56 -32.5t-16 -99.5v-16q0 -72 17 -111t57 -39q64 0 64 152q0 146 -66 146z" />
    <glyph glyph-name="uni01A6" unicode="&#x1a6;" horiz-adv-x="648" 
d="M454 -100l-154 266h-37v-166h-183v714h183v-100h28q143 0 211 -54t68 -164q0 -49 -18.5 -85t-45.5 -61.5t-53 -41.5l204 -308h-203zM263 306h10q65 0 88 22t23 64q0 44 -24 62.5t-83 18.5h-14v-167z" />
    <glyph glyph-name="uni01A7" unicode="&#x1a7;" horiz-adv-x="521" 
d="M270 724q103 0 159.5 -52t56.5 -150q0 -50 -15 -85t-39.5 -60t-52.5 -42.5t-55 -31.5q-48 -25 -78.5 -49t-30.5 -59q0 -29 13 -46t51 -17q48 0 98 13t105 35v-142q-44 -22 -99.5 -35t-114.5 -13q-124 0 -177.5 55.5t-53.5 150.5q0 80 36 133t112 88q67 31 94 53t27 57
q0 25 -12 39.5t-41 14.5q-35 0 -72 -11.5t-87 -31.5l-52 134q51 24 108 38t120 14z" />
    <glyph glyph-name="uni01A8" unicode="&#x1a8;" horiz-adv-x="480" 
d="M246 559q58 0 104 -16.5t73 -50.5t27 -86q0 -46 -12 -77t-41 -54.5t-79 -44.5q-42 -16 -63.5 -28t-29.5 -20.5t-9 -15.5t-1 -14q0 -40 54 -40q34 0 76 10t88 35v-127q-43 -22 -84 -31t-91 -9q-110 0 -166 42.5t-56 123.5q0 70 34 111.5t101 68.5q47 18 67.5 30t25.5 20.5
t5 17.5q0 15 -12 23t-29 8q-32 0 -63.5 -11.5t-73.5 -29.5l-48 120q51 24 102 34.5t101 10.5z" />
    <glyph glyph-name="uni01A9" unicode="&#x1a9;" horiz-adv-x="565" 
d="M34 0v133l204 241l-198 211v129h464v-138h-155q-28 0 -54 0.5t-54 4.5l194 -206l-204 -241q31 3 56 4.5t60 1.5h184v-140h-497z" />
    <glyph glyph-name="uni01AA" unicode="&#x1aa;" horiz-adv-x="417" 
d="M137 771q67 0 106 -23.5t56 -65.5t17 -100v-636q0 -26 13.5 -39t35.5 -13q25 0 49.5 5.5t50.5 13.5v-126q-25 -11 -63 -19t-81 -8q-52 0 -94.5 16t-67.5 56.5t-25 114.5v581h-2q-74 0 -107.5 35t-33.5 90q0 47 36.5 82.5t109.5 35.5zM111 681q-6 0 -12 -8.5t-6 -20.5
q0 -15 10.5 -27.5t30.5 -12.5v28q0 20 -7 30.5t-16 10.5z" />
    <glyph glyph-name="uni01AB" unicode="&#x1ab;" horiz-adv-x="450" 
d="M269 -240q-47 0 -83 13v117q8 -4 19 -6.5t22 -2.5q22 0 31 11.5t9 43.5v54h-12q-40 0 -78 15.5t-63 56t-25 114.5v246h-63v71l79 56l48 113h118v-113h143v-127h-143v-238q0 -32 15.5 -45.5t36.5 -13.5q23 0 46.5 5.5t47.5 13.5v-207q0 -94 -37 -135.5t-111 -41.5z" />
    <glyph glyph-name="uni01AC" unicode="&#x1ac;" horiz-adv-x="620" 
d="M244 0v571h-54q-22 0 -33 -15t-11 -36q0 -15 3.5 -25.5t6.5 -18.5h-140q-4 8 -8.5 23t-4.5 36q0 48 18 88.5t59.5 65.5t114.5 25h401v-143h-167v-571h-185z" />
    <glyph glyph-name="uni01AD" unicode="&#x1ad;" horiz-adv-x="450" 
d="M294 765q30 0 57 -6t40 -11v-129q-9 3 -30.5 7t-42.5 4q-47 0 -47 -48v-33h143v-127h-143v-247q0 -25 15.5 -37.5t36.5 -12.5q23 0 46.5 5.5t47.5 13.5v-126q-25 -12 -65 -20t-87 -8t-87 15.5t-64.5 56t-24.5 114.5v246h-63v71l63 47v46q0 98 56 138.5t149 40.5z" />
    <glyph glyph-name="uni01AE" unicode="&#x1ae;" horiz-adv-x="568" 
d="M382 -252q-89 0 -140 43.5t-51 144.5v635h-166v143h517v-143h-167v-632q0 -30 13.5 -43.5t32.5 -13.5q17 0 31 3.5t21 6.5v-129q-13 -5 -39 -10t-52 -5z" />
    <glyph glyph-name="Uhorn" unicode="&#x1af;" horiz-adv-x="846" 
d="M643 714v-95q33 15 47 53t14 88h172l7 -11q-9 -42 -23 -79.5t-39.5 -68t-68.5 -51.5t-109 -30v-268q0 -74 -33.5 -133.5t-99.5 -94t-162 -34.5q-136 0 -208 72.5t-72 191.5v460h182v-444q0 -77 26 -107t78 -30q55 0 81.5 32.5t26.5 105.5v443h181z" />
    <glyph glyph-name="uhorn" unicode="&#x1b0;" horiz-adv-x="761" 
d="M788 631l7 -11q-11 -57 -32 -104.5t-66 -80.5t-129 -46v-389h-135l-23 70h-12q-25 -42 -67.5 -61t-89.5 -19q-50 0 -91 21t-65 65t-24 115v358h180v-311q0 -56 14 -85t48 -29q51 0 68 45t17 130v250h180v-60q24 13 35.5 52t11.5 90h173z" />
    <glyph glyph-name="uni01B1" unicode="&#x1b1;" horiz-adv-x="744" 
d="M372 133q64 0 101 47t37 142q0 53 -7 98.5t-27 80.5t-60 56v157h308v-144h-162q62 -37 100 -114t38 -173q0 -89 -39.5 -155t-113 -102t-175.5 -36q-100 0 -173.5 36.5t-114 103t-40.5 154.5q0 99 40 174.5t102 111.5h-166v144h311v-157q-40 -21 -61 -56t-28.5 -81
t-7.5 -99q0 -94 37 -141t101 -47z" />
    <glyph glyph-name="uni01B2" unicode="&#x1b2;" horiz-adv-x="711" 
d="M353 -10q-139 0 -212 74t-73 202v448h182v-429q0 -83 27 -117.5t79 -34.5q56 0 81 36.5t25 116.5v244q0 29 -13 40.5t-31 11.5q-32 0 -61 -16v133q20 10 52 17.5t67 7.5q85 0 126 -43t41 -116v-298q0 -81 -32 -143.5t-96.5 -98t-161.5 -35.5z" />
    <glyph glyph-name="uni01B3" unicode="&#x1b3;" horiz-adv-x="621" 
d="M86 724q64 0 101.5 -34t61.5 -95l60 -152l113 271h199l-222 -436v-278h-183v272l-85 204q-21 48 -36.5 70.5t-29.5 29t-30 6.5q-7 0 -17.5 -2.5t-17.5 -6.5v132q14 7 38 13t48 6z" />
    <glyph glyph-name="uni01B4" unicode="&#x1b4;" horiz-adv-x="628" 
d="M525 560q24 0 52.5 -5t43.5 -13v-129q-10 2 -18.5 3.5t-15.5 1.5q-16 0 -30.5 -8t-28.5 -32t-29 -70l-117 -369q-29 -85 -94.5 -132t-156.5 -47q-19 0 -40 2.5t-32 5.5v133q7 -1 24 -3t28 -2q38 0 68 21.5t40 67.5l5 20l-211 544h200l66 -238q7 -25 11.5 -54t7.5 -65h3
q3 20 8 49t13 57l37 130q11 32 30.5 62.5t52 50t83.5 19.5z" />
    <glyph glyph-name="uni01B5" unicode="&#x1b5;" horiz-adv-x="545" 
d="M56 424h166l84 149h-287v141h502v-110l-105 -180h63v-141h-170l-77 -142h298v-141h-514v110l101 173h-61v141z" />
    <glyph glyph-name="uni01B6" unicode="&#x1b6;" horiz-adv-x="477" 
d="M442 549v-106l-69 -111h66v-108h-152l-50 -95h216v-129h-430v98l77 126h-62v108h150l51 88h-204v129h407z" />
    <glyph glyph-name="uni01B7" unicode="&#x1b7;" horiz-adv-x="596" 
d="M513 714v-107l-184 -188q106 -6 165 -60.5t59 -145.5q0 -65 -32.5 -115t-99.5 -79t-172 -29q-61 0 -115 10t-100 29v146q48 -24 103 -35.5t98 -11.5q78 0 105 26t27 67q0 25 -14.5 43.5t-53.5 29t-113 10.5h-52v117l141 153h-216v140h454z" />
    <glyph glyph-name="uni01B8" unicode="&#x1b8;" horiz-adv-x="567" 
d="M330 -10q-149 0 -223.5 60t-74.5 155q0 98 54 151t154 64l-176 186v108h459v-141h-209l129 -149v-119h-49q-70 0 -109 -11t-55 -30.5t-16 -44.5q0 -44 28.5 -69t104.5 -25q43 0 98 12.5t102 35.5v-144q-47 -19 -100 -29t-117 -10z" />
    <glyph glyph-name="uni01B9" unicode="&#x1b9;" horiz-adv-x="596" 
d="M323 -240q-99 0 -162 31t-93 86t-31 126q0 61 20.5 112.5t66.5 87.5t124 51l-186 185v110h484v-129h-261l162 -169v-120h-53q-70 0 -107.5 -16t-51.5 -42.5t-14 -59.5q0 -31 10.5 -57.5t38.5 -43t79 -16.5q41 0 97.5 12.5t103.5 36.5v-143q-47 -20 -102 -31t-125 -11z
" />
    <glyph glyph-name="uni01BA" unicode="&#x1ba;" horiz-adv-x="527" 
d="M229 -240q-90 0 -148 40.5t-58 123.5q0 68 40 112.5t144 55.5q56 6 82 17t26 43q0 30 -27.5 41t-94.5 11h-60v100l130 122h-219v123h425v-106l-152 -131q45 -4 87 -20.5t68.5 -51t26.5 -92.5q0 -34 -8.5 -64.5t-33 -54.5t-71.5 -40.5t-124 -22.5q-47 -3 -66 -11.5
t-19 -28.5q0 -22 20.5 -32.5t55.5 -10.5q67 0 120 14.5t87 26.5v-123q-38 -16 -100 -28.5t-131 -12.5z" />
    <glyph glyph-name="uni01BB" unicode="&#x1bb;" horiz-adv-x="535" 
d="M248 763q71 0 122.5 -28t79.5 -74.5t28 -104.5q0 -38 -4 -69.5t-21 -63.5h53v-108h-134l-145 -179v-8h278v-128h-492v125l156 190h-149v108h244q23 31 27 61t4 62q0 35 -19 58.5t-50 23.5q-40 0 -69 -21t-57 -52l-88 102q18 20 48 45t76 43t112 18z" />
    <glyph glyph-name="uni01BC" unicode="&#x1bc;" horiz-adv-x="574" 
d="M235 -10q-68 0 -123 11t-85 28v146q30 -18 84 -31.5t109 -13.5q59 0 95.5 21t36.5 74q0 51 -28 73t-90 22h-109v249h-102v145h497v-145h-231v-112h12q107 0 172 -55t65 -165q0 -75 -31 -130.5t-97.5 -86t-174.5 -30.5z" />
    <glyph glyph-name="uni01BD" unicode="&#x1bd;" horiz-adv-x="569" 
d="M237 -10q-63 0 -115 10t-78 23v137q17 -10 49 -19.5t72.5 -15.5t81.5 -5q59 2 81.5 16t22.5 43t-25 41t-74 12h-121v191h-90v126h467v-126h-217v-79h35q100 0 150.5 -38.5t50.5 -128.5q0 -85 -69 -136t-221 -51z" />
    <glyph glyph-name="uni01BE" unicode="&#x1be;" horiz-adv-x="487" 
d="M222 -10q-32 0 -68 4.5t-69 12.5t-56 20v136q19 -12 50.5 -23.5t67 -19.5t67.5 -8q35 0 49.5 12t14.5 35q0 22 -12 33t-37 24q-39 19 -64 39.5t-36.5 50.5t-11.5 80v36h-96v71l98 56l49 113h118v-113h122v-127h-122v-27q0 -25 12 -38t43 -30q33 -19 59 -39t40.5 -49
t14.5 -74q0 -49 -22 -88.5t-73.5 -63t-137.5 -23.5z" />
    <glyph glyph-name="uni01BF" unicode="&#x1bf;" horiz-adv-x="611" 
d="M388 559q86 0 138.5 -67.5t52.5 -186.5q0 -79 -34 -148.5t-106.5 -116t-188.5 -58.5v-222h-181v789h147l25 -68h8q19 31 52.5 54.5t86.5 23.5zM324 423q-74 0 -74 -131v-174q63 10 103.5 58.5t40.5 129.5q0 52 -17.5 84.5t-52.5 32.5z" />
    <glyph glyph-name="uni01C0" unicode="&#x1c0;" horiz-adv-x="275" 
d="M69 0v760h137v-760h-137z" />
    <glyph glyph-name="uni01C1" unicode="&#x1c1;" horiz-adv-x="550" 
d="M69 0v760h137v-760h-137zM343 0v760h137v-760h-137z" />
    <glyph glyph-name="uni01C2" unicode="&#x1c2;" horiz-adv-x="486" 
d="M311 760v-216h136v-115h-136v-78h136v-115h-136v-236h-137v236h-133v115h133v78h-133v115h133v216h137z" />
    <glyph glyph-name="uni01C3" unicode="&#x1c3;" horiz-adv-x="288" 
d="M213 244h-151l-24 470h199zM40 75q0 49 28.5 68.5t68.5 19.5q38 0 66 -19.5t28 -68.5q0 -47 -28 -67.5t-66 -20.5q-40 0 -68.5 20.5t-28.5 67.5z" />
    <glyph glyph-name="uni01C4" unicode="&#x1c4;" horiz-adv-x="1255" 
d="M642 368q0 -123 -43.5 -204.5t-123 -122.5t-186.5 -41h-216v714h232q162 0 249.5 -88.5t87.5 -257.5zM455 362q0 109 -37.5 161t-110.5 52h-53v-435h40q83 0 122 55.5t39 166.5zM1231 0h-522v108l291 467h-284v139h508v-108l-291 -467h298v-139zM1221 931v-13
q-16 -18 -37.5 -44t-43 -53.5t-36.5 -49.5h-181q-14 22 -35 49.5t-43 53t-40 44.5v13h118q25 -16 45 -35.5t45 -44.5q24 25 45.5 44.5t46.5 35.5h116z" />
    <glyph glyph-name="uni01C5" unicode="&#x1c5;" horiz-adv-x="1167" 
d="M642 368q0 -123 -43.5 -204.5t-123 -122.5t-186.5 -41h-216v714h232q162 0 249.5 -88.5t87.5 -257.5zM455 362q0 109 -37.5 161t-110.5 52h-53v-435h40q83 0 122 55.5t39 166.5zM1143 0h-430v98l216 322h-204v129h407v-106l-205 -314h216v-129zM1175 766v-13
q-16 -18 -37.5 -44t-43 -53.5t-36.5 -49.5h-181q-14 22 -35 49.5t-43 53t-40 44.5v13h118q25 -16 45 -35.5t45 -44.5q24 25 45.5 44.5t46.5 35.5h116z" />
    <glyph glyph-name="uni01C6" unicode="&#x1c6;" horiz-adv-x="1081" 
d="M224 -10q-80 0 -132 72t-52 212q0 141 53 213t137 72q53 0 84.5 -23t52.5 -57h3q-3 18 -5.5 51.5t-2.5 66.5v163h180v-760h-135l-38 71h-7q-19 -34 -51.5 -57.5t-86.5 -23.5zM297 124q43 0 61.5 33t18.5 100v15q0 74 -17.5 112.5t-64.5 38.5q-33 0 -53.5 -38t-20.5 -114
q0 -75 20.5 -111t55.5 -36zM1058 0h-430v98l216 322h-204v129h407v-106l-205 -314h216v-129zM1076 766v-13q-16 -18 -37.5 -44t-43 -53.5t-36.5 -49.5h-181q-14 22 -35 49.5t-43 53t-40 44.5v13h118q25 -16 45 -35.5t45 -44.5q24 25 45.5 44.5t46.5 35.5h116z" />
    <glyph glyph-name="uni01C7" unicode="&#x1c7;" horiz-adv-x="878" 
d="M73 0v714h181v-575h258v-139h-439zM567 -216q-32 0 -55 3t-39 7v137q15 -3 31.5 -6.5t35.5 -3.5q48 0 65.5 28t17.5 100v665h182v-657q0 -99 -30.5 -159t-84 -87t-123.5 -27z" />
    <glyph glyph-name="uni01C8" unicode="&#x1c8;" horiz-adv-x="852" 
d="M73 0v714h181v-575h258v-139h-439zM605 689q0 46 27.5 62t66.5 16t67.5 -16t28.5 -62q0 -45 -28.5 -61.5t-67.5 -16.5t-66.5 16.5t-27.5 61.5zM595 -240q-21 0 -49.5 3.5t-46.5 8.5v132q15 -4 27.5 -6.5t28.5 -2.5q22 0 38 16.5t16 66.5v571h179v-602q0 -50 -18.5 -92.5
t-60.5 -68.5t-114 -26z" />
    <glyph glyph-name="uni01C9" unicode="&#x1c9;" horiz-adv-x="609" 
d="M242 0h-180v760h180v-760zM362 689q0 46 27.5 62t66.5 16t67.5 -16t28.5 -62q0 -45 -28.5 -61.5t-67.5 -16.5t-66.5 16.5t-27.5 61.5zM352 -240q-21 0 -49.5 3.5t-46.5 8.5v132q15 -4 27.5 -6.5t28.5 -2.5q22 0 38 16.5t16 66.5v571h179v-602q0 -50 -18.5 -92.5
t-60.5 -68.5t-114 -26z" />
    <glyph glyph-name="uni01CA" unicode="&#x1ca;" horiz-adv-x="1115" 
d="M712 0h-237l-246 523h-4q0 -19 2 -51t4.5 -69.5t2.5 -72.5v-330h-161v714h236l245 -517h3q0 18 -1.5 49t-3.5 67.5t-2 69.5v331h162v-714zM805 -216q-32 0 -55 3t-39 7v137q15 -3 31.5 -6.5t35.5 -3.5q48 0 65.5 28t17.5 100v665h182v-657q0 -99 -30.5 -159t-84 -87
t-123.5 -27z" />
    <glyph glyph-name="uni01CB" unicode="&#x1cb;" horiz-adv-x="1089" 
d="M712 0h-237l-246 523h-4q0 -19 2 -51t4.5 -69.5t2.5 -72.5v-330h-161v714h236l245 -517h3q0 18 -1.5 49t-3.5 67.5t-2 69.5v331h162v-714zM843 689q0 46 27.5 62t66.5 16t67.5 -16t28.5 -62q0 -45 -28.5 -61.5t-67.5 -16.5t-66.5 16.5t-27.5 61.5zM833 -240
q-21 0 -49.5 3.5t-46.5 8.5v132q15 -4 27.5 -6.5t28.5 -2.5q22 0 38 16.5t16 66.5v571h179v-602q0 -50 -18.5 -92.5t-60.5 -68.5t-114 -26z" />
    <glyph glyph-name="uni01CC" unicode="&#x1cc;" horiz-adv-x="935" 
d="M387 559q81 0 132 -47.5t51 -153.5v-358h-179v311q0 57 -15 86t-49 29q-51 0 -68 -45.5t-17 -130.5v-250h-180v549h135l25 -71h7q49 81 158 81zM688 689q0 46 27.5 62t66.5 16t67.5 -16t28.5 -62q0 -45 -28.5 -61.5t-67.5 -16.5t-66.5 16.5t-27.5 61.5zM678 -240
q-21 0 -49.5 3.5t-46.5 8.5v132q15 -4 27.5 -6.5t28.5 -2.5q22 0 38 16.5t16 66.5v571h179v-602q0 -50 -18.5 -92.5t-60.5 -68.5t-114 -26z" />
    <glyph glyph-name="uni01CD" unicode="&#x1cd;" horiz-adv-x="682" 
d="M484 0l-33 153h-218l-34 -153h-199l219 717h241l222 -717h-198zM414 295l-38 144q-8 33 -18 75t-17 84q-6 -42 -15.5 -84t-17.5 -75l-38 -144h144zM543 931v-13q-16 -18 -37.5 -44t-43 -53.5t-36.5 -49.5h-181q-14 22 -35 49.5t-43 53t-40 44.5v13h118q25 -16 45 -35.5
t45 -44.5q24 25 45.5 44.5t46.5 35.5h116z" />
    <glyph glyph-name="uni01CE" unicode="&#x1ce;" horiz-adv-x="586" 
d="M316 560q99 0 154.5 -49.5t55.5 -146.5v-364h-124l-35 74h-4q-33 -44 -70 -64t-101 -20q-68 0 -113 43t-45 133q0 88 58 130.5t167 46.5l87 3v16q0 40 -17 58t-46 18q-31 0 -69 -11.5t-76 -28.5l-51 112q45 24 102 37t127 13zM347 250l-41 -2q-50 -2 -70 -22.5t-20 -55.5
q0 -32 14.5 -45.5t37.5 -13.5q32 0 55.5 25.5t23.5 69.5v44zM496 766v-13q-16 -18 -37.5 -44t-43 -53.5t-36.5 -49.5h-181q-14 22 -35 49.5t-43 53t-40 44.5v13h118q25 -16 45 -35.5t45 -44.5q24 25 45.5 44.5t46.5 35.5h116z" />
    <glyph glyph-name="uni01CF" unicode="&#x1cf;" horiz-adv-x="413" 
d="M381 0h-349v97l84 37v446l-84 37v97h349v-97l-83 -37v-446l83 -37v-97zM396 931v-13q-16 -18 -37.5 -44t-43 -53.5t-36.5 -49.5h-181q-14 22 -35 49.5t-43 53t-40 44.5v13h118q25 -16 45 -35.5t45 -44.5q24 25 45.5 44.5t46.5 35.5h116z" />
    <glyph glyph-name="uni01D0" unicode="&#x1d0;" horiz-adv-x="305" 
d="M242 0h-179v549h179v-549zM347 766v-13q-16 -18 -37.5 -44t-43 -53.5t-36.5 -49.5h-181q-14 22 -35 49.5t-43 53t-40 44.5v13h118q25 -16 45 -35.5t45 -44.5q24 25 45.5 44.5t46.5 35.5h116z" />
    <glyph glyph-name="uni01D1" unicode="&#x1d1;" horiz-adv-x="749" 
d="M700 358q0 -111 -33.5 -193.5t-105 -128.5t-187.5 -46q-112 0 -184.5 46t-107 129t-34.5 194t34.5 193t107 127.5t185.5 45.5q115 0 186.5 -45.5t105 -128t33.5 -193.5zM238 358q0 -105 31.5 -165t104.5 -60q74 0 105 60t31 165t-31 165.5t-104 60.5q-74 0 -105.5 -60.5
t-31.5 -165.5zM588 931v-13q-16 -18 -37.5 -44t-43 -53.5t-36.5 -49.5h-181q-14 22 -35 49.5t-43 53t-40 44.5v13h118q25 -16 45 -35.5t45 -44.5q24 25 45.5 44.5t46.5 35.5h116z" />
    <glyph glyph-name="uni01D2" unicode="&#x1d2;" horiz-adv-x="598" 
d="M558 276q0 -138 -69 -212t-191 -74q-75 0 -133.5 33t-91.5 97t-33 156q0 136 69.5 209.5t191.5 73.5q75 0 133 -33t91 -96t33 -154zM222 276q0 -76 17.5 -116t60.5 -40q42 0 59 40t17 116t-17 114.5t-60 38.5q-41 0 -59 -38.5t-18 -114.5zM504 766v-13q-16 -18 -37.5 -44
t-43 -53.5t-36.5 -49.5h-181q-14 22 -35 49.5t-43 53t-40 44.5v13h118q25 -16 45 -35.5t45 -44.5q24 25 45.5 44.5t46.5 35.5h116z" />
    <glyph glyph-name="uni01D3" unicode="&#x1d3;" horiz-adv-x="711" 
d="M643 714v-447q0 -81 -32 -143.5t-96.5 -98t-161.5 -35.5q-139 0 -212 74t-73 202v448h182v-429q0 -83 27 -117.5t79 -34.5q56 0 81 36.5t25 116.5v428h181zM568 931v-13q-16 -18 -37.5 -44t-43 -53.5t-36.5 -49.5h-181q-14 22 -35 49.5t-43 53t-40 44.5v13h118
q25 -16 45 -35.5t45 -44.5q24 25 45.5 44.5t46.5 35.5h116z" />
    <glyph glyph-name="uni01D4" unicode="&#x1d4;" horiz-adv-x="630" 
d="M568 549v-549h-135l-23 70h-11q-25 -42 -66.5 -61t-89.5 -19q-51 0 -92 21t-65.5 65t-24.5 115v358h180v-311q0 -56 14 -85t48 -29q51 0 68 45t17 130v250h180zM521 766v-13q-16 -18 -37.5 -44t-43 -53.5t-36.5 -49.5h-181q-14 22 -35 49.5t-43 53t-40 44.5v13h118
q25 -16 45 -35.5t45 -44.5q24 25 45.5 44.5t46.5 35.5h116z" />
    <glyph glyph-name="uni01D5" unicode="&#x1d5;" horiz-adv-x="711" 
d="M643 714v-447q0 -81 -32 -143.5t-96.5 -98t-161.5 -35.5q-139 0 -212 74t-73 202v448h182v-429q0 -83 27 -117.5t79 -34.5q56 0 81 36.5t25 116.5v428h181zM545 1026v-100h-332v100h332zM282 891q32 0 51.5 -16t19.5 -48q0 -31 -19.5 -47t-51.5 -16q-69 0 -69 63
q0 64 69 64zM472 891q32 0 51.5 -16t19.5 -48q0 -31 -19.5 -47t-51.5 -16t-50 16t-18 47q0 32 18 48t50 16z" />
    <glyph glyph-name="uni01D6" unicode="&#x1d6;" horiz-adv-x="630" 
d="M568 549v-549h-135l-23 70h-11q-25 -42 -66.5 -61t-89.5 -19q-51 0 -92 21t-65.5 65t-24.5 115v358h180v-311q0 -56 14 -85t48 -29q51 0 68 45t17 130v250h180zM499 861v-100h-332v100h332zM236 726q32 0 51.5 -16t19.5 -48q0 -31 -19.5 -47t-51.5 -16q-69 0 -69 63
q0 64 69 64zM426 726q32 0 51.5 -16t19.5 -48q0 -31 -19.5 -47t-51.5 -16t-50 16t-18 47q0 32 18 48t50 16z" />
    <glyph glyph-name="uni01D7" unicode="&#x1d7;" horiz-adv-x="711" 
d="M643 714v-447q0 -81 -32 -143.5t-96.5 -98t-161.5 -35.5q-139 0 -212 74t-73 202v448h182v-429q0 -83 27 -117.5t79 -34.5q56 0 81 36.5t25 116.5v428h181zM310 904v13q24 28 44 63t40 69h186v-10q-20 -20 -46.5 -45.5t-54 -49.5t-50.5 -40h-119zM282 764q-69 0 -69 63
q0 64 69 64q32 0 51.5 -16t19.5 -48q0 -31 -19.5 -47t-51.5 -16zM472 764q-32 0 -50 16t-18 47q0 32 18 48t50 16t51.5 -16t19.5 -48q0 -31 -19.5 -47t-51.5 -16z" />
    <glyph glyph-name="uni01D8" unicode="&#x1d8;" horiz-adv-x="630" 
d="M568 549v-549h-135l-23 70h-11q-25 -42 -66.5 -61t-89.5 -19q-51 0 -92 21t-65.5 65t-24.5 115v358h180v-311q0 -56 14 -85t48 -29q51 0 68 45t17 130v250h180zM264 739v13q24 28 44 63t40 69h186v-10q-20 -20 -46.5 -45.5t-54 -49.5t-50.5 -40h-119zM236 599
q-69 0 -69 63q0 64 69 64q32 0 51.5 -16t19.5 -48q0 -31 -19.5 -47t-51.5 -16zM426 599q-32 0 -50 16t-18 47q0 32 18 48t50 16t51.5 -16t19.5 -48q0 -31 -19.5 -47t-51.5 -16z" />
    <glyph glyph-name="uni01D9" unicode="&#x1d9;" horiz-adv-x="711" 
d="M643 714v-447q0 -81 -32 -143.5t-96.5 -98t-161.5 -35.5q-139 0 -212 74t-73 202v448h182v-429q0 -83 27 -117.5t79 -34.5q56 0 81 36.5t25 116.5v428h181zM302 910q-24 34 -49 64.5t-54 59.5v13h70q63 -29 109 -71q25 22 53.5 39.5t56.5 31.5h69v-13q-24 -26 -50.5 -58
t-51.5 -66h-153zM282 764q-69 0 -69 63q0 64 69 64q32 0 51.5 -16t19.5 -48q0 -31 -19.5 -47t-51.5 -16zM472 764q-32 0 -50 16t-18 47q0 32 18 48t50 16t51.5 -16t19.5 -48q0 -31 -19.5 -47t-51.5 -16z" />
    <glyph glyph-name="uni01DA" unicode="&#x1da;" horiz-adv-x="630" 
d="M568 549v-549h-135l-23 70h-11q-25 -42 -66.5 -61t-89.5 -19q-51 0 -92 21t-65.5 65t-24.5 115v358h180v-311q0 -56 14 -85t48 -29q51 0 68 45t17 130v250h180zM256 745q-24 34 -49 64.5t-54 59.5v13h70q63 -29 109 -71q25 22 53.5 39.5t56.5 31.5h69v-13
q-24 -26 -50.5 -58t-51.5 -66h-153zM236 599q-69 0 -69 63q0 64 69 64q32 0 51.5 -16t19.5 -48q0 -31 -19.5 -47t-51.5 -16zM426 599q-32 0 -50 16t-18 47q0 32 18 48t50 16t51.5 -16t19.5 -48q0 -31 -19.5 -47t-51.5 -16z" />
    <glyph glyph-name="uni01DB" unicode="&#x1db;" horiz-adv-x="711" 
d="M643 714v-447q0 -81 -32 -143.5t-96.5 -98t-161.5 -35.5q-139 0 -212 74t-73 202v448h182v-429q0 -83 27 -117.5t79 -34.5q56 0 81 36.5t25 116.5v428h181zM363 1049q19 -34 39 -69t44 -63v-13h-119q-23 16 -51 40t-54 49.5t-46 45.5v10h187zM283 891q31 0 50.5 -16
t19.5 -48q0 -31 -19.5 -47t-50.5 -16q-70 0 -70 63q0 64 70 64zM473 891q31 0 50.5 -16t19.5 -48q0 -31 -19.5 -47t-50.5 -16q-32 0 -50 16t-18 47q0 32 18 48t50 16z" />
    <glyph glyph-name="uni01DC" unicode="&#x1dc;" horiz-adv-x="630" 
d="M568 549v-549h-135l-23 70h-11q-25 -42 -66.5 -61t-89.5 -19q-51 0 -92 21t-65.5 65t-24.5 115v358h180v-311q0 -56 14 -85t48 -29q51 0 68 45t17 130v250h180zM317 884q19 -34 39 -69t44 -63v-13h-119q-23 16 -51 40t-54 49.5t-46 45.5v10h187zM237 726q31 0 50.5 -16
t19.5 -48q0 -31 -19.5 -47t-50.5 -16q-70 0 -70 63q0 64 70 64zM427 726q31 0 50.5 -16t19.5 -48q0 -31 -19.5 -47t-50.5 -16q-32 0 -50 16t-18 47q0 32 18 48t50 16z" />
    <glyph glyph-name="uni01DD" unicode="&#x1dd;" horiz-adv-x="580" 
d="M268 559q78 0 140 -30t97.5 -92.5t35.5 -158.5q0 -146 -70.5 -217t-185.5 -71q-114 0 -179.5 64t-65.5 186v78h320q-2 54 -30 86.5t-84 32.5q-48 0 -89 -10.5t-84 -32.5v125q37 19 82 29.5t113 10.5zM356 210h-154q1 -44 20 -73.5t56 -29.5q32 0 53 25t25 78z" />
    <glyph glyph-name="uni01DE" unicode="&#x1de;" horiz-adv-x="682" 
d="M484 0l-33 153h-218l-34 -153h-199l219 717h241l222 -717h-198zM414 295l-38 144q-8 33 -18 75t-17 84q-6 -42 -15.5 -84t-17.5 -75l-38 -144h144zM520 1026v-100h-332v100h332zM257 891q32 0 51.5 -16t19.5 -48q0 -31 -19.5 -47t-51.5 -16q-69 0 -69 63q0 64 69 64z
M447 891q32 0 51.5 -16t19.5 -48q0 -31 -19.5 -47t-51.5 -16t-50 16t-18 47q0 32 18 48t50 16z" />
    <glyph glyph-name="uni01DF" unicode="&#x1df;" horiz-adv-x="586" 
d="M316 560q99 0 154.5 -49.5t55.5 -146.5v-364h-124l-35 74h-4q-33 -44 -70 -64t-101 -20q-68 0 -113 43t-45 133q0 88 58 130.5t167 46.5l87 3v16q0 40 -17 58t-46 18q-31 0 -69 -11.5t-76 -28.5l-51 112q45 24 102 37t127 13zM347 250l-41 -2q-50 -2 -70 -22.5t-20 -55.5
q0 -32 14.5 -45.5t37.5 -13.5q32 0 55.5 25.5t23.5 69.5v44zM474 861v-100h-332v100h332zM211 726q32 0 51.5 -16t19.5 -48q0 -31 -19.5 -47t-51.5 -16q-69 0 -69 63q0 64 69 64zM401 726q32 0 51.5 -16t19.5 -48q0 -31 -19.5 -47t-51.5 -16t-50 16t-18 47q0 32 18 48t50 16
z" />
    <glyph glyph-name="uni01E0" unicode="&#x1e0;" horiz-adv-x="682" 
d="M484 0l-33 153h-218l-34 -153h-199l219 717h241l222 -717h-198zM414 295l-38 144q-8 33 -18 75t-17 84q-6 -42 -15.5 -84t-17.5 -75l-38 -144h144zM188 927v100h331v-100h-331zM353 891q31 0 50.5 -16.5t19.5 -48.5q0 -30 -19.5 -46.5t-50.5 -16.5q-33 0 -52 16.5
t-19 46.5q0 32 19 48.5t52 16.5z" />
    <glyph glyph-name="uni01E1" unicode="&#x1e1;" horiz-adv-x="586" 
d="M316 560q99 0 154.5 -49.5t55.5 -146.5v-364h-124l-35 74h-4q-33 -44 -70 -64t-101 -20q-68 0 -113 43t-45 133q0 88 58 130.5t167 46.5l87 3v16q0 40 -17 58t-46 18q-31 0 -69 -11.5t-76 -28.5l-51 112q45 24 102 37t127 13zM347 250l-41 -2q-50 -2 -70 -22.5t-20 -55.5
q0 -32 14.5 -45.5t37.5 -13.5q32 0 55.5 25.5t23.5 69.5v44zM473 864v-100h-331v100h331zM307 728q31 0 50.5 -16.5t19.5 -48.5q0 -30 -19.5 -46.5t-50.5 -16.5q-33 0 -52 16.5t-19 46.5q0 32 19 48.5t52 16.5z" />
    <glyph glyph-name="uni01E2" unicode="&#x1e2;" horiz-adv-x="889" 
d="M844 0h-399v153h-201l-46 -153h-202l289 714h559v-138h-217v-137h202v-138h-202v-161h217v-140zM300 296h145v273h-51zM678 880v-109h-333v109h333z" />
    <glyph glyph-name="uni01E3" unicode="&#x1e3;" horiz-adv-x="879" 
d="M614 559q66 0 117 -28.5t80 -84.5t29 -138v-77h-320q2 -53 32 -85.5t88 -32.5q36 0 79 9.5t88 32.5v-125q-38 -21 -81 -30.5t-110 -9.5q-59 0 -110.5 24t-86.5 73q-32 -35 -61 -56.5t-65.5 -31t-93.5 -9.5q-43 0 -80.5 19t-61 58t-23.5 100q0 89 63 130.5t165 45.5l85 3
v26q0 36 -18.5 51t-43.5 15q-32 0 -70 -10.5t-74 -27.5l-51 111q44 23 97.5 36t110.5 13q92 0 154 -56q32 28 70 41.5t92 13.5zM604 442q-33 0 -55.5 -24t-25.5 -78h156q-1 43 -20 72.5t-55 29.5zM347 250l-38 -2q-53 -2 -72.5 -23.5t-19.5 -56.5q0 -32 14.5 -44.5
t37.5 -12.5q31 0 54.5 25.5t23.5 69.5v44zM620 715v-109h-333v109h333z" />
    <glyph glyph-name="uni01E4" unicode="&#x1e4;" horiz-adv-x="681" 
d="M367 -10q-92 0 -163 39.5t-111 119t-40 200.5q0 117 41 201t120.5 129t192.5 45q53 0 106 -12.5t94 -31.5l-55 -136q-26 15 -70 26t-84 11q-79 0 -117.5 -60.5t-38.5 -170.5q0 -119 34 -174t99 -55q15 0 26.5 2t24.5 6v40h-93v106h93v43h-93v115h273v-158h61v-106h-61
v-138q-47 -17 -104.5 -29t-134.5 -12z" />
    <glyph glyph-name="uni01E5" unicode="&#x1e5;" horiz-adv-x="611" 
d="M235 559q85 0 136 -76h4l13 66h154v-550h48v-85h-58q-26 -79 -88.5 -116.5t-173.5 -37.5q-54 0 -105 7t-100 25v124q50 -21 95 -30.5t97 -9.5q31 0 55 9t33 29h-125v85h139v46q0 15 1 34.5t3 33.5h-4q-25 -42 -59.5 -60t-75.5 -18q-88 0 -138 65t-50 192q0 128 55 197.5
t144 69.5zM295 422q-35 0 -54.5 -32t-19.5 -98q0 -68 20 -99.5t57 -31.5q34 0 54.5 25t20.5 85v13q0 76 -20 107t-58 31z" />
    <glyph glyph-name="uni01E6" unicode="&#x1e6;" horiz-adv-x="695" 
d="M342 409h289v-377q-53 -19 -119 -30.5t-140 -11.5q-97 0 -170 41t-113.5 123t-40.5 204q0 112 40.5 194t119 127t193.5 45q62 0 118.5 -12t97.5 -32l-57 -135q-36 17 -75 27.5t-83 10.5q-61 0 -97.5 -29.5t-53 -81t-16.5 -117.5q0 -103 39 -163.5t113 -60.5q16 0 39 3
t36 6v132h-120v137zM590 931v-13q-16 -18 -37.5 -44t-43 -53.5t-36.5 -49.5h-181q-14 22 -35 49.5t-43 53t-40 44.5v13h118q25 -16 45 -35.5t45 -44.5q24 25 45.5 44.5t46.5 35.5h116z" />
    <glyph glyph-name="uni01E7" unicode="&#x1e7;" horiz-adv-x="605" 
d="M228 559q55 0 88.5 -21t53.5 -58h4l13 69h155v-550q0 -117 -68 -178t-209 -61q-63 0 -111 7t-92 25v137q47 -21 89.5 -31.5t103.5 -10.5q108 0 108 105v11q0 14 1.5 32.5t4.5 35.5h-6q-18 -38 -51 -59.5t-86 -21.5q-83 0 -134.5 74t-51.5 210q0 137 52.5 211t135.5 74z
M296 426q-74 0 -74 -155q0 -77 18.5 -113.5t57.5 -36.5q44 0 61.5 31.5t17.5 101.5v21q0 77 -16.5 114t-64.5 37zM503 766v-13q-16 -18 -37.5 -44t-43 -53.5t-36.5 -49.5h-181q-14 22 -35 49.5t-43 53t-40 44.5v13h118q25 -16 45 -35.5t45 -44.5q24 25 45.5 44.5t46.5 35.5
h116z" />
    <glyph glyph-name="uni01E8" unicode="&#x1e8;" horiz-adv-x="646" 
d="M646 0h-205l-132 288l-54 -40v-248h-182v714h182v-319q11 22 26 44t28 44l143 231h197l-211 -318zM546 931v-13q-16 -18 -37.5 -44t-43 -53.5t-36.5 -49.5h-181q-14 22 -35 49.5t-43 53t-40 44.5v13h118q25 -16 45 -35.5t45 -44.5q24 25 45.5 44.5t46.5 35.5h116z" />
    <glyph glyph-name="uni01E9" unicode="&#x1e9;" horiz-adv-x="619" 
d="M242 760v-321q0 -32 -3 -68t-7 -68h4q7 19 22.5 41t32.5 44l118 161h199l-181 -236l192 -313h-204l-115 210l-58 -49v-161h-180v760h180zM350 977v-13q-16 -18 -37.5 -44t-43 -53.5t-36.5 -49.5h-181q-14 22 -35 49.5t-43 53t-40 44.5v13h118q25 -16 45 -35.5t45 -44.5
q24 25 45.5 44.5t46.5 35.5h116z" />
    <glyph glyph-name="uni01EA" unicode="&#x1ea;" horiz-adv-x="749" 
d="M700 358q0 -111 -33.5 -193.5t-105 -128.5t-187.5 -46q-112 0 -184.5 46t-107 129t-34.5 194t34.5 193t107 127.5t185.5 45.5q115 0 186.5 -45.5t105 -128t33.5 -193.5zM238 358q0 -105 31.5 -165t104.5 -60q74 0 105 60t31 165t-31 165.5t-104 60.5q-74 0 -105.5 -60.5
t-31.5 -165.5zM407 -105q0 -36 35 -36q12 0 28.5 3t25.5 7v-97q-15 -5 -34.5 -8.5t-44.5 -3.5q-53 0 -90 31t-37 81q0 39 22.5 76.5t84.5 72.5l70 -21q-31 -32 -45.5 -56t-14.5 -49z" />
    <glyph glyph-name="uni01EB" unicode="&#x1eb;" horiz-adv-x="598" 
d="M558 276q0 -138 -69 -212t-191 -74q-75 0 -133.5 33t-91.5 97t-33 156q0 136 69.5 209.5t191.5 73.5q75 0 133 -33t91 -96t33 -154zM222 276q0 -76 17.5 -116t60.5 -40q42 0 59 40t17 116t-17 114.5t-60 38.5q-41 0 -59 -38.5t-18 -114.5zM313 -105q0 -36 35 -36
q12 0 28.5 3t25.5 7v-97q-15 -5 -34.5 -8.5t-44.5 -3.5q-53 0 -90 31t-37 81q0 39 22.5 76.5t84.5 72.5l70 -21q-31 -32 -45.5 -56t-14.5 -49z" />
    <glyph glyph-name="uni01EC" unicode="&#x1ec;" horiz-adv-x="749" 
d="M700 358q0 -111 -33.5 -193.5t-105 -128.5t-187.5 -46q-112 0 -184.5 46t-107 129t-34.5 194t34.5 193t107 127.5t185.5 45.5q115 0 186.5 -45.5t105 -128t33.5 -193.5zM238 358q0 -105 31.5 -165t104.5 -60q74 0 105 60t31 165t-31 165.5t-104 60.5q-74 0 -105.5 -60.5
t-31.5 -165.5zM545 880v-109h-333v109h333zM406 -105q0 -36 35 -36q12 0 28.5 3t25.5 7v-97q-15 -5 -34.5 -8.5t-44.5 -3.5q-53 0 -90 31t-37 81q0 39 22.5 76.5t84.5 72.5l70 -21q-31 -32 -45.5 -56t-14.5 -49z" />
    <glyph glyph-name="uni01ED" unicode="&#x1ed;" horiz-adv-x="598" 
d="M558 276q0 -138 -69 -212t-191 -74q-75 0 -133.5 33t-91.5 97t-33 156q0 136 69.5 209.5t191.5 73.5q75 0 133 -33t91 -96t33 -154zM222 276q0 -76 17.5 -116t60.5 -40q42 0 59 40t17 116t-17 114.5t-60 38.5q-41 0 -59 -38.5t-18 -114.5zM461 715v-109h-333v109h333z
M315 -105q0 -36 35 -36q12 0 28.5 3t25.5 7v-97q-15 -5 -34.5 -8.5t-44.5 -3.5q-53 0 -90 31t-37 81q0 39 22.5 76.5t84.5 72.5l70 -21q-31 -32 -45.5 -56t-14.5 -49z" />
    <glyph glyph-name="uni01EE" unicode="&#x1ee;" horiz-adv-x="596" 
d="M513 714v-107l-184 -188q106 -6 165 -60.5t59 -145.5q0 -65 -32.5 -115t-99.5 -79t-172 -29q-61 0 -115 10t-100 29v146q48 -24 103 -35.5t98 -11.5q78 0 105 26t27 67q0 25 -14.5 43.5t-53.5 29t-113 10.5h-52v117l141 153h-216v140h454zM485 931v-13q-16 -18 -37.5 -44
t-43 -53.5t-36.5 -49.5h-181q-14 22 -35 49.5t-43 53t-40 44.5v13h118q25 -16 45 -35.5t45 -44.5q24 25 45.5 44.5t46.5 35.5h116z" />
    <glyph glyph-name="uni01EF" unicode="&#x1ef;" horiz-adv-x="570" 
d="M517 549v-106l-194 -192q105 -13 158 -78t53 -156q0 -75 -32 -133t-99.5 -91t-175.5 -33q-73 0 -122 10t-95 29v144q45 -23 99.5 -35.5t109.5 -12.5q73 0 103.5 35.5t30.5 83.5q0 33 -12.5 60.5t-49 44t-109.5 16.5h-62v113l166 172h-249v129h480zM481 766v-13
q-16 -18 -37.5 -44t-43 -53.5t-36.5 -49.5h-181q-14 22 -35 49.5t-43 53t-40 44.5v13h118q25 -16 45 -35.5t45 -44.5q24 25 45.5 44.5t46.5 35.5h116z" />
    <glyph glyph-name="uni01F0" unicode="&#x1f0;" horiz-adv-x="305" 
d="M48 -240q-21 0 -49.5 3.5t-46.5 8.5v132q15 -4 27.5 -6.5t28.5 -2.5q22 0 38 16.5t16 66.5v571h179v-602q0 -50 -18.5 -92.5t-60.5 -68.5t-114 -26zM347 766v-13q-16 -18 -37.5 -44t-43 -53.5t-36.5 -49.5h-181q-14 22 -35 49.5t-43 53t-40 44.5v13h118q25 -16 45 -35.5
t45 -44.5q24 25 45.5 44.5t46.5 35.5h116z" />
    <glyph glyph-name="uni01F1" unicode="&#x1f1;" horiz-adv-x="1255" 
d="M642 368q0 -123 -43.5 -204.5t-123 -122.5t-186.5 -41h-216v714h232q162 0 249.5 -88.5t87.5 -257.5zM455 362q0 109 -37.5 161t-110.5 52h-53v-435h40q83 0 122 55.5t39 166.5zM1231 0h-522v108l291 467h-284v139h508v-108l-291 -467h298v-139z" />
    <glyph glyph-name="uni01F2" unicode="&#x1f2;" horiz-adv-x="1167" 
d="M642 368q0 -123 -43.5 -204.5t-123 -122.5t-186.5 -41h-216v714h232q162 0 249.5 -88.5t87.5 -257.5zM455 362q0 109 -37.5 161t-110.5 52h-53v-435h40q83 0 122 55.5t39 166.5zM1143 0h-430v98l216 322h-204v129h407v-106l-205 -314h216v-129z" />
    <glyph glyph-name="uni01F3" unicode="&#x1f3;" horiz-adv-x="1081" 
d="M224 -10q-80 0 -132 72t-52 212q0 141 53 213t137 72q53 0 84.5 -23t52.5 -57h3q-3 18 -5.5 51.5t-2.5 66.5v163h180v-760h-135l-38 71h-7q-19 -34 -51.5 -57.5t-86.5 -23.5zM297 124q43 0 61.5 33t18.5 100v15q0 74 -17.5 112.5t-64.5 38.5q-33 0 -53.5 -38t-20.5 -114
q0 -75 20.5 -111t55.5 -36zM1058 0h-430v98l216 322h-204v129h407v-106l-205 -314h216v-129z" />
    <glyph glyph-name="uni01F4" unicode="&#x1f4;" horiz-adv-x="695" 
d="M342 409h289v-377q-53 -19 -119 -30.5t-140 -11.5q-97 0 -170 41t-113.5 123t-40.5 204q0 112 40.5 194t119 127t193.5 45q62 0 118.5 -12t97.5 -32l-57 -135q-36 17 -75 27.5t-83 10.5q-61 0 -97.5 -29.5t-53 -81t-16.5 -117.5q0 -103 39 -163.5t113 -60.5q16 0 39 3
t36 6v132h-120v137zM569 931v-10q-17 -14 -42.5 -34t-54 -42t-55.5 -41.5t-46 -32.5h-119v13q16 19 38.5 44.5t45 53t37.5 49.5h196z" />
    <glyph glyph-name="uni01F5" unicode="&#x1f5;" horiz-adv-x="605" 
d="M228 559q55 0 88.5 -21t53.5 -58h4l13 69h155v-550q0 -117 -68 -178t-209 -61q-63 0 -111 7t-92 25v137q47 -21 89.5 -31.5t103.5 -10.5q108 0 108 105v11q0 14 1.5 32.5t4.5 35.5h-6q-18 -38 -51 -59.5t-86 -21.5q-83 0 -134.5 74t-51.5 210q0 137 52.5 211t135.5 74z
M296 426q-74 0 -74 -155q0 -77 18.5 -113.5t57.5 -36.5q44 0 61.5 31.5t17.5 101.5v21q0 77 -16.5 114t-64.5 37zM488 766v-10q-17 -14 -42.5 -34t-54 -42t-55.5 -41.5t-46 -32.5h-119v13q16 19 38.5 44.5t45 53t37.5 49.5h196z" />
    <glyph glyph-name="uni01F6" unicode="&#x1f6;" horiz-adv-x="1015" 
d="M80 0v714h183v-272h166v272h185v-472q0 -61 15 -88.5t53 -27.5q39 0 55 28.5t16 101.5v293h186v-295q0 -130 -60.5 -198t-194.5 -68q-138 0 -196.5 57.5t-58.5 180.5v73h-166v-299h-183z" />
    <glyph glyph-name="uni01F7" unicode="&#x1f7;" horiz-adv-x="673" 
d="M420 725q100 0 155 -68t55 -197q0 -95 -39 -184.5t-120 -160t-207 -109.5v-246h-184v954h139l28 -90h6q13 24 33.5 47.5t53 38.5t80.5 15zM359 582q-50 0 -72.5 -49t-22.5 -142v-232q48 23 89 66.5t66 102.5t25 128q0 60 -21 93t-64 33z" />
    <glyph glyph-name="uni01F8" unicode="&#x1f8;" horiz-adv-x="785" 
d="M712 0h-237l-246 523h-4q0 -19 2 -51t4.5 -69.5t2.5 -72.5v-330h-161v714h236l245 -517h3q0 18 -1.5 49t-3.5 67.5t-2 69.5v331h162v-714zM411 931q16 -22 38 -49.5t44.5 -53t37.5 -44.5v-13h-119q-19 13 -45.5 32.5t-55.5 41.5t-54.5 42t-42.5 34v10h197z" />
    <glyph glyph-name="uni01F9" unicode="&#x1f9;" horiz-adv-x="630" 
d="M387 559q81 0 132 -47.5t51 -153.5v-358h-179v311q0 57 -15 86t-49 29q-51 0 -68 -45.5t-17 -130.5v-250h-180v549h135l25 -71h7q49 81 158 81zM333 766q16 -22 38 -49.5t44.5 -53t37.5 -44.5v-13h-119q-19 13 -45.5 32.5t-55.5 41.5t-54.5 42t-42.5 34v10h197z" />
    <glyph glyph-name="Aringacute" unicode="&#x1fa;" horiz-adv-x="680" 
d="M262 864v10q20 16 42.5 40t37.5 44h197v-8q-7 -8 -26.5 -19.5t-43.5 -24t-47.5 -24t-40.5 -18.5h-119zM0 0l222 662q-2 12 -3 26t-1 30q0 56 33.5 87.5t87.5 31.5q52 0 88.5 -31.5t36.5 -86.5q0 -34 -6 -58l224 -661h-198l-36 149h-215l-34 -149h-199zM339 674
q17 0 28 11.5t11 32.5q0 20 -11 32t-28 12q-16 0 -27 -12t-11 -32t9.5 -32t28.5 -12zM273 291h139l-32 123q-4 18 -12 46.5t-15.5 58t-11.5 49.5q-4 -20 -11 -50t-14 -59t-11 -45z" />
    <glyph glyph-name="aringacute" unicode="&#x1fb;" horiz-adv-x="586" 
d="M473 961v-6q-10 -11 -36 -29.5t-56.5 -37t-51.5 -29.5h-116v8q19 19 42 45.5t38 48.5h180zM300 826q52 0 88.5 -32t36.5 -87q0 -56 -36.5 -88t-88.5 -32q-54 0 -87.5 31.5t-33.5 87.5t33.5 88t87.5 32zM300 750q-16 0 -27 -12t-11 -32t9.5 -32t28.5 -12q16 0 27 12t11 32
t-11 32t-27 12zM316 560q99 0 154.5 -49.5t55.5 -146.5v-364h-124l-35 74h-4q-33 -44 -70 -64t-101 -20q-68 0 -113 43t-45 134q0 89 56 130.5t169 45.5l87 3v16q0 40 -17 58t-46 18q-31 0 -69 -11.5t-76 -28.5l-51 112q45 24 102 37t127 13zM347 250l-41 -2
q-50 -2 -69.5 -23.5t-19.5 -56.5q0 -32 14 -44.5t37 -12.5q32 0 55.5 25.5t23.5 69.5v44z" />
    <glyph glyph-name="AEacute" unicode="&#x1fc;" horiz-adv-x="889" 
d="M844 0h-399v153h-201l-46 -153h-202l289 714h559v-138h-217v-137h202v-138h-202v-161h217v-140zM300 296h145v273h-51zM705 931v-10q-17 -14 -42.5 -34t-54 -42t-55.5 -41.5t-46 -32.5h-119v13q16 19 38.5 44.5t45 53t37.5 49.5h196z" />
    <glyph glyph-name="aeacute" unicode="&#x1fd;" horiz-adv-x="879" 
d="M614 559q66 0 117 -28.5t80 -84.5t29 -138v-77h-320q2 -53 32 -85.5t88 -32.5q36 0 79 9.5t88 32.5v-125q-38 -21 -81 -30.5t-110 -9.5q-59 0 -110.5 24t-86.5 73q-32 -35 -61 -56.5t-65.5 -31t-93.5 -9.5q-43 0 -80.5 19t-61 58t-23.5 100q0 89 63 130.5t165 45.5l85 3
v26q0 36 -18.5 51t-43.5 15q-32 0 -70 -10.5t-74 -27.5l-51 111q44 23 97.5 36t110.5 13q92 0 154 -56q32 28 70 41.5t92 13.5zM604 442q-33 0 -55.5 -24t-25.5 -78h156q-1 43 -20 72.5t-55 29.5zM347 250l-38 -2q-53 -2 -72.5 -23.5t-19.5 -56.5q0 -32 14.5 -44.5
t37.5 -12.5q31 0 54.5 25.5t23.5 69.5v44zM645 772v-10q-17 -14 -42.5 -34t-54 -42t-55.5 -41.5t-46 -32.5h-119v13q16 19 38.5 44.5t45 53t37.5 49.5h196z" />
    <glyph glyph-name="Oslashacute" unicode="&#x1fe;" horiz-adv-x="749" 
d="M700 358q0 -111 -33.5 -193.5t-105 -128.5t-187.5 -46q-79 0 -142 27l-38 -65l-88 57l39 63q-50 49 -73.5 122t-23.5 165q0 111 34.5 193t107 127.5t185.5 45.5q87 0 151 -31l35 60l87 -53l-38 -63q47 -48 68.5 -120t21.5 -160zM238 358q0 -40 3 -74t10 -61l186 343
q-29 18 -62 18q-74 0 -105.5 -60.5t-31.5 -165.5zM510 358q0 75 -9 126l-181 -338q24 -13 54 -13q74 0 105 60t31 165zM571 971v-10q-17 -14 -42.5 -34t-54 -42t-55.5 -41.5t-46 -32.5h-119v13q16 19 38.5 44.5t45 53t37.5 49.5h196z" />
    <glyph glyph-name="oslashacute" unicode="&#x1ff;" horiz-adv-x="624" 
d="M584 276q0 -138 -73 -212t-200 -74q-56 0 -105 20l-39 -56l-78 51l37 54q-40 37 -63 91.5t-23 125.5q0 136 73 209.5t201 73.5q57 0 107 -22l33 46l77 -52l-32 -45q40 -36 62.5 -89t22.5 -121zM211 276q0 -22 1 -41t5 -36l133 226q-18 9 -38 9q-56 0 -78.5 -39.5
t-22.5 -118.5zM413 276q0 19 -1.5 35.5t-3.5 31.5l-130 -222q8 -3 16.5 -4t18.5 -1q57 0 78.5 40.5t21.5 119.5zM507 800v-10q-17 -14 -42.5 -34t-54 -42t-55.5 -41.5t-46 -32.5h-119v13q16 19 38.5 44.5t45 53t37.5 49.5h196z" />
    <glyph glyph-name="uni0200" unicode="&#x200;" horiz-adv-x="682" 
d="M484 0l-33 153h-218l-34 -153h-199l219 717h241l222 -717h-198zM414 295l-38 144q-8 33 -18 75t-17 84q-6 -42 -15.5 -84t-17.5 -75l-38 -144h144zM418 931q14 -34 36.5 -76t42.5 -71v-13h-92q-16 14 -37.5 33.5t-43 41.5t-38.5 42t-25 33v10h157zM225 931q14 -34 36 -76
t42 -71v-13h-93q-16 14 -37 33.5t-42.5 41.5t-38.5 42t-24 33v10h157z" />
    <glyph glyph-name="uni0201" unicode="&#x201;" horiz-adv-x="586" 
d="M316 560q99 0 154.5 -49.5t55.5 -146.5v-364h-124l-35 74h-4q-33 -44 -70 -64t-101 -20q-68 0 -113 43t-45 133q0 88 58 130.5t167 46.5l87 3v16q0 40 -17 58t-46 18q-31 0 -69 -11.5t-76 -28.5l-51 112q45 24 102 37t127 13zM347 250l-41 -2q-50 -2 -70 -22.5t-20 -55.5
q0 -32 14.5 -45.5t37.5 -13.5q32 0 55.5 25.5t23.5 69.5v44zM370 772q14 -34 36.5 -76t42.5 -71v-13h-92q-16 14 -37.5 33.5t-43 41.5t-38.5 42t-25 33v10h157zM177 772q14 -34 36 -76t42 -71v-13h-93q-16 14 -37 33.5t-42.5 41.5t-38.5 42t-24 33v10h157z" />
    <glyph glyph-name="uni0202" unicode="&#x202;" horiz-adv-x="682" 
d="M484 0l-33 153h-218l-34 -153h-199l219 717h241l222 -717h-198zM414 295l-38 144q-8 33 -18 75t-17 84q-6 -42 -15.5 -84t-17.5 -75l-38 -144h144zM343 945q89 0 143 -47t58 -127h-96q-2 28 -17 41t-39 16.5t-49 3.5q-21 0 -44.5 -4.5t-41 -17.5t-20.5 -39h-98
q3 51 30 90.5t72 61.5t102 22z" />
    <glyph glyph-name="uni0203" unicode="&#x203;" horiz-adv-x="586" 
d="M316 560q99 0 154.5 -49.5t55.5 -146.5v-364h-124l-35 74h-4q-33 -44 -70 -64t-101 -20q-68 0 -113 43t-45 133q0 88 58 130.5t167 46.5l87 3v16q0 40 -17 58t-46 18q-31 0 -69 -11.5t-76 -28.5l-51 112q45 24 102 37t127 13zM347 250l-41 -2q-50 -2 -70 -22.5t-20 -55.5
q0 -32 14.5 -45.5t37.5 -13.5q32 0 55.5 25.5t23.5 69.5v44zM296 786q89 0 143 -47t58 -127h-96q-2 28 -17 41t-39 16.5t-49 3.5q-21 0 -44.5 -4.5t-41 -17.5t-20.5 -39h-98q3 51 30 90.5t72 61.5t102 22z" />
    <glyph glyph-name="uni0204" unicode="&#x204;" horiz-adv-x="516" 
d="M471 0h-398v714h398v-138h-217v-137h201v-138h-201v-161h217v-140zM349 931q14 -34 36.5 -76t42.5 -71v-13h-92q-16 14 -37.5 33.5t-43 41.5t-38.5 42t-25 33v10h157zM156 931q14 -34 36 -76t42 -71v-13h-93q-16 14 -37 33.5t-42.5 41.5t-38.5 42t-24 33v10h157z" />
    <glyph glyph-name="uni0205" unicode="&#x205;" horiz-adv-x="580" 
d="M297 559q113 0 178.5 -63.5t65.5 -186.5v-78h-320q1 -54 29.5 -86t83.5 -32q50 0 90.5 10t83.5 32v-125q-38 -21 -83 -30.5t-112 -9.5q-78 0 -140 30t-97.5 92t-35.5 159q0 146 71 217t186 71zM302 442q-32 0 -53 -25t-25 -77h155q-1 44 -20 73t-57 29zM367 766
q14 -34 36.5 -76t42.5 -71v-13h-92q-16 14 -37.5 33.5t-43 41.5t-38.5 42t-25 33v10h157zM174 766q14 -34 36 -76t42 -71v-13h-93q-16 14 -37 33.5t-42.5 41.5t-38.5 42t-24 33v10h157z" />
    <glyph glyph-name="uni0206" unicode="&#x206;" horiz-adv-x="516" 
d="M471 0h-398v714h398v-138h-217v-137h201v-138h-201v-161h217v-140zM274 945q89 0 143 -47t58 -127h-96q-2 28 -17 41t-39 16.5t-49 3.5q-21 0 -44.5 -4.5t-41 -17.5t-20.5 -39h-98q3 51 30 90.5t72 61.5t102 22z" />
    <glyph glyph-name="uni0207" unicode="&#x207;" horiz-adv-x="580" 
d="M297 559q113 0 178.5 -63.5t65.5 -186.5v-78h-320q1 -54 29.5 -86t83.5 -32q50 0 90.5 10t83.5 32v-125q-38 -21 -83 -30.5t-112 -9.5q-78 0 -140 30t-97.5 92t-35.5 159q0 146 71 217t186 71zM302 442q-32 0 -53 -25t-25 -77h155q-1 44 -20 73t-57 29zM292 780
q89 0 143 -47t58 -127h-96q-2 28 -17 41t-39 16.5t-49 3.5q-21 0 -44.5 -4.5t-41 -17.5t-20.5 -39h-98q3 51 30 90.5t72 61.5t102 22z" />
    <glyph glyph-name="uni0208" unicode="&#x208;" horiz-adv-x="413" 
d="M381 0h-349v97l84 37v446l-84 37v97h349v-97l-83 -37v-446l83 -37v-97zM283 931q14 -34 36.5 -76t42.5 -71v-13h-92q-16 14 -37.5 33.5t-43 41.5t-38.5 42t-25 33v10h157zM90 931q14 -34 36 -76t42 -71v-13h-93q-16 14 -37 33.5t-42.5 41.5t-38.5 42t-24 33v10h157z" />
    <glyph glyph-name="uni0209" unicode="&#x209;" horiz-adv-x="305" 
d="M242 0h-179v549h179v-549zM229 766q14 -34 36.5 -76t42.5 -71v-13h-92q-16 14 -37.5 33.5t-43 41.5t-38.5 42t-25 33v10h157zM36 766q14 -34 36 -76t42 -71v-13h-93q-16 14 -37 33.5t-42.5 41.5t-38.5 42t-24 33v10h157z" />
    <glyph glyph-name="uni020A" unicode="&#x20a;" horiz-adv-x="413" 
d="M381 0h-349v97l84 37v446l-84 37v97h349v-97l-83 -37v-446l83 -37v-97zM209 945q89 0 143 -47t58 -127h-96q-2 28 -17 41t-39 16.5t-49 3.5q-21 0 -44.5 -4.5t-41 -17.5t-20.5 -39h-98q3 51 30 90.5t72 61.5t102 22z" />
    <glyph glyph-name="uni020B" unicode="&#x20b;" horiz-adv-x="305" 
d="M242 0h-179v549h179v-549zM155 780q89 0 143 -47t58 -127h-96q-2 28 -17 41t-39 16.5t-49 3.5q-21 0 -44.5 -4.5t-41 -17.5t-20.5 -39h-98q3 51 30 90.5t72 61.5t102 22z" />
    <glyph glyph-name="uni020C" unicode="&#x20c;" horiz-adv-x="749" 
d="M700 358q0 -111 -33.5 -193.5t-105 -128.5t-187.5 -46q-112 0 -184.5 46t-107 129t-34.5 194t34.5 193t107 127.5t185.5 45.5q115 0 186.5 -45.5t105 -128t33.5 -193.5zM238 358q0 -105 31.5 -165t104.5 -60q74 0 105 60t31 165t-31 165.5t-104 60.5q-74 0 -105.5 -60.5
t-31.5 -165.5zM451 942q14 -34 36.5 -76t42.5 -71v-13h-92q-16 14 -37.5 33.5t-43 41.5t-38.5 42t-25 33v10h157zM258 942q14 -34 36 -76t42 -71v-13h-93q-16 14 -37 33.5t-42.5 41.5t-38.5 42t-24 33v10h157z" />
    <glyph glyph-name="uni020D" unicode="&#x20d;" horiz-adv-x="598" 
d="M558 276q0 -138 -69 -212t-191 -74q-75 0 -133.5 33t-91.5 97t-33 156q0 136 69.5 209.5t191.5 73.5q75 0 133 -33t91 -96t33 -154zM222 276q0 -76 17.5 -116t60.5 -40q42 0 59 40t17 116t-17 114.5t-60 38.5q-41 0 -59 -38.5t-18 -114.5zM377 766q14 -34 36.5 -76
t42.5 -71v-13h-92q-16 14 -37.5 33.5t-43 41.5t-38.5 42t-25 33v10h157zM184 766q14 -34 36 -76t42 -71v-13h-93q-16 14 -37 33.5t-42.5 41.5t-38.5 42t-24 33v10h157z" />
    <glyph glyph-name="uni020E" unicode="&#x20e;" horiz-adv-x="749" 
d="M700 358q0 -111 -33.5 -193.5t-105 -128.5t-187.5 -46q-112 0 -184.5 46t-107 129t-34.5 194t34.5 193t107 127.5t185.5 45.5q115 0 186.5 -45.5t105 -128t33.5 -193.5zM238 358q0 -105 31.5 -165t104.5 -60q74 0 105 60t31 165t-31 165.5t-104 60.5q-74 0 -105.5 -60.5
t-31.5 -165.5zM376 956q89 0 143 -47t58 -127h-96q-2 28 -17 41t-39 16.5t-49 3.5q-21 0 -44.5 -4.5t-41 -17.5t-20.5 -39h-98q3 51 30 90.5t72 61.5t102 22z" />
    <glyph glyph-name="uni020F" unicode="&#x20f;" horiz-adv-x="598" 
d="M558 276q0 -138 -69 -212t-191 -74q-75 0 -133.5 33t-91.5 97t-33 156q0 136 69.5 209.5t191.5 73.5q75 0 133 -33t91 -96t33 -154zM222 276q0 -76 17.5 -116t60.5 -40q42 0 59 40t17 116t-17 114.5t-60 38.5q-41 0 -59 -38.5t-18 -114.5zM302 780q89 0 143 -47t58 -127
h-96q-2 28 -17 41t-39 16.5t-49 3.5q-21 0 -44.5 -4.5t-41 -17.5t-20.5 -39h-98q3 51 30 90.5t72 61.5t102 22z" />
    <glyph glyph-name="uni0210" unicode="&#x210;" horiz-adv-x="636" 
d="M293 714q273 0 273 -213q0 -70 -30.5 -116t-83.5 -74l195 -311h-204l-142 268h-47v-268h-181v714h220zM290 580h-36v-179h34q41 0 68 22.5t27 71.5q0 43 -21.5 64t-71.5 21zM396 931q14 -34 36.5 -76t42.5 -71v-13h-92q-16 14 -37.5 33.5t-43 41.5t-38.5 42t-25 33v10
h157zM203 931q14 -34 36 -76t42 -71v-13h-93q-16 14 -37 33.5t-42.5 41.5t-38.5 42t-24 33v10h157z" />
    <glyph glyph-name="uni0211" unicode="&#x211;" horiz-adv-x="441" 
d="M376 559q15 0 31 -1.5t24 -3.5l-16 -158q-10 2 -23.5 3.5t-37.5 1.5q-23 0 -49 -10.5t-44.5 -37.5t-18.5 -78v-275h-180v549h134l28 -90h8q22 41 60.5 70.5t83.5 29.5zM328 766q14 -34 36.5 -76t42.5 -71v-13h-92q-16 14 -37.5 33.5t-43 41.5t-38.5 42t-25 33v10h157z
M135 766q14 -34 36 -76t42 -71v-13h-93q-16 14 -37 33.5t-42.5 41.5t-38.5 42t-24 33v10h157z" />
    <glyph glyph-name="uni0212" unicode="&#x212;" horiz-adv-x="636" 
d="M293 714q273 0 273 -213q0 -70 -30.5 -116t-83.5 -74l195 -311h-204l-142 268h-47v-268h-181v714h220zM290 580h-36v-179h34q41 0 68 22.5t27 71.5q0 43 -21.5 64t-71.5 21zM321 945q89 0 143 -47t58 -127h-96q-2 28 -17 41t-39 16.5t-49 3.5q-21 0 -44.5 -4.5t-41 -17.5
t-20.5 -39h-98q3 51 30 90.5t72 61.5t102 22z" />
    <glyph glyph-name="uni0213" unicode="&#x213;" horiz-adv-x="441" 
d="M376 559q15 0 31 -1.5t24 -3.5l-16 -158q-10 2 -23.5 3.5t-37.5 1.5q-23 0 -49 -10.5t-44.5 -37.5t-18.5 -78v-275h-180v549h134l28 -90h8q22 41 60.5 70.5t83.5 29.5zM253 780q89 0 143 -47t58 -127h-96q-2 28 -17 41t-39 16.5t-49 3.5q-21 0 -44.5 -4.5t-41 -17.5
t-20.5 -39h-98q3 51 30 90.5t72 61.5t102 22z" />
    <glyph glyph-name="uni0214" unicode="&#x214;" horiz-adv-x="711" 
d="M643 714v-447q0 -81 -32 -143.5t-96.5 -98t-161.5 -35.5q-139 0 -212 74t-73 202v448h182v-429q0 -83 27 -117.5t79 -34.5q56 0 81 36.5t25 116.5v428h181zM433 931q14 -34 36.5 -76t42.5 -71v-13h-92q-16 14 -37.5 33.5t-43 41.5t-38.5 42t-25 33v10h157zM240 931
q14 -34 36 -76t42 -71v-13h-93q-16 14 -37 33.5t-42.5 41.5t-38.5 42t-24 33v10h157z" />
    <glyph glyph-name="uni0215" unicode="&#x215;" horiz-adv-x="630" 
d="M568 549v-549h-135l-23 70h-11q-25 -42 -66.5 -61t-89.5 -19q-51 0 -92 21t-65.5 65t-24.5 115v358h180v-311q0 -56 14 -85t48 -29q51 0 68 45t17 130v250h180zM391 766q14 -34 36.5 -76t42.5 -71v-13h-92q-16 14 -37.5 33.5t-43 41.5t-38.5 42t-25 33v10h157zM198 766
q14 -34 36 -76t42 -71v-13h-93q-16 14 -37 33.5t-42.5 41.5t-38.5 42t-24 33v10h157z" />
    <glyph glyph-name="uni0216" unicode="&#x216;" horiz-adv-x="711" 
d="M643 714v-447q0 -81 -32 -143.5t-96.5 -98t-161.5 -35.5q-139 0 -212 74t-73 202v448h182v-429q0 -83 27 -117.5t79 -34.5q56 0 81 36.5t25 116.5v428h181zM358 945q89 0 143 -47t58 -127h-96q-2 28 -17 41t-39 16.5t-49 3.5q-21 0 -44.5 -4.5t-41 -17.5t-20.5 -39h-98
q3 51 30 90.5t72 61.5t102 22z" />
    <glyph glyph-name="uni0217" unicode="&#x217;" horiz-adv-x="630" 
d="M568 549v-549h-135l-23 70h-11q-25 -42 -66.5 -61t-89.5 -19q-51 0 -92 21t-65.5 65t-24.5 115v358h180v-311q0 -56 14 -85t48 -29q51 0 68 45t17 130v250h180zM317 780q89 0 143 -47t58 -127h-96q-2 28 -17 41t-39 16.5t-49 3.5q-21 0 -44.5 -4.5t-41 -17.5t-20.5 -39
h-98q3 51 30 90.5t72 61.5t102 22z" />
    <glyph glyph-name="uni0218" unicode="&#x218;" horiz-adv-x="541" 
d="M510 207q0 -61 -27.5 -110.5t-85.5 -78t-150 -28.5q-68 0 -113 11t-93 33v155q54 -25 109.5 -42t101.5 -17q40 0 58.5 18t18.5 47q0 35 -27.5 56t-93.5 49q-50 20 -86 46.5t-56 67t-20 104.5q0 66 32 112t88.5 70t131.5 24q66 0 119 -14t94 -36l-56 -133q-43 21 -85 32.5
t-77 11.5t-51.5 -17t-16.5 -43q0 -21 12.5 -36.5t41.5 -32t78 -40.5t83 -51t52 -65t18 -93zM357 -61v-10q-16 -37 -33.5 -73.5t-44.5 -76.5h-106v13q8 31 14 73.5t8 73.5h162z" />
    <glyph glyph-name="uni0219" unicode="&#x219;" horiz-adv-x="486" 
d="M448 166q0 -82 -50.5 -129t-168.5 -47q-56 0 -99.5 7t-88.5 25v136q49 -22 99.5 -33.5t80.5 -11.5q31 0 44.5 10t13.5 28q0 13 -9.5 23t-33.5 23t-68 33q-43 20 -71.5 42.5t-42.5 53t-14 76.5q0 78 58.5 117.5t155.5 39.5q51 0 96 -11t94 -34l-48 -114q-39 18 -78.5 29
t-62.5 11q-45 0 -45 -30q0 -12 8 -21t31 -20.5t66 -30.5q45 -19 74.5 -40t44 -52.5t14.5 -79.5zM322 -61v-10q-16 -37 -33.5 -73.5t-44.5 -76.5h-106v13q8 31 14 73.5t8 73.5h162z" />
    <glyph glyph-name="uni021A" unicode="&#x21a;" horiz-adv-x="556" 
d="M368 0h-181v573h-164v141h509v-141h-164v-573zM364 -61v-10q-16 -37 -33.5 -73.5t-44.5 -76.5h-106v13q8 31 14 73.5t8 73.5h162z" />
    <glyph glyph-name="uni021B" unicode="&#x21b;" horiz-adv-x="432" 
d="M316 124q25 0 44.5 5t41.5 13v-124q-28 -12 -61 -20t-84 -8t-89 16.5t-59 57t-21 112.5v247h-64v70l80 54l47 116h116v-114h129v-126h-129v-241q0 -58 49 -58zM334 -61v-10q-16 -37 -33.5 -73.5t-44.5 -76.5h-106v13q8 31 14 73.5t8 73.5h162z" />
    <glyph glyph-name="uni021C" unicode="&#x21c;" horiz-adv-x="625" 
d="M48 -180v148q109 24 177.5 49.5t106 52.5t51.5 58t14 66q0 40 -15.5 67t-42.5 46q-37 -13 -77.5 -25t-84.5 -21l-28 127q85 21 134 38.5t70 38t21 50.5q0 38 -24 54.5t-68 16.5q-46 0 -90 -15.5t-83 -38.5l-71 115q57 39 125.5 58t142.5 19q116 0 183 -49t67 -143
q0 -50 -23 -89t-64 -67q49 -28 81 -73t32 -112q0 -140 -128 -229.5t-406 -141.5z" />
    <glyph glyph-name="uni021D" unicode="&#x21d;" horiz-adv-x="541" 
d="M12 -240v138q116 23 186.5 47.5t102.5 55.5t32 74q0 56 -56 94q-62 -22 -140 -39l-31 119q84 19 131 36t66 36t19 44q0 31 -24 45t-66 14q-46 0 -86.5 -10.5t-75.5 -24.5l-51 120q50 24 105.5 36.5t119.5 12.5q109 0 175 -47t66 -139q0 -87 -85 -141q52 -25 81 -66
t29 -100q0 -72 -37.5 -122.5t-105 -85.5t-158.5 -58t-197 -39z" />
    <glyph glyph-name="uni021E" unicode="&#x21e;" horiz-adv-x="721" 
d="M648 0h-182v300h-211v-300h-182v714h182v-273h211v273h182v-714zM569 931v-13q-16 -18 -37.5 -44t-43 -53.5t-36.5 -49.5h-181q-14 22 -35 49.5t-43 53t-40 44.5v13h118q25 -16 45 -35.5t45 -44.5q24 25 45.5 44.5t46.5 35.5h116z" />
    <glyph glyph-name="uni021F" unicode="&#x21f;" horiz-adv-x="630" 
d="M242 760v-133q0 -50 -3 -89.5t-5 -57.5h9q25 43 60.5 61t81.5 18q51 0 93 -21t67 -65.5t25 -114.5v-358h-181v311q0 115 -62 115q-49 0 -67 -45.5t-18 -129.5v-251h-180v760h180zM362 977v-13q-16 -18 -37.5 -44t-43 -53.5t-36.5 -49.5h-181q-14 22 -35 49.5t-43 53
t-40 44.5v13h118q25 -16 45 -35.5t45 -44.5q24 25 45.5 44.5t46.5 35.5h116z" />
    <glyph glyph-name="uni0220" unicode="&#x220;" horiz-adv-x="745" 
d="M453 725q58 0 107 -23.5t79 -75t30 -135.5v-731h-184v686q0 71 -24.5 104t-69.5 33q-53 0 -80.5 -26t-37.5 -75.5t-10 -120.5v-361h-183v714h139l30 -88h6q35 50 88.5 74.5t109.5 24.5z" />
    <glyph glyph-name="uni0221" unicode="&#x221;" horiz-adv-x="821" 
d="M590 -106l-131 5q4 74 16 129q-19 10 -30 22.5t-15 23.5h-6q-23 -32 -65.5 -58t-110.5 -26q-98 0 -155 70t-57 215q0 94 25 157t68.5 95t97.5 32q55 0 89.5 -23.5t50.5 -53.5h6q-1 4 -4.5 22t-6.5 41.5t-3 42.5v172h183v-530q0 -16 1.5 -29t3.5 -24q19 37 57 57.5
t91 19.5q67 -1 99.5 -33t32.5 -80q0 -37 -17.5 -69.5t-60.5 -52t-120 -19.5q-7 0 -16 0.5t-14 0.5q-4 -24 -5.5 -50t-3.5 -57zM293 125q42 0 61 31.5t19 98.5v17q0 73 -18 111.5t-65 38.5q-31 0 -50.5 -38.5t-19.5 -111.5t20 -110t53 -37zM647 102q31 0 45 7t14 20
q0 11 -7.5 16t-18.5 5q-39 0 -56 -47q5 -1 11.5 -1h11.5z" />
    <glyph glyph-name="uni0222" unicode="&#x222;" horiz-adv-x="768" 
d="M384 -10q-122 0 -196.5 33t-107.5 92t-33 137q0 64 26.5 118.5t96.5 86.5q-40 22 -60 51t-26.5 64.5t-6.5 78.5v61h187v-60q0 -58 28 -94t95 -36q63 0 89.5 36.5t26.5 92.5v61h187v-60q0 -63 -16.5 -112.5t-74.5 -82.5q68 -32 95 -84t27 -119q1 -78 -34 -137.5t-110 -93
t-193 -33.5zM383 135q81 0 110.5 32.5t29.5 88.5q0 55 -29.5 87.5t-106.5 32.5q-79 0 -110.5 -32t-31.5 -88t29.5 -88.5t108.5 -32.5z" />
    <glyph glyph-name="uni0223" unicode="&#x223;" horiz-adv-x="606" 
d="M300 -10q-72 0 -132 30t-96.5 88t-36.5 143q0 72 26.5 124.5t94.5 83.5q-41 20 -61 50.5t-26 70t-6 86.5v94h182v-94q0 -67 11 -103.5t48 -36.5q34 0 44.5 35.5t10.5 102.5v96h184v-96q0 -70 -17.5 -122.5t-77.5 -82.5q63 -29 92.5 -81t29.5 -124q0 -86 -35.5 -144.5
t-97 -89t-137.5 -30.5zM303 125q39 0 60.5 33t21.5 99q0 65 -19 99t-62 34q-44 0 -63.5 -34t-19.5 -101q0 -65 19.5 -97.5t62.5 -32.5z" />
    <glyph glyph-name="uni0224" unicode="&#x224;" horiz-adv-x="574" 
d="M550 0h-522v108l291 467h-284v139h508v-108l-291 -467h298v-139zM382 -255q-25 0 -54.5 3t-48.5 9v131q19 -4 31 -6.5t27 -2.5q26 0 45.5 18.5t19.5 74.5v28h-9v139h186v-198q0 -52 -19 -96.5t-62.5 -72t-115.5 -27.5z" />
    <glyph glyph-name="uni0225" unicode="&#x225;" horiz-adv-x="494" 
d="M435 549v-111l-201 -309h213v-191q0 -94 -39.5 -136.5t-115.5 -42.5q-26 0 -48.5 4t-41.5 10v117q10 -4 23 -6.5t26 -2.5q23 0 35 12t12 45v62h-278v100l212 320h-200v129h403z" />
    <glyph glyph-name="uni0226" unicode="&#x226;" horiz-adv-x="682" 
d="M484 0l-33 153h-218l-34 -153h-199l219 717h241l222 -717h-198zM414 295l-38 144q-8 33 -18 75t-17 84q-6 -42 -15.5 -84t-17.5 -75l-38 -144h144zM341 932q38 0 66.5 -16t28.5 -62q0 -45 -28.5 -61.5t-66.5 -16.5q-40 0 -67.5 16.5t-27.5 61.5q0 46 27.5 62t67.5 16z
" />
    <glyph glyph-name="uni0227" unicode="&#x227;" horiz-adv-x="586" 
d="M316 560q99 0 154.5 -49.5t55.5 -146.5v-364h-124l-35 74h-4q-33 -44 -70 -64t-101 -20q-68 0 -113 43t-45 133q0 88 58 130.5t167 46.5l87 3v16q0 40 -17 58t-46 18q-31 0 -69 -11.5t-76 -28.5l-51 112q45 24 102 37t127 13zM347 250l-41 -2q-50 -2 -70 -22.5t-20 -55.5
q0 -32 14.5 -45.5t37.5 -13.5q32 0 55.5 25.5t23.5 69.5v44zM294 773q38 0 66.5 -16t28.5 -62q0 -45 -28.5 -61.5t-66.5 -16.5q-40 0 -67.5 16.5t-27.5 61.5q0 46 27.5 62t67.5 16z" />
    <glyph glyph-name="uni0228" unicode="&#x228;" horiz-adv-x="516" 
d="M471 0h-398v714h398v-138h-217v-137h201v-138h-201v-161h217v-140zM440 -122q0 -56 -34.5 -87t-91.5 -31q-32 0 -58.5 4t-42.5 9v88q15 -5 30 -8t30 -3q39 0 39 29q0 18 -16 30t-52 19l29 72h89l-8 -30q19 -6 38.5 -17t33.5 -29t14 -46z" />
    <glyph glyph-name="uni0229" unicode="&#x229;" horiz-adv-x="580" 
d="M297 559q113 0 178.5 -63.5t65.5 -186.5v-78h-320q1 -54 29.5 -86t83.5 -32q50 0 90.5 10t83.5 32v-125q-38 -21 -83 -30.5t-112 -9.5q-78 0 -140 30t-97.5 92t-35.5 159q0 146 71 217t186 71zM302 442q-32 0 -53 -25t-25 -77h155q-1 44 -20 73t-57 29zM454 -122
q0 -56 -34.5 -87t-91.5 -31q-32 0 -58.5 4t-42.5 9v88q15 -5 30 -8t30 -3q39 0 39 29q0 18 -16 30t-52 19l29 72h89l-8 -30q19 -6 38.5 -17t33.5 -29t14 -46z" />
    <glyph glyph-name="uni022A" unicode="&#x22a;" horiz-adv-x="749" 
d="M700 358q0 -111 -33.5 -193.5t-105 -128.5t-187.5 -46q-112 0 -184.5 46t-107 129t-34.5 194t34.5 193t107 127.5t185.5 45.5q115 0 186.5 -45.5t105 -128t33.5 -193.5zM238 358q0 -105 31.5 -165t104.5 -60q74 0 105 60t31 165t-31 165.5t-104 60.5q-74 0 -105.5 -60.5
t-31.5 -165.5zM565 1026v-100h-332v100h332zM302 891q32 0 51.5 -16t19.5 -48q0 -31 -19.5 -47t-51.5 -16q-69 0 -69 63q0 64 69 64zM492 891q32 0 51.5 -16t19.5 -48q0 -31 -19.5 -47t-51.5 -16t-50 16t-18 47q0 32 18 48t50 16z" />
    <glyph glyph-name="uni022B" unicode="&#x22b;" horiz-adv-x="598" 
d="M558 276q0 -138 -69 -212t-191 -74q-75 0 -133.5 33t-91.5 97t-33 156q0 136 69.5 209.5t191.5 73.5q75 0 133 -33t91 -96t33 -154zM222 276q0 -76 17.5 -116t60.5 -40q42 0 59 40t17 116t-17 114.5t-60 38.5q-41 0 -59 -38.5t-18 -114.5zM481 861v-100h-332v100h332z
M218 726q32 0 51.5 -16t19.5 -48q0 -31 -19.5 -47t-51.5 -16q-69 0 -69 63q0 64 69 64zM408 726q32 0 51.5 -16t19.5 -48q0 -31 -19.5 -47t-51.5 -16t-50 16t-18 47q0 32 18 48t50 16z" />
    <glyph glyph-name="uni022C" unicode="&#x22c;" horiz-adv-x="749" 
d="M700 358q0 -111 -33.5 -193.5t-105 -128.5t-187.5 -46q-112 0 -184.5 46t-107 129t-34.5 194t34.5 193t107 127.5t185.5 45.5q115 0 186.5 -45.5t105 -128t33.5 -193.5zM238 358q0 -105 31.5 -165t104.5 -60q74 0 105 60t31 165t-31 165.5t-104 60.5q-74 0 -105.5 -60.5
t-31.5 -165.5zM233 929v100h332v-100h-332zM228 771q4 47 28 81t77 34q33 0 55 -10.5t39 -20.5t35 -10q29 0 35 41h69q-4 -48 -27 -82t-78 -34q-31 0 -53 10.5t-39 20.5t-33 10t-25 -9t-14 -31h-69z" />
    <glyph glyph-name="uni022D" unicode="&#x22d;" horiz-adv-x="598" 
d="M558 276q0 -138 -69 -212t-191 -74q-75 0 -133.5 33t-91.5 97t-33 156q0 136 69.5 209.5t191.5 73.5q75 0 133 -33t91 -96t33 -154zM222 276q0 -76 17.5 -116t60.5 -40q42 0 59 40t17 116t-17 114.5t-60 38.5q-41 0 -59 -38.5t-18 -114.5zM149 764v100h332v-100h-332z
M144 606q4 47 28 81t77 34q33 0 55 -10.5t39 -20.5t35 -10q29 0 35 41h69q-4 -48 -27 -82t-78 -34q-31 0 -53 10.5t-39 20.5t-33 10t-25 -9t-14 -31h-69z" />
    <glyph glyph-name="uni022E" unicode="&#x22e;" horiz-adv-x="749" 
d="M700 358q0 -111 -33.5 -193.5t-105 -128.5t-187.5 -46q-112 0 -184.5 46t-107 129t-34.5 194t34.5 193t107 127.5t185.5 45.5q115 0 186.5 -45.5t105 -128t33.5 -193.5zM238 358q0 -105 31.5 -165t104.5 -60q74 0 105 60t31 165t-31 165.5t-104 60.5q-74 0 -105.5 -60.5
t-31.5 -165.5zM374 943q38 0 66.5 -16t28.5 -62q0 -45 -28.5 -61.5t-66.5 -16.5q-40 0 -67.5 16.5t-27.5 61.5q0 46 27.5 62t67.5 16z" />
    <glyph glyph-name="uni022F" unicode="&#x22f;" horiz-adv-x="598" 
d="M558 276q0 -138 -69 -212t-191 -74q-75 0 -133.5 33t-91.5 97t-33 156q0 136 69.5 209.5t191.5 73.5q75 0 133 -33t91 -96t33 -154zM222 276q0 -76 17.5 -116t60.5 -40q42 0 59 40t17 116t-17 114.5t-60 38.5q-41 0 -59 -38.5t-18 -114.5zM300 767q38 0 66.5 -16
t28.5 -62q0 -45 -28.5 -61.5t-66.5 -16.5q-40 0 -67.5 16.5t-27.5 61.5q0 46 27.5 62t67.5 16z" />
    <glyph glyph-name="uni0230" unicode="&#x230;" horiz-adv-x="749" 
d="M700 358q0 -111 -33.5 -193.5t-105 -128.5t-187.5 -46q-112 0 -184.5 46t-107 129t-34.5 194t34.5 193t107 127.5t185.5 45.5q115 0 186.5 -45.5t105 -128t33.5 -193.5zM238 358q0 -105 31.5 -165t104.5 -60q74 0 105 60t31 165t-31 165.5t-104 60.5q-74 0 -105.5 -60.5
t-31.5 -165.5zM233 927v100h331v-100h-331zM398 891q31 0 50.5 -16.5t19.5 -48.5q0 -30 -19.5 -46.5t-50.5 -16.5q-33 0 -52 16.5t-19 46.5q0 32 19 48.5t52 16.5z" />
    <glyph glyph-name="uni0231" unicode="&#x231;" horiz-adv-x="598" 
d="M558 276q0 -138 -69 -212t-191 -74q-75 0 -133.5 33t-91.5 97t-33 156q0 136 69.5 209.5t191.5 73.5q75 0 133 -33t91 -96t33 -154zM222 276q0 -76 17.5 -116t60.5 -40q42 0 59 40t17 116t-17 114.5t-60 38.5q-41 0 -59 -38.5t-18 -114.5zM480 864v-100h-331v100h331z
M314 728q31 0 50.5 -16.5t19.5 -48.5q0 -30 -19.5 -46.5t-50.5 -16.5q-33 0 -52 16.5t-19 46.5q0 32 19 48.5t52 16.5z" />
    <glyph glyph-name="uni0232" unicode="&#x232;" horiz-adv-x="623" 
d="M312 433l116 281h195l-221 -436v-278h-181v273l-221 441h197zM478 880v-109h-333v109h333z" />
    <glyph glyph-name="uni0233" unicode="&#x233;" horiz-adv-x="573" 
d="M0 549h188l86 -311q5 -16 7.5 -36.5t3.5 -42.5h4q2 23 4.5 42.5t7.5 36.5l89 311h184l-209 -602q-32 -93 -87.5 -140t-157.5 -47q-24 0 -42 2.5t-31 5.5v133q10 -2 24.5 -4t30.5 -2q45 0 66 26.5t31 64.5l5 20zM453 715v-109h-333v109h333z" />
    <glyph glyph-name="uni0234" unicode="&#x234;" horiz-adv-x="459" 
d="M128 -42l-83 40q8 22 20.5 45t24.5 40q-21 36 -21 109v568h181v-522q10 8 31 14t42 6q64 0 98 -35t34 -93q0 -62 -43 -101t-137 -39q-42 0 -69.5 7.5t-43.5 21.5q-8 -12 -18 -28.5t-16 -32.5zM297 89q17 0 29.5 9.5t12.5 26.5q0 37 -41 37q-29 0 -49 -23q6 -50 48 -50z
" />
    <glyph glyph-name="uni0235" unicode="&#x235;" horiz-adv-x="742" 
d="M429 -42l-83 40q8 22 21 45t24 40q-21 36 -21 109v122q0 111 -50 111q-44 0 -57 -46t-13 -129v-250h-181v549h138l23 -69h9q23 42 62 60.5t78 18.5q49 0 88.5 -20.5t62 -65t22.5 -115.5v-120q10 8 31 14t41 6q64 0 98 -35t34 -93q0 -62 -43 -101t-137 -39
q-41 0 -68.5 7.5t-44.5 21.5q-7 -12 -17.5 -28.5t-16.5 -32.5zM599 89q17 0 29.5 9.5t12.5 26.5q0 37 -41 37q-31 0 -49 -23q5 -50 48 -50z" />
    <glyph glyph-name="uni0236" unicode="&#x236;" horiz-adv-x="462" 
d="M149 -42l-84 40q9 22 22 45t24 40q-22 38 -22 109v230h-63v71l79 56l48 113h118v-113h143v-127h-143v-184q11 8 31.5 14t41.5 6q64 0 98 -35t34 -93q0 -62 -43 -101t-137 -39q-41 0 -68.5 7.5t-44.5 21.5q-7 -12 -17.5 -28.5t-16.5 -32.5zM319 89q17 0 29 9.5t12 26.5
q0 37 -40 37q-14 0 -28 -6t-21 -17q5 -50 48 -50z" />
    <glyph glyph-name="uni0237" unicode="&#x237;" horiz-adv-x="305" 
d="M48 -240q-21 0 -49.5 3.5t-46.5 8.5v132q15 -4 27.5 -6.5t28.5 -2.5q22 0 38 16.5t16 66.5v571h179v-602q0 -50 -18.5 -92.5t-60.5 -68.5t-114 -26z" />
    <glyph glyph-name="uni0238" unicode="&#x238;" horiz-adv-x="902" 
d="M280 -10q-69 0 -124.5 31.5t-87.5 95t-32 159.5q0 94 24.5 156.5t67 94.5t95.5 32q55 0 87.5 -24t48.5 -54h7q-2 19 -4.5 45.5t-2.5 59.5v174h183v-174q0 -34 -3 -60.5t-4 -44.5h7q16 31 49 54.5t88 23.5q51 0 93 -32t67 -95.5t25 -157.5q0 -98 -34 -160.5t-91 -93
t-125 -30.5q-107 0 -165 83q-29 -41 -73 -62t-96 -21zM290 126q32 0 50.5 33t18.5 119q0 76 -17.5 111.5t-54.5 35.5q-28 0 -47 -36.5t-19 -112.5q0 -82 18.5 -116t50.5 -34zM611 126q32 0 50 33t18 115q0 76 -18.5 113.5t-46.5 37.5q-37 0 -54.5 -35.5t-17.5 -111.5
q0 -86 18.5 -119t50.5 -33z" />
    <glyph glyph-name="uni0239" unicode="&#x239;" horiz-adv-x="902" 
d="M621 559q69 0 124 -31.5t87 -94.5t32 -160q0 -93 -24.5 -156t-66 -95t-94.5 -32q-56 0 -89 24t-48 55h-7q3 -23 5 -48t2 -58v-205h-183v205q0 35 2 59t5 47h-7q-17 -31 -49 -55t-87 -24q-52 0 -94.5 32t-67.5 95.5t-25 157.5q0 97 34.5 160t91.5 93.5t125 30.5
q105 0 166 -83q29 40 72.5 61.5t95.5 21.5zM291 423q-32 0 -51 -33t-19 -115q0 -76 19 -113t47 -37q37 0 54.5 34.5t17.5 111.5q0 85 -18 118.5t-50 33.5zM611 423q-31 0 -50 -33.5t-19 -118.5q0 -77 17 -111.5t55 -34.5q28 0 46.5 36.5t18.5 111.5q0 82 -18.5 116t-49.5 34
z" />
    <glyph glyph-name="uni023A" unicode="&#x23a;" horiz-adv-x="708" 
d="M484 0l-33 153h-94l-79 -228h-108l26 75h-196l219 717h226l15 43h108l-64 -185l178 -575h-198zM270 295h29l66 190q-7 27 -13 55.5t-11 57.5q-6 -42 -15.5 -84t-17.5 -75zM414 295l-3 12l-4 -12h7zM233 153l-29 -129l45 129h-16z" />
    <glyph glyph-name="uni023B" unicode="&#x23b;" horiz-adv-x="640" 
d="M578 760l-25 -73q14 -6 27 -13l-55 -136q-11 6 -20 10l-145 -415q12 -2 26 -2q43 0 84 11.5t82 29.5v-144q-44 -20 -91 -29t-99 -9q-26 0 -50 3l-24 -68h-108l33 95q-86 40 -125.5 127.5t-39.5 208.5q0 108 37.5 191t110 130t177.5 47q38 0 82 -8l15 44h108zM376 583
q-69 0 -106 -60.5t-37 -167.5q0 -111 38 -167l137 393q-16 2 -32 2z" />
    <glyph glyph-name="uni023C" unicode="&#x23c;" horiz-adv-x="522" 
d="M299 -10q-20 0 -38 2l-71 -200h-109l81 227q-58 30 -90 92.5t-32 160.5q0 100 35.5 163.5t97.5 93.5t140 30q21 0 41 -2l73 203h108l-81 -228q14 -5 27 -12l-49 -125q-13 6 -23 11l-100 -280q9 -1 19 -1q35 0 70.5 12.5t66.5 35.5v-138q-33 -23 -73 -34t-93 -11zM222 273
q0 -37 7 -66l77 216q-38 -8 -61 -45.5t-23 -104.5z" />
    <glyph glyph-name="uni023D" unicode="&#x23d;" horiz-adv-x="547" 
d="M73 0v286h-56v137h56v291h181v-291h126v-137h-126v-147h258v-139h-439z" />
    <glyph glyph-name="uni023E" unicode="&#x23e;" horiz-adv-x="591" 
d="M368 0h-171l-40 -75h-87l117 219v429h-164v141h468l25 46h87l-71 -133v-54h-29l-135 -253v-320zM368 573v-90l48 90h-48z" />
    <glyph glyph-name="uni023F" unicode="&#x23f;" horiz-adv-x="501" 
d="M341 -240q-59 0 -93.5 19.5t-55 54t-35.5 79.5q-26 76 -74 99q-5 2 -14 5.5t-14 5.5v135q49 -22 100 -33.5t80 -11.5q31 0 44.5 10t13.5 28q0 13 -9 23t-33 23t-68 33q-43 20 -71.5 42.5t-43 53t-14.5 76.5q0 78 59 117.5t156 39.5q51 0 96 -11t94 -34l-49 -114
q-39 18 -78 29t-63 11q-44 0 -44 -30q0 -12 8 -21t30.5 -20.5t65.5 -30.5q45 -19 75 -40t44.5 -52.5t14.5 -79.5q0 -75 -42.5 -121.5t-139.5 -53.5q6 -7 11 -17l10 -20q17 -38 33.5 -51.5t41.5 -13.5q17 0 29.5 3t23.5 7v-126q-14 -5 -37 -9t-52 -4z" />
    <glyph glyph-name="uni0240" unicode="&#x240;" horiz-adv-x="471" 
d="M386 -240q-66 0 -105.5 21.5t-60.5 56.5t-34 75q-14 41 -33 64t-63 23h-70v100l212 320h-200v129h403v-111l-213 -324q32 -9 54.5 -29.5t37 -45.5t24.5 -48q22 -55 42 -74.5t43 -19.5q16 0 29.5 1.5t28.5 6.5v-132q-18 -6 -45 -9.5t-50 -3.5z" />
    <glyph glyph-name="uni0241" unicode="&#x241;" horiz-adv-x="480" 
d="M221 725q74 0 127.5 -28t82.5 -76.5t29 -107.5q0 -54 -14.5 -99t-51 -83.5t-101.5 -71.5v-259h-184v330q75 26 110 58t45.5 63t10.5 55q0 36 -22.5 59.5t-49.5 23.5q-28 0 -55.5 -9t-49.5 -20.5t-34 -19.5l-65 122q52 28 106.5 45.5t115.5 17.5z" />
    <glyph glyph-name="uni0242" unicode="&#x242;" horiz-adv-x="494" 
d="M221 559q74 0 127 -28.5t81.5 -76.5t28.5 -108q0 -54 -15 -99t-51 -83t-100 -72v-92h-184v164q56 20 89 43t49.5 46.5t21.5 45.5t5 40q0 37 -22.5 60.5t-50.5 23.5t-54.5 -9t-48 -20.5t-33.5 -18.5l-65 121q52 28 106.5 45.5t115.5 17.5z" />
    <glyph glyph-name="uni0243" unicode="&#x243;" horiz-adv-x="634" 
d="M73 0v173h-64v102h64v439h233q146 0 208.5 -42.5t62.5 -135.5q0 -42 -16 -74t-40.5 -52t-49.5 -26v-5q27 -7 54.5 -25t46 -52.5t18.5 -91.5q0 -99 -69 -154.5t-187 -55.5h-261zM253 440h56q44 0 63 19t19 54q0 67 -87 67h-51v-140zM253 136h65q47 0 65.5 24t18.5 65
q0 36 -18.5 60.5t-68.5 24.5h-62v-35h87v-102h-87v-37z" />
    <glyph glyph-name="uni0244" unicode="&#x244;" horiz-adv-x="711" 
d="M-1 322v141h69v251h182v-251h212v251h181v-251h69v-141h-69v-55q0 -81 -32 -143.5t-96.5 -98t-161.5 -35.5q-139 0 -212 74t-73 202v56h-69zM250 285q0 -83 27 -117.5t79 -34.5q56 0 81 36.5t25 116.5v36h-212v-37z" />
    <glyph glyph-name="uni0245" unicode="&#x245;" horiz-adv-x="652" 
d="M433 714l219 -714h-203l-93 398q-4 17 -10.5 48t-12 63.5t-7.5 51.5q-2 -21 -7 -52.5t-11 -62t-11 -48.5l-95 -398h-202l220 714h213z" />
    <glyph glyph-name="uni0246" unicode="&#x246;" horiz-adv-x="562" 
d="M471 0h-174l-19 -75h-108l19 75h-116v714h298l12 46h108l-20 -78v-106h-27l-35 -137h46v-138h-81l-41 -161h138v-140zM254 439h47l35 137h-82v-137zM254 301v-47l12 47h-12z" />
    <glyph glyph-name="uni0247" unicode="&#x247;" horiz-adv-x="600" 
d="M297 559q24 0 47 -3l70 204h110l-82 -238q47 -30 73 -83.5t26 -129.5v-78h-200l-40 -114q15 -4 33 -4q50 0 90.5 10t83.5 32v-125q-38 -21 -83 -30.5t-112 -9.5q-28 0 -54 4l-70 -202h-109l81 234q-56 32 -88.5 92.5t-32.5 152.5q0 146 71 217t186 71zM302 442
q-32 0 -53 -25t-25 -77h45l35 102h-2zM379 340v1v-1v0zM221 231q0 -13 2 -24l8 24h-10z" />
    <glyph glyph-name="uni0248" unicode="&#x248;" horiz-adv-x="347" 
d="M27 -216q-30 0 -52 3t-38 8v143q13 -4 29.5 -7t36.5 -3t38 9t29 36.5t11 81.5v234h-85v141h85v284h183v-284h84v-141h-84v-233q0 -99 -31 -158.5t-84.5 -86.5t-121.5 -27z" />
    <glyph glyph-name="uni0249" unicode="&#x249;" horiz-adv-x="321" 
d="M64 689q0 46 28.5 62t68.5 16q38 0 67 -16t29 -62t-29 -62.5t-67 -16.5q-40 0 -68.5 17t-28.5 62zM39 -240q-26 0 -56.5 3.5t-48.5 8.5v133q17 -5 31.5 -7t36.5 -2q26 0 46.5 15.5t20.5 66.5v248h-72v109h72v214h182v-214h72v-109h-72v-276q0 -52 -20 -95t-66.5 -69
t-125.5 -26z" />
    <glyph glyph-name="uni024A" unicode="&#x24a;" horiz-adv-x="741" 
d="M299 725q64 0 107 -23.5t69 -58.5h4l14 71h174v-767q0 -27 12.5 -40t26.5 -13q18 0 32.5 4t21.5 7v-129q-12 -6 -37.5 -11t-51.5 -5q-86 0 -137.5 42.5t-51.5 142.5v138h-8q-30 -42 -71.5 -67.5t-104.5 -25.5q-66 0 -122 40.5t-90 122t-34 204.5t35 205t91.5 122.5
t120.5 40.5zM354 581q-44 0 -76 -58t-32 -168q0 -115 32 -168t81 -53q52 0 87.5 55.5t35.5 184.5q-1 104 -31 155.5t-97 51.5z" />
    <glyph glyph-name="uni024B" unicode="&#x24b;" horiz-adv-x="611" 
d="M227 559q58 0 90.5 -23.5t52.5 -55.5h4l14 69h154v-604q0 -23 10 -36.5t27 -13.5t28 2.5t24 7.5v-129q-17 -9 -44 -12.5t-56 -3.5q-66 0 -103.5 23t-53 64t-15.5 95v33q0 23 2 47.5t5 46.5h-7q-16 -31 -47.5 -55t-87.5 -24q-82 0 -135 72t-53 212q0 95 26 158.5t69 95
t96 31.5zM291 422q-36 0 -53 -38.5t-17 -111.5q0 -75 17.5 -112.5t56.5 -37.5q78 0 78 129v20q0 73 -17.5 112t-64.5 39z" />
    <glyph glyph-name="uni024C" unicode="&#x24c;" horiz-adv-x="636" 
d="M293 714q273 0 273 -213q0 -70 -30.5 -116t-83.5 -74l195 -311h-204l-142 268h-47v-268h-181v266h-63v140h63v308h220zM290 580h-36v-179h34q41 0 68 22.5t27 71.5q0 43 -21.5 64t-71.5 21z" />
    <glyph glyph-name="uni024D" unicode="&#x24d;" horiz-adv-x="441" 
d="M347 323v-109h-105v-214h-180v214h-65v109h65v226h134l28 -90h8q22 41 60.5 70.5t83.5 29.5q15 0 31 -1.5t24 -3.5l-16 -158q-10 2 -23.5 3.5t-37.5 1.5q-19 0 -40 -6.5t-39 -23.5t-27 -48h99z" />
    <glyph glyph-name="uni024E" unicode="&#x24e;" horiz-adv-x="623" 
d="M626 628v-110h-102l-122 -240v-278h-181v273l-123 245h-100v110h45l-43 86h197l35 -86h160l36 86h195l-44 -86h47zM312 433l35 85h-70z" />
    <glyph glyph-name="uni024F" unicode="&#x24f;" horiz-adv-x="573" 
d="M0 549h188l43 -156h114l45 156h184l-54 -156h50v-110h-88l-117 -336q-32 -93 -87.5 -140t-157.5 -47q-24 0 -42 2.5t-31 5.5v133q10 -2 24.5 -4t30.5 -2q45 0 66 26.5t31 64.5l5 20l-104 277h-89v110h48zM285 159h4q2 23 4.5 42.5t7.5 36.5l13 45h-52l12 -45
q5 -16 7.5 -36.5t3.5 -42.5z" />
    <glyph glyph-name="uni0250" unicode="&#x250;" horiz-adv-x="586" 
d="M270 -11q-99 0 -154.5 49.5t-55.5 146.5v364h124l35 -74h4q33 44 70 64t101 20q68 0 113 -43t45 -133q0 -88 -58 -130.5t-167 -46.5l-87 -3v-16q0 -40 17 -58t46 -18q31 0 69 11.5t76 28.5l51 -112q-45 -24 -102 -37t-127 -13zM239 299l41 2q50 2 70 22.5t20 55.5
q0 32 -14.5 45.5t-37.5 13.5q-32 0 -55.5 -25.5t-23.5 -69.5v-44z" />
    <glyph glyph-name="uni0251" unicode="&#x251;" horiz-adv-x="611" 
d="M228 -10q-85 0 -136.5 72t-51.5 212q0 141 53.5 213t141.5 72q53 0 82 -21.5t50 -53.5h4l24 65h147v-549h-135l-38 69h-6q-19 -33 -51 -56t-84 -23zM301 122q35 0 55.5 34.5t20.5 102.5v19q0 145 -76 145q-38 0 -59 -37.5t-21 -113.5q0 -78 21 -114t59 -36z" />
    <glyph glyph-name="uni0252" unicode="&#x252;" horiz-adv-x="611" 
d="M383 559q85 0 136.5 -72t51.5 -212q0 -141 -53.5 -213t-141.5 -72q-53 0 -82 21.5t-50 53.5h-4l-24 -65h-147v549h135l38 -69h6q19 33 51 56t84 23zM310 427q-35 0 -55.5 -34.5t-20.5 -102.5v-19q0 -145 76 -145q38 0 59 37.5t21 113.5q0 78 -21 114t-59 36z" />
    <glyph glyph-name="uni0253" unicode="&#x253;" horiz-adv-x="611" 
d="M250 766q30 0 54 -6t34 -11v-128q-7 3 -22 6.5t-34 3.5q-32 0 -32 -45q0 -28 -2 -54.5t-4 -50.5h6q17 31 49.5 54.5t88.5 23.5q52 0 94.5 -32t67.5 -95t25 -156q0 -96 -26 -159.5t-69.5 -95t-96.5 -31.5q-39 0 -63.5 10t-40.5 25t-29 31h-10l-29 -56h-142v590
q0 95 50.5 135.5t130.5 40.5zM324 425q-37 0 -54.5 -33t-19.5 -106q0 -79 16 -119t60 -40q26 0 44 38.5t18 112.5q0 73 -18 110t-46 37z" />
    <glyph glyph-name="uni0254" unicode="&#x254;" horiz-adv-x="499" 
d="M211 559q114 0 182.5 -67.5t68.5 -215.5q0 -145 -70 -215.5t-186 -70.5q-52 0 -90.5 9t-74.5 28v147q32 -22 63 -34.5t70 -12.5q44 0 73.5 36.5t29.5 112.5t-28.5 112t-70.5 36q-27 0 -51.5 -9t-48.5 -24l-50 122q32 17 77 31.5t106 14.5z" />
    <glyph glyph-name="uni0255" unicode="&#x255;" horiz-adv-x="534" 
d="M313 559q65 0 105.5 -12.5t69.5 -27.5l-48 -128q-32 14 -58.5 23.5t-60.5 9.5q-48 0 -74 -36t-26 -109q0 -7 0.5 -17.5t2.5 -20.5q15 22 50.5 38t86.5 16q77 0 112.5 -38t35.5 -101q0 -58 -26.5 -94.5t-73 -54t-105.5 -17.5q-51 0 -86 11t-59 28q-10 -20 -19.5 -40
t-16.5 -44l-84 36q11 31 22 56t24 50q-22 37 -35.5 81t-13.5 104q0 99 35.5 162.5t98 94t143.5 30.5zM333 201q-31 0 -53 -16t-32 -32q11 -19 28 -30.5t45 -11.5q23 0 43 12.5t20 34.5q0 20 -14.5 31.5t-36.5 11.5z" />
    <glyph glyph-name="uni0256" unicode="&#x256;" horiz-adv-x="612" 
d="M532 -240q-66 0 -103.5 23t-53 64t-15.5 95v25q0 29 2 55t4 47h-6q-16 -31 -48.5 -55t-89.5 -24q-79 0 -130.5 72.5t-51.5 212.5q0 141 53.5 212.5t134.5 71.5q58 0 88 -24t47 -55h5q-2 11 -4.5 45.5t-2.5 67.5v167h181v-811q0 -54 37 -54q15 0 27 2.5t26 6.5v-127
q-17 -7 -43.5 -12t-56.5 -5zM299 124q78 0 78 134v17q0 73 -17.5 110.5t-60.5 37.5q-37 0 -57.5 -39t-20.5 -112q0 -76 21.5 -112t56.5 -36z" />
    <glyph glyph-name="uni0257" unicode="&#x257;" horiz-adv-x="611" 
d="M224 -10q-80 0 -132 72t-52 212q0 141 53 213t137 72q53 0 84.5 -22.5t51.5 -57.5h4q-4 23 -6 49t-2 56v11q0 91 48.5 132t121.5 41q38 0 68 -5t44 -9v-128q-8 3 -24 6t-35 3q-43 0 -43 -55v-580h-135l-38 71h-7q-19 -34 -51.5 -57.5t-86.5 -23.5zM297 124q43 0 61.5 33
t18.5 100v15q0 74 -17.5 112.5t-64.5 38.5q-33 0 -53.5 -38t-20.5 -114q0 -75 20.5 -111t55.5 -36z" />
    <glyph glyph-name="uni0258" unicode="&#x258;" horiz-adv-x="580" 
d="M283 559q-113 0 -178.5 -63.5t-65.5 -186.5v-78h320q-1 -54 -29.5 -86t-83.5 -32q-50 0 -90.5 10t-83.5 32v-125q38 -21 83 -30.5t112 -9.5q78 0 140 30t97.5 92t35.5 159q0 146 -71 217t-186 71zM278 442q32 0 53 -25t25 -77h-155q1 44 20 73t57 29z" />
    <glyph glyph-name="uni0259" unicode="&#x259;" horiz-adv-x="580" 
d="M268 559q78 0 140 -30t97.5 -92.5t35.5 -158.5q0 -146 -70.5 -217t-185.5 -71q-114 0 -179.5 64t-65.5 186v78h320q-2 54 -30 86.5t-84 32.5q-48 0 -89 -10.5t-84 -32.5v125q37 19 82 29.5t113 10.5zM356 210h-154q1 -44 20 -73.5t56 -29.5q32 0 53 25t25 78z" />
    <glyph glyph-name="uni025A" unicode="&#x25a;" horiz-adv-x="820" 
d="M282 -10q-122 0 -183 66t-61 187l332 96q-14 52 -44.5 73.5t-74.5 21.5q-54 0 -101 -12t-79 -32v129q27 17 82.5 28.5t124.5 11.5q94 0 162.5 -42.5t96.5 -134.5l131 39l13 -53q11 -47 22.5 -67t33.5 -20q17 0 29 7t25 17l29 -91q-14 -16 -39 -28t-57 -12q-52 0 -84 26.5
t-51 89.5l-36 -13q-3 -89 -38.5 -153.5t-95.5 -99t-137 -34.5zM289 109q38 0 64.5 30t26.5 97l-173 -54q6 -25 25.5 -49t56.5 -24z" />
    <glyph glyph-name="uni025B" unicode="&#x25b;" horiz-adv-x="520" 
d="M385 342v-113h-67q-46 0 -69.5 -6.5t-32 -19t-8.5 -31.5q0 -14 6 -26.5t26.5 -20.5t62.5 -8q59 0 105.5 13.5t78.5 29.5v-132q-39 -17 -86.5 -27.5t-123.5 -10.5q-135 0 -191.5 44t-56.5 120q0 110 125 130v5q-43 12 -68.5 44.5t-25.5 79.5q0 53 31 85t83 46.5t116 14.5
q58 0 104.5 -10.5t92.5 -30.5l-50 -118q-37 16 -69.5 26.5t-69.5 10.5q-38 0 -54 -11t-16 -33q0 -27 23 -39t78 -12h56z" />
    <glyph glyph-name="uni025C" unicode="&#x25c;" horiz-adv-x="511" 
d="M230 559q64 0 116 -15t83 -47.5t31 -84.5q0 -47 -25.5 -77.5t-67.5 -43.5v-5q61 -10 88 -41.5t27 -86.5q0 -74 -62.5 -121t-198.5 -47q-67 0 -109 8.5t-79 24.5v133q31 -14 75 -26.5t103 -12.5q48 0 70 14t22 42t-22 42t-79 14h-67v113h56q55 0 78 11t23 39
q0 22 -16 33.5t-54 11.5q-37 0 -70 -9t-69 -26l-50 116q47 20 93 30.5t104 10.5z" />
    <glyph glyph-name="uni025D" unicode="&#x25d;" horiz-adv-x="731" 
d="M230 559q78 0 138.5 -22.5t81.5 -72.5l116 35l12 -48q12 -47 21.5 -66.5t33.5 -19.5q20 0 33 7.5t25 17.5l40 -94q-22 -19 -47.5 -30.5t-60.5 -11.5q-52 0 -84.5 27t-50.5 87l-41 -14q-22 -46 -80 -63v-5q61 -10 88 -41.5t27 -86.5q0 -74 -62.5 -121t-198.5 -47
q-67 0 -109 8.5t-79 24.5v133q31 -14 75 -26.5t103 -12.5q48 0 70 14t22 42t-22 42t-79 14h-67v113h56q55 0 78 11t23 39q0 22 -16 33.5t-54 11.5q-37 0 -70 -9t-69 -26l-50 116q47 20 93 30.5t104 10.5z" />
    <glyph glyph-name="uni025E" unicode="&#x25e;" horiz-adv-x="615" 
d="M330 559q112 0 176.5 -37.5t64.5 -115.5q0 -52 -31 -80t-77 -40v-4q28 -5 56 -18t46.5 -36.5t18.5 -62.5q0 -83 -70.5 -129t-194.5 -46q-79 0 -143 29.5t-102 92.5t-38 164q0 92 37.5 155t104 95.5t152.5 32.5zM344 435q-125 0 -125 -159q0 -89 30.5 -122.5t82.5 -33.5
q42 0 59.5 14.5t17.5 41.5q0 28 -19.5 38t-48.5 10h-48v111h47q30 0 51 10t21 40q0 23 -16 36.5t-52 13.5z" />
    <glyph glyph-name="uni025F" unicode="&#x25f;" horiz-adv-x="321" 
d="M39 -240q-26 0 -56.5 3.5t-48.5 8.5v133q17 -5 31.5 -7t36.5 -2q26 0 46.5 15.5t20.5 66.5v245h-71v109h71v217h182v-217h70v-109h-70v-273q0 -52 -20 -95t-66.5 -69t-125.5 -26z" />
    <glyph glyph-name="uni0260" unicode="&#x260;" horiz-adv-x="610" 
d="M548 768q33 0 58 -6t35 -10v-129q-6 3 -19.5 7t-33.5 4t-33 -14t-13 -42v-577q0 -119 -72.5 -180t-208.5 -61q-53 0 -100 6.5t-96 25.5v131q105 -42 206 -42q43 0 65.5 28t22.5 87v10q0 16 0.5 31.5t1.5 31.5h-2q-25 -42 -59.5 -60.5t-75.5 -18.5q-88 0 -138 75.5
t-50 208.5q0 136 54 210.5t138 74.5q90 0 141 -77h4q-5 22 -9.5 49t-4.5 53v8q0 91 48 133.5t141 42.5zM291 422q-70 0 -70 -150q0 -75 17.5 -112.5t56.5 -37.5q34 0 56 28.5t22 102.5v18q0 83 -21 117t-61 34z" />
    <glyph glyph-name="uni0261" unicode="&#x261;" horiz-adv-x="605" 
d="M228 559q55 0 88.5 -21t53.5 -58h4l13 69h155v-550q0 -117 -68 -178t-209 -61q-63 0 -111 7t-92 25v137q47 -21 89.5 -31.5t103.5 -10.5q108 0 108 105v11q0 14 1.5 32.5t4.5 35.5h-6q-18 -38 -51 -59.5t-86 -21.5q-83 0 -134.5 74t-51.5 210q0 137 52.5 211t135.5 74z
M296 426q-74 0 -74 -155q0 -77 18.5 -113.5t57.5 -36.5q44 0 61.5 31.5t17.5 101.5v21q0 77 -16.5 114t-64.5 37z" />
    <glyph glyph-name="uni0262" unicode="&#x262;" horiz-adv-x="573" 
d="M324 559q48 0 92.5 -9.5t97.5 -35.5l-54 -129q-28 17 -57.5 27.5t-67.5 10.5q-29 0 -54.5 -15t-41.5 -47.5t-16 -85.5q0 -68 19.5 -109t69.5 -41q10 0 17 1.5t19 5.5v74h-74v111h249v-282q-32 -18 -84.5 -31.5t-117.5 -13.5q-146 0 -214.5 77t-68.5 208q0 79 30.5 143.5
t93.5 102.5t162 38z" />
    <glyph glyph-name="uni0263" unicode="&#x263;" horiz-adv-x="581" 
d="M279 -240q-77 0 -118 41t-41 112q0 51 16 97t45 108l-181 431h191l69 -220q7 -21 12.5 -49.5t10.5 -52.5h3q5 25 10.5 49.5t14.5 51.5l75 221h191l-196 -439q29 -56 44.5 -104t15.5 -94q0 -66 -42.5 -109t-119.5 -43zM280 -135q25 0 25 51q0 16 -4.5 46t-20.5 62
q-16 -31 -20.5 -60.5t-4.5 -45.5q0 -53 25 -53z" />
    <glyph glyph-name="uni0264" unicode="&#x264;" horiz-adv-x="560" 
d="M485 558q23 0 42.5 -4t31.5 -10v-125q-5 1 -10.5 2.5t-12.5 1.5q-25 0 -47.5 -12.5t-50.5 -53.5l-53 -80q25 -34 45 -66.5t20 -78.5q0 -62 -45 -104t-125 -42q-77 0 -121 41t-44 106q0 46 16.5 79t39.5 64l-50 81q-25 39 -44.5 53t-44.5 14q-8 0 -16 -1t-16 -3v124
q12 5 31 9.5t44 4.5q50 0 80 -18.5t54 -55.5l25 -37q10 -16 23 -36t24 -38h4q9 18 22 38t24 37l23 36q22 34 54 54t77 20zM284 201q-16 -21 -21.5 -39t-5.5 -35q0 -16 6.5 -27.5t20.5 -11.5q15 0 21.5 12t6.5 26q0 36 -28 75z" />
    <glyph glyph-name="uni0265" unicode="&#x265;" horiz-adv-x="630" 
d="M388 -211v133q0 50 3 89.5t5 57.5h-9q-25 -43 -60.5 -61t-81.5 -18q-51 0 -93 21t-67 65.5t-25 114.5v358h181v-311q0 -115 62 -115q49 0 67 45.5t18 129.5v251h180v-760h-180z" />
    <glyph glyph-name="uni0266" unicode="&#x266;" horiz-adv-x="630" 
d="M62 0v583q0 97 51 139t135 42q28 0 52 -5t34 -9v-123q-6 2 -17 5.5t-29 3.5q-19 0 -32.5 -12.5t-13.5 -39.5v-28q0 -32 -3 -57.5t-5 -34.5h9q25 43 60.5 61t81.5 18q51 0 93 -21t67 -65.5t25 -114.5v-342h-181v295q0 115 -62 115q-49 0 -67 -45.5t-18 -129.5v-235h-180z
" />
    <glyph glyph-name="uni0267" unicode="&#x267;" horiz-adv-x="642" 
d="M248 764q28 0 52 -5t34 -9v-123q-6 2 -17 5.5t-29 3.5q-19 0 -32.5 -12.5t-13.5 -39.5v-23q0 -35 -3 -59t-5 -32h9q25 41 60 60t82 19q51 0 93 -21t66.5 -65.5t24.5 -115.5v-395q0 -52 -17.5 -95.5t-59 -70t-113.5 -26.5q-23 0 -51.5 3.5t-45.5 8.5v133q14 -5 26 -7
t28 -2q21 0 37 16t16 68v326q0 109 -62 109q-48 0 -66.5 -45t-18.5 -130v-240h-180v583q0 97 51 139t135 42z" />
    <glyph glyph-name="uni0268" unicode="&#x268;" horiz-adv-x="305" 
d="M154 767q38 0 66 -16t28 -62q0 -45 -28 -61.5t-66 -16.5q-40 0 -68 16.5t-28 61.5q0 46 28 62t68 16zM306 332v-108h-64v-224h-179v224h-65v108h65v217h179v-217h64z" />
    <glyph glyph-name="iotaLatin" unicode="&#x269;" horiz-adv-x="408" 
d="M240 549v-369q0 -32 16.5 -44.5t37.5 -12.5q25 0 46 5t49 14v-124q-26 -12 -61 -20t-80 -8q-52 0 -94.5 16.5t-67.5 57t-25 112.5v373h179z" />
    <glyph glyph-name="uni026A" unicode="&#x26a;" horiz-adv-x="396" 
d="M374 549v-80l-85 -49v-291l85 -49v-80h-352v80l86 49v291l-86 49v80h352z" />
    <glyph glyph-name="uni026B" unicode="&#x26b;" horiz-adv-x="496" 
d="M156 0v336q-3 1 -5.5 1.5t-5.5 0.5q-33 0 -36 -47h-85q1 78 36 117.5t88 39.5q6 0 8 -1v313h183v-357q6 -2 13 -2q29 0 36 49h84q0 -78 -35.5 -118t-87.5 -40h-5t-5 1v-293h-183z" />
    <glyph glyph-name="uni026C" unicode="&#x26c;" horiz-adv-x="428" 
d="M157 0v286h-35q-70 0 -100.5 33.5t-30.5 80.5q0 53 31.5 85t86.5 32q13 0 25 -4t23 -11v258h181v-389h94v-85h-94v-286h-181zM131 371h26v16q0 26 -10.5 36t-22.5 10q-14 0 -22.5 -8t-8.5 -23q0 -18 11 -24.5t27 -6.5z" />
    <glyph glyph-name="uni026D" unicode="&#x26d;" horiz-adv-x="321" 
d="M241 -240q-66 0 -103.5 23t-53 64t-15.5 95v818h181v-815q0 -23 11 -36.5t27 -13.5t27 2.5t25 7.5v-129q-16 -9 -43.5 -12.5t-55.5 -3.5z" />
    <glyph glyph-name="uni026E" unicode="&#x26e;" horiz-adv-x="774" 
d="M430 -240q-72 0 -121 10t-96 29v144q45 -23 99.5 -35.5t110.5 -12.5q73 0 103 35.5t30 83.5q0 33 -12 60.5t-49 44t-110 16.5h-62v113l167 172h-240v-420h-181v760h181v-211h470v-106l-193 -192q104 -13 157.5 -78t53.5 -156q0 -75 -32 -133t-100 -91t-176 -33z" />
    <glyph glyph-name="uni026F" unicode="&#x26f;" horiz-adv-x="939" 
d="M243 -10q-89 0 -136 47.5t-47 153.5v358h178v-311q0 -60 16 -87.5t47 -27.5q44 0 61 41t17 118v267h179v-311q0 -59 15 -87t46 -28q46 0 62 45.5t16 130.5v250h180v-549h-135l-27 69h-5q-20 -38 -58.5 -58.5t-97.5 -20.5q-56 0 -93.5 20t-60.5 58h-6q-25 -39 -63.5 -58.5
t-87.5 -19.5z" />
    <glyph glyph-name="uni0270" unicode="&#x270;" horiz-adv-x="965" 
d="M714 -240v227q0 18 2.5 42.5t5.5 41.5h-8q-26 -42 -62 -61.5t-79 -19.5q-55 0 -95 18.5t-63 58.5h-17q-22 -41 -64.5 -59t-83.5 -18q-89 0 -136 47.5t-47 153.5v358h183v-313q0 -111 60 -111q46 0 63 41.5t17 116.5v266h183v-310q0 -114 59 -114q50 0 66 46t16 129v249
h182v-789h-182z" />
    <glyph glyph-name="uni0271" unicode="&#x271;" horiz-adv-x="965" 
d="M715 559q90 0 136 -47.5t46 -153.5v-412q0 -50 -18 -92.5t-58.5 -68t-110.5 -25.5q-25 0 -53 3.5t-44 8.5v133q15 -5 26.5 -7t26.5 -2q17 0 33 14.5t16 62.5v340q0 54 -14.5 83t-45.5 29q-46 0 -63.5 -41.5t-17.5 -117.5v-266h-182v310q0 115 -60 115q-50 0 -66 -46.5
t-16 -128.5v-250h-181v549h138l23 -69h9q25 42 67 60.5t86 18.5q56 0 95.5 -18.5t61.5 -58.5h18q23 41 65 59t83 18z" />
    <glyph glyph-name="uni0272" unicode="&#x272;" horiz-adv-x="646" 
d="M391 559q54 0 96.5 -20.5t67 -65t24.5 -115.5v-358h-184v314q0 54 -14 82.5t-47 28.5q-50 0 -67 -46t-17 -129v-304q0 -50 -16 -92.5t-54.5 -68t-107.5 -25.5q-26 0 -51 3.5t-41 12.5v129q14 -5 24 -7.5t25 -2.5q18 0 29 13.5t11 36.5v604h138l23 -69h9q25 42 67.5 60.5
t84.5 18.5z" />
    <glyph glyph-name="uni0273" unicode="&#x273;" horiz-adv-x="645" 
d="M579 -54q0 -23 11 -37t32 -14q15 0 25.5 2.5t24.5 7.5v-129q-16 -9 -43.5 -12.5t-55.5 -3.5q-68 0 -107 23t-55 64.5t-16 96.5v370q0 54 -14 82.5t-47 28.5q-50 0 -67 -46t-17 -129v-250h-181v549h138l23 -69h9q25 42 67.5 60.5t84.5 18.5q54 0 96.5 -20.5t67 -65
t24.5 -115.5v-412z" />
    <glyph glyph-name="uni0274" unicode="&#x274;" horiz-adv-x="702" 
d="M66 0v549h217l190 -366q-3 21 -4.5 51.5t-2 60.5t-0.5 49v205h170v-549h-218l-184 364q1 -21 2 -51.5t1.5 -61t0.5 -52.5v-199h-172z" />
    <glyph glyph-name="uni0275" unicode="&#x275;" horiz-adv-x="598" 
d="M558 276q0 -138 -69 -212t-191 -74q-75 0 -133.5 33t-91.5 97t-33 156q0 136 69.5 209.5t191.5 73.5q75 0 133 -33t91 -96t33 -154zM299 433q-84 0 -90 -106h181q-6 106 -91 106zM300 116q83 0 88 106h-179q9 -106 91 -106z" />
    <glyph glyph-name="uni0276" unicode="&#x276;" horiz-adv-x="832" 
d="M276 558q39 0 62.5 -6t38.5 -16v12h393v-125h-219v-81h206v-122h-206v-94h219v-126h-393v13q-15 -10 -41.5 -16t-60.5 -6q-71 0 -124.5 33t-84 96.5t-30.5 154.5q0 137 64 210t176 73zM300 429q-42 0 -60.5 -38t-18.5 -116t18.5 -116.5t59.5 -38.5q45 0 62 39.5t17 115.5
q0 79 -18 116.5t-60 37.5z" />
    <glyph glyph-name="omegaclosed" unicode="&#x277;" horiz-adv-x="800" 
d="M402 558q120 0 200 -41t120 -113.5t40 -167.5q0 -114 -53 -180t-153 -66q-71 0 -106 30t-48 73h-6q-16 -44 -51 -73.5t-105 -29.5q-95 0 -150 66t-55 180q0 96 44.5 168.5t126.5 113t196 40.5zM398 421q-74 0 -116 -25.5t-60 -67.5t-18 -92q0 -54 14.5 -84t42.5 -30
q37 0 47 28t10 78v96h162v-98q0 -48 9 -76t46 -28q29 0 44 30t15 82q0 50 -18.5 92.5t-61.5 68.5t-116 26z" />
    <glyph glyph-name="uni0278" unicode="&#x278;" horiz-adv-x="814" 
d="M492 760v-209q143 -13 212.5 -88.5t69.5 -188.5q0 -74 -29.5 -133.5t-92 -97t-160.5 -45.5v-238h-167v238q-142 14 -213.5 89.5t-71.5 186.5q0 78 28.5 138t91 96t163.5 43v209h169zM323 425q-28 -3 -52 -24t-39 -54t-15 -73q0 -62 29.5 -103.5t76.5 -46.5v301zM492 424
v-300q45 5 74.5 46.5t29.5 103.5t-30 103.5t-74 46.5z" />
    <glyph glyph-name="uni0279" unicode="&#x279;" horiz-adv-x="441" 
d="M65 -10q-15 0 -31 1.5t-24 3.5l16 158q10 -2 23.5 -3.5t37.5 -1.5q23 0 49 10.5t44.5 37.5t18.5 78v275h180v-549h-134l-28 90h-8q-22 -41 -60.5 -70.5t-83.5 -29.5z" />
    <glyph glyph-name="uni027A" unicode="&#x27a;" horiz-adv-x="441" 
d="M65 -10q-15 0 -31 2l-24 3l16 158q10 -2 23.5 -3.5t37.5 -1.5q23 0 49 10t44.5 37.5t18.5 78.5v486h179v-760h-133l-28 90h-9q-21 -41 -60 -70.5t-83 -29.5z" />
    <glyph glyph-name="uni027B" unicode="&#x27b;" horiz-adv-x="454" 
d="M377 -240q-67 0 -105 23.5t-53.5 65t-15.5 97.5v19q0 44 1.5 69t4.5 49h-5q-22 -37 -59 -65t-87 -28q-8 0 -21 1t-17 3l12 159q2 -2 14.5 -3.5t25.5 -1.5q26 0 57 10t52.5 37.5t21.5 78.5v275h182v-599q0 -24 9.5 -39.5t30.5 -15.5q17 0 28.5 2.5t26.5 7.5v-129
q-19 -9 -46.5 -12.5t-56.5 -3.5z" />
    <glyph glyph-name="uni027C" unicode="&#x27c;" horiz-adv-x="441" 
d="M376 559q15 0 31 -1.5t24 -3.5l-16 -158q-10 2 -23.5 3.5t-37.5 1.5q-23 0 -49 -10.5t-44.5 -37.5t-18.5 -78v-515h-180v789h134l28 -90h8q22 41 60.5 70.5t83.5 29.5z" />
    <glyph glyph-name="uni027D" unicode="&#x27d;" horiz-adv-x="453" 
d="M386 559q9 0 26 -1t21 -2l-12 -160q-5 2 -17 3t-24 1q-28 0 -58 -10t-51 -37t-21 -78v-330q0 -23 11 -36.5t27 -13.5t27 2.5t25 7.5v-129q-16 -9 -43.5 -12.5t-55.5 -3.5q-66 0 -103.5 23t-53 64t-15.5 95v607h135l29 -91h8q19 40 57 70.5t88 30.5z" />
    <glyph glyph-name="uni027E" unicode="&#x27e;" horiz-adv-x="401" 
d="M256 562q38 0 65 -4t58 -12l-20 -137q-15 4 -27 6t-28 2q-34 0 -44 -21.5t-10 -48.5v-347h-183v356q0 106 48 156t141 50z" />
    <glyph glyph-name="uni027F" unicode="&#x27f;" horiz-adv-x="400" 
d="M143 562q93 0 141.5 -50t48.5 -156v-596h-182v587q0 27 -10 48.5t-46 21.5q-16 0 -27 -2t-25 -6l-21 137q31 8 57.5 12t63.5 4z" />
    <glyph glyph-name="uni0280" unicode="&#x280;" horiz-adv-x="607" 
d="M79 0v548h261q97 0 157.5 -40.5t60.5 -125.5q0 -64 -29 -100t-75 -55l153 -227h-197l-113 199h-36v-199h-182zM261 310h53q32 0 49.5 17.5t17.5 47.5q0 23 -13.5 39.5t-42.5 16.5h-64v-121z" />
    <glyph glyph-name="uni0281" unicode="&#x281;" horiz-adv-x="607" 
d="M79 549v-548h261q97 0 157.5 40.5t60.5 125.5q0 64 -29 100t-75 55l153 227h-197l-113 -199h-36v199h-182zM261 239h53q32 0 49.5 -17.5t17.5 -47.5q0 -23 -13.5 -39.5t-42.5 -16.5h-64v121z" />
    <glyph glyph-name="uni0282" unicode="&#x282;" horiz-adv-x="501" 
d="M463 166q0 -82 -50.5 -129t-169.5 -47q-13 0 -22 1.5t-18 3.5v-68q0 -23 6.5 -32.5t15 -11.5t13.5 -2q10 0 19 2.5t21 6.5v-116q-31 -14 -84 -14q-76 0 -107.5 45t-31.5 124v229q49 -22 100 -33.5t80 -11.5q31 0 44.5 10t13.5 28q0 13 -9 23t-33 23t-68 33
q-43 20 -71.5 42.5t-43 53t-14.5 76.5q0 78 59 117.5t156 39.5q51 0 96 -11t94 -34l-49 -114q-39 18 -78 29t-63 11q-44 0 -44 -30q0 -12 8 -21t30.5 -20.5t65.5 -30.5q45 -19 75 -40t44.5 -52.5t14.5 -79.5z" />
    <glyph glyph-name="uni0283" unicode="&#x283;" horiz-adv-x="321" 
d="M249 768q35 0 60.5 -6t35.5 -10v-129q-7 3 -21.5 7t-33.5 4q-16 0 -27 -13t-11 -38v-637q0 -50 -16 -92.5t-55 -68t-109 -25.5q-25 0 -49.5 3.5t-41.5 12.5v129q13 -5 24 -7.5t26 -2.5q17 0 28 13.5t11 36.5v645q0 94 45 136t134 42z" />
    <glyph glyph-name="uni0284" unicode="&#x284;" horiz-adv-x="321" 
d="M72 -240q-25 0 -49.5 3.5t-41.5 12.5v129q13 -5 24 -7.5t26 -2.5q17 0 28 13.5t11 36.5v298h-70v127h70v220q0 94 45 136t134 42q35 0 60.5 -6t35.5 -10v-129q-7 3 -21.5 7t-33.5 4q-16 0 -27 -13t-11 -38v-213h71v-127h-71v-297q0 -50 -16 -92.5t-55 -68t-109 -25.5z
" />
    </font>
</defs>
</svg>
