<svg width="24" height="24" viewBox="0 0 24 24" fill="none" xmlns="http://www.w3.org/2000/svg">
<path d="M21.5109 17.5629C22.1391 17.1333 22.6132 16.5139 22.8638 15.7953C23.1144 15.0767 23.1283 14.2968 22.9035 13.5697C22.6787 12.8427 22.227 12.2067 21.6145 11.755C21.002 11.3033 20.261 11.0596 19.5 11.0596C18.739 11.0596 17.998 11.3033 17.3855 11.755C16.773 12.2067 16.3213 12.8427 16.0965 13.5697C15.8717 14.2968 15.8856 15.0767 16.1362 15.7953C16.3868 16.5139 16.8609 17.1333 17.4891 17.5629C16.8716 17.8901 16.3422 18.3617 15.9459 18.9374H8.8125V15.7499C8.81172 14.9653 8.597 14.1957 8.19145 13.524C7.78589 12.8523 7.20486 12.3039 6.51086 11.9379C7.13906 11.5083 7.61318 10.8889 7.86379 10.1703C8.1144 9.45172 8.12832 8.67179 7.90351 7.94473C7.6787 7.21768 7.22697 6.58172 6.6145 6.13003C6.00203 5.67833 5.26102 5.43463 4.5 5.43463C3.73898 5.43463 2.99797 5.67833 2.3855 6.13003C1.77303 6.58172 1.3213 7.21768 1.09649 7.94473C0.871681 8.67179 0.885598 9.45172 1.13621 10.1703C1.38682 10.8889 1.86094 11.5083 2.48914 11.9379C1.79514 12.3039 1.21411 12.8523 0.808551 13.524C0.402997 14.1957 0.188278 14.9653 0.1875 15.7499V23.2499C0.187489 23.3238 0.20203 23.3969 0.230295 23.4652C0.258559 23.5334 0.299992 23.5954 0.352227 23.6477C0.404462 23.6999 0.466476 23.7413 0.534727 23.7696C0.602978 23.7979 0.676128 23.8124 0.75 23.8124H23.25C23.3239 23.8124 23.397 23.7979 23.4653 23.7696C23.5335 23.7413 23.5955 23.6999 23.6478 23.6477C23.7 23.5954 23.7414 23.5334 23.7697 23.4652C23.798 23.3969 23.8125 23.3238 23.8125 23.2499V21.3749C23.8117 20.5903 23.597 19.8207 23.1914 19.149C22.7859 18.4773 22.2049 17.9289 21.5109 17.5629ZM17.0625 14.6249C17.0625 14.1428 17.2055 13.6715 17.4733 13.2707C17.7411 12.8698 18.1218 12.5574 18.5672 12.3729C19.0126 12.1884 19.5027 12.1402 19.9755 12.2342C20.4484 12.3283 20.8827 12.5604 21.2236 12.9013C21.5645 13.2422 21.7966 13.6765 21.8907 14.1494C21.9847 14.6222 21.9364 15.1123 21.752 15.5577C21.5675 16.0031 21.255 16.3838 20.8542 16.6516C20.4534 16.9194 19.9821 17.0624 19.5 17.0624C18.8538 17.0616 18.2342 16.8046 17.7773 16.3476C17.3203 15.8907 17.0632 15.2711 17.0625 14.6249ZM2.0625 8.99988C2.0625 8.51779 2.20546 8.04652 2.47329 7.64568C2.74113 7.24483 3.12181 6.93241 3.56721 6.74792C4.0126 6.56344 4.5027 6.51517 4.97553 6.60922C5.44836 6.70327 5.88268 6.93542 6.22357 7.27631C6.56446 7.6172 6.79661 8.05152 6.89066 8.52435C6.98472 8.99718 6.93644 9.48728 6.75196 9.93267C6.56747 10.3781 6.25505 10.7588 5.8542 11.0266C5.45336 11.2944 4.98209 11.4374 4.5 11.4374C3.85376 11.4366 3.23421 11.1796 2.77725 10.7226C2.32029 10.2657 2.06325 9.64612 2.0625 8.99988ZM4.5 12.5624C5.34509 12.5633 6.15529 12.8995 6.75286 13.497C7.35043 14.0946 7.68656 14.9048 7.6875 15.7499V18.9374H1.3125V15.7499C1.31344 14.9048 1.64957 14.0946 2.24714 13.497C2.84471 12.8995 3.65491 12.5633 4.5 12.5624ZM1.3125 20.0624H15.3932C15.257 20.4866 15.1876 20.9294 15.1875 21.3749V22.6874H1.3125V20.0624ZM22.6875 22.6874H16.3125V21.3749C16.3125 20.5295 16.6483 19.7188 17.2461 19.121C17.8439 18.5232 18.6546 18.1874 19.5 18.1874C20.3454 18.1874 21.1561 18.5232 21.7539 19.121C22.3517 19.7188 22.6875 20.5295 22.6875 21.3749V22.6874Z" fill="black"/>
<path d="M11.5875 11.7001L14.4375 9.5625H20.625C21.0724 9.56201 21.5013 9.38407 21.8177 9.0677C22.1341 8.75134 22.312 8.3224 22.3125 7.875V1.875C22.312 1.4276 22.1341 0.998658 21.8177 0.682296C21.5013 0.365934 21.0724 0.187987 20.625 0.1875H12.375C11.9276 0.187987 11.4987 0.365934 11.1823 0.682296C10.8659 0.998658 10.688 1.4276 10.6875 1.875V11.25C10.6878 11.3543 10.717 11.4566 10.772 11.5453C10.827 11.634 10.9055 11.7056 10.9988 11.7523C11.0921 11.799 11.1966 11.8188 11.3005 11.8096C11.4045 11.8004 11.5038 11.7625 11.5875 11.7001ZM19.5 3.9375C19.6854 3.9375 19.8667 3.99248 20.0208 4.0955C20.175 4.19851 20.2952 4.34493 20.3661 4.51623C20.4371 4.68754 20.4557 4.87604 20.4195 5.0579C20.3833 5.23975 20.294 5.4068 20.1629 5.53791C20.0318 5.66902 19.8648 5.75831 19.6829 5.79449C19.501 5.83066 19.3125 5.81209 19.1412 5.74114C18.9699 5.67018 18.8235 5.55002 18.7205 5.39585C18.6175 5.24168 18.5625 5.06042 18.5625 4.875C18.5628 4.62645 18.6617 4.38816 18.8374 4.21241C19.0132 4.03666 19.2514 3.93779 19.5 3.9375ZM16.5 3.9375C16.6854 3.9375 16.8667 3.99248 17.0208 4.0955C17.175 4.19851 17.2952 4.34493 17.3661 4.51623C17.4371 4.68754 17.4557 4.87604 17.4195 5.0579C17.3833 5.23975 17.294 5.4068 17.1629 5.53791C17.0318 5.66902 16.8648 5.75831 16.6829 5.79449C16.501 5.83066 16.3125 5.81209 16.1412 5.74114C15.9699 5.67018 15.8235 5.55002 15.7205 5.39585C15.6175 5.24168 15.5625 5.06042 15.5625 4.875C15.5628 4.62645 15.6617 4.38816 15.8374 4.21241C16.0132 4.03666 16.2514 3.93779 16.5 3.9375ZM13.5 3.9375C13.6854 3.9375 13.8667 3.99248 14.0208 4.0955C14.175 4.19851 14.2952 4.34493 14.3661 4.51623C14.4371 4.68754 14.4557 4.87604 14.4195 5.0579C14.3833 5.23975 14.294 5.4068 14.1629 5.53791C14.0318 5.66902 13.8648 5.75831 13.6829 5.79449C13.501 5.83066 13.3125 5.81209 13.1412 5.74114C12.9699 5.67018 12.8235 5.55002 12.7205 5.39585C12.6175 5.24168 12.5625 5.06042 12.5625 4.875C12.5628 4.62645 12.6617 4.38816 12.8374 4.21241C13.0132 4.03666 13.2514 3.93779 13.5 3.9375Z" fill="#3E62AB"/>
</svg>
