<svg width="24" height="24" viewBox="0 0 24 24" fill="none" xmlns="http://www.w3.org/2000/svg">
<path d="M23.25 12.9375C23.1008 12.9375 22.9578 12.9968 22.8523 13.1023C22.7468 13.2078 22.6875 13.3508 22.6875 13.5V19.125C22.6875 19.4731 22.5492 19.8069 22.3031 20.0531C22.0569 20.2992 21.7231 20.4375 21.375 20.4375C21.0269 20.4375 20.6931 20.2992 20.4469 20.0531C20.2008 19.8069 20.0625 19.4731 20.0625 19.125V18.75C20.0625 18.0041 19.7662 17.2887 19.2387 16.7613C18.7113 16.2338 17.9959 15.9375 17.25 15.9375C16.5041 15.9375 15.7887 16.2338 15.2613 16.7613C14.7338 17.2887 14.4375 18.0041 14.4375 18.75V20.25C14.4368 20.8962 14.1797 21.5158 13.7227 21.9727C13.2658 22.4297 12.6462 22.6868 12 22.6875H10.2088C10.2755 22.5074 10.3106 22.3171 10.3125 22.125V17.625C10.312 17.1776 10.1341 16.7487 9.81771 16.4323C9.50134 16.1159 9.0724 15.938 8.625 15.9375H7.5C7.25144 15.9372 7.01313 15.8384 6.83738 15.6626C6.66162 15.4869 6.56276 15.2486 6.5625 15V9C6.56276 8.75144 6.66162 8.51313 6.83738 8.33738C7.01313 8.16162 7.25144 8.06276 7.5 8.0625H8.625C9.0724 8.06201 9.50134 7.88407 9.81771 7.5677C10.1341 7.25134 10.312 6.8224 10.3125 6.375V1.875C10.312 1.4276 10.1341 0.998658 9.81771 0.682296C9.50134 0.365934 9.0724 0.187987 8.625 0.1875H5.25C3.9078 0.188996 2.621 0.722845 1.67192 1.67192C0.722845 2.621 0.188996 3.9078 0.1875 5.25V18.75C0.188996 20.0922 0.722845 21.379 1.67192 22.3281C2.621 23.2772 3.9078 23.811 5.25 23.8125H12C12.9445 23.8114 13.85 23.4357 14.5179 22.7679C15.1857 22.1 15.5614 21.1945 15.5625 20.25V18.75C15.5625 18.3024 15.7403 17.8732 16.0568 17.5568C16.3732 17.2403 16.8024 17.0625 17.25 17.0625C17.6976 17.0625 18.1268 17.2403 18.4432 17.5568C18.7597 17.8732 18.9375 18.3024 18.9375 18.75V19.125C18.9375 19.7715 19.1943 20.3915 19.6514 20.8486C20.1085 21.3057 20.7285 21.5625 21.375 21.5625C22.0215 21.5625 22.6415 21.3057 23.0986 20.8486C23.5557 20.3915 23.8125 19.7715 23.8125 19.125V13.5C23.8125 13.3508 23.7532 13.2078 23.6477 13.1023C23.5422 12.9968 23.3992 12.9375 23.25 12.9375ZM9.1875 17.625V22.125C9.18734 22.2741 9.12802 22.4171 9.02257 22.5226C8.91711 22.628 8.77413 22.6873 8.625 22.6875H8.0625V17.0625H8.625C8.77413 17.0627 8.91711 17.122 9.02257 17.2274C9.12802 17.3329 9.18734 17.4759 9.1875 17.625ZM9.1875 1.875V6.375C9.18734 6.52413 9.12802 6.66711 9.02257 6.77257C8.91711 6.87802 8.77413 6.93734 8.625 6.9375H8.0625V1.3125H8.625C8.77413 1.31266 8.91711 1.37198 9.02257 1.47743C9.12802 1.58289 9.18734 1.72587 9.1875 1.875ZM1.3125 18.75V5.25C1.31367 4.20607 1.72889 3.20523 2.46706 2.46706C3.20523 1.72889 4.20607 1.31367 5.25 1.3125H6.9375V7.01747C6.50608 7.14018 6.12635 7.40002 5.85572 7.75771C5.58509 8.11539 5.43828 8.55147 5.4375 9V15C5.43828 15.4485 5.58509 15.8846 5.85572 16.2423C6.12635 16.6 6.50608 16.8598 6.9375 16.9825V22.6875H5.25C4.20607 22.6863 3.20523 22.2711 2.46706 21.5329C1.72889 20.7948 1.31367 19.7939 1.3125 18.75Z" fill="black"/>
<path d="M19.6703 3.18755C19.439 3.18478 19.21 3.23325 18.9997 3.3295C18.7895 3.42574 18.6031 3.56737 18.4541 3.74419C18.4012 3.81487 18.3326 3.87223 18.2536 3.91172C18.1747 3.95121 18.0877 3.97173 17.9994 3.97166C17.9112 3.97158 17.8241 3.95092 17.7453 3.9113C17.6664 3.87168 17.5979 3.8142 17.5451 3.74344C17.3961 3.56689 17.2098 3.42549 16.9997 3.32938C16.7895 3.23328 16.5607 3.18484 16.3297 3.18755C16.1781 3.19011 16.0286 3.22317 15.8901 3.28477C15.7515 3.34636 15.6269 3.43523 15.5234 3.54607C15.42 3.65692 15.34 3.78745 15.2881 3.9299C15.2362 4.07235 15.2136 4.22379 15.2215 4.37518C15.2215 5.34234 16.2304 6.38311 18 7.25177C19.7695 6.38311 20.7784 5.34234 20.7784 4.37518C20.7863 4.22379 20.7637 4.07235 20.7118 3.9299C20.66 3.78745 20.5799 3.65692 20.4765 3.54607C20.3731 3.43523 20.2484 3.34636 20.1099 3.28477C19.9713 3.22317 19.8218 3.19011 19.6703 3.18755Z" fill="#3E62AB"/>
<path d="M20.25 0.1875H15.75C14.8055 0.188573 13.9 0.564251 13.2321 1.23212C12.5643 1.89998 12.1886 2.8055 12.1875 3.75V6C12.1886 6.9445 12.5643 7.85002 13.2321 8.51788C13.9 9.18575 14.8055 9.56143 15.75 9.5625H15.9375V11.25C15.9377 11.3575 15.9686 11.4627 16.0267 11.5532C16.0848 11.6437 16.1676 11.7156 16.2653 11.7605C16.363 11.8055 16.4715 11.8215 16.578 11.8066C16.6845 11.7918 16.7845 11.7469 16.8662 11.677L19.333 9.5625H20.25C21.1945 9.56143 22.1 9.18575 22.7679 8.51788C23.4357 7.85002 23.8114 6.9445 23.8125 6V3.75C23.8114 2.8055 23.4357 1.89998 22.7679 1.23212C22.1 0.564251 21.1945 0.188573 20.25 0.1875ZM18.2369 8.38513C18.1627 8.41962 18.0818 8.43749 18 8.43749C17.9182 8.43749 17.8373 8.41962 17.7631 8.38513C14.573 6.90307 14.0966 5.23645 14.0966 4.37512C14.0882 4.07583 14.1397 3.77787 14.2479 3.49872C14.3562 3.21957 14.5191 2.96484 14.7271 2.74946C14.9351 2.53408 15.1839 2.36237 15.4591 2.24441C15.7343 2.12645 16.0303 2.0646 16.3297 2.0625C16.9345 2.05955 17.5228 2.25998 18 2.63159C18.4772 2.25998 19.0655 2.05955 19.6703 2.0625C19.9697 2.0646 20.2657 2.12645 20.5409 2.24441C20.8161 2.36237 21.0649 2.53408 21.2729 2.74946C21.4809 2.96485 21.6438 3.21958 21.7521 3.49873C21.8603 3.77788 21.9118 4.07583 21.9034 4.37512C21.9034 5.23645 21.427 6.90307 18.2369 8.38513Z" fill="#3E62AB"/>
</svg>
