<svg width="24" height="24" viewBox="0 0 24 24" fill="none" xmlns="http://www.w3.org/2000/svg">
<path d="M22.125 0.1875H18.7159C18.5668 0.1875 18.4237 0.246763 18.3182 0.352252C18.2127 0.457742 18.1534 0.600816 18.1534 0.75C18.1534 0.899184 18.2127 1.04226 18.3182 1.14775C18.4237 1.25324 18.5668 1.3125 18.7159 1.3125H22.125C22.2741 1.31266 22.4171 1.37198 22.5226 1.47743C22.628 1.58289 22.6873 1.72587 22.6875 1.875V22.125C22.6873 22.2741 22.628 22.4171 22.5226 22.5226C22.4171 22.628 22.2741 22.6873 22.125 22.6875H21.1875V19.125C21.1868 18.5788 21.0457 18.042 20.7777 17.5661C20.5097 17.0902 20.1238 16.6912 19.6572 16.4074C20.0165 16.0743 20.267 15.6406 20.3762 15.163C20.4854 14.6854 20.4481 14.1859 20.2692 13.7298C20.0903 13.2737 19.7781 12.8821 19.3733 12.606C18.9685 12.33 18.4899 12.1823 18 12.1823C17.5101 12.1823 17.0315 12.33 16.6267 12.606C16.2219 12.8821 15.9097 13.2737 15.7308 13.7298C15.5519 14.1859 15.5146 14.6854 15.6238 15.163C15.733 15.6406 15.9835 16.0743 16.3428 16.4074C15.9948 16.6205 15.6906 16.898 15.4467 17.2251C15.0863 16.5747 14.5503 16.0387 13.8999 15.6784C14.4381 15.2788 14.8367 14.7197 15.039 14.0806C15.2412 13.4415 15.2368 12.7549 15.0264 12.1185C14.816 11.482 14.4103 10.928 13.867 10.5354C13.3236 10.1428 12.6703 9.93144 12 9.93144C11.3297 9.93144 10.6764 10.1428 10.133 10.5354C9.58971 10.928 9.184 11.482 8.97359 12.1185C8.76318 12.7549 8.75879 13.4415 8.96104 14.0806C9.16329 14.7197 9.56188 15.2788 10.1001 15.6784C9.4251 16.0526 8.87404 16.6159 8.51465 17.299C8.21136 16.8919 7.82062 16.558 7.3712 16.3219C7.71176 15.9726 7.93967 15.5291 8.02545 15.0488C8.11122 14.5685 8.05092 14.0735 7.85234 13.6279C7.65376 13.1822 7.32604 12.8064 6.91156 12.549C6.49708 12.2916 6.01491 12.1645 5.52741 12.1842C5.03992 12.2038 4.56952 12.3692 4.17707 12.6591C3.78461 12.9489 3.48815 13.3499 3.32602 13.81C3.1639 14.2702 3.14357 14.7684 3.26766 15.2403C3.39176 15.7121 3.65457 16.1359 4.02211 16.4567C3.56532 16.744 3.18341 17.1357 2.90788 17.5997C2.63236 18.0636 2.47113 18.5865 2.4375 19.125V22.6875H1.875C1.72587 22.6873 1.58289 22.628 1.47743 22.5226C1.37198 22.4171 1.31266 22.2741 1.3125 22.125V1.875C1.31266 1.72587 1.37198 1.58289 1.47743 1.47743C1.58289 1.37198 1.72587 1.31266 1.875 1.3125H5.28406C5.43324 1.3125 5.57632 1.25324 5.6818 1.14775C5.78729 1.04226 5.84656 0.899184 5.84656 0.75C5.84656 0.600816 5.78729 0.457742 5.6818 0.352252C5.57632 0.246763 5.43324 0.1875 5.28406 0.1875H1.875C1.4276 0.187987 0.998658 0.365934 0.682296 0.682296C0.365934 0.998658 0.187987 1.4276 0.1875 1.875V22.125C0.187987 22.5724 0.365934 23.0013 0.682296 23.3177C0.998658 23.6341 1.4276 23.812 1.875 23.8125H22.125C22.5724 23.812 23.0013 23.6341 23.3177 23.3177C23.6341 23.0013 23.812 22.5724 23.8125 22.125V1.875C23.812 1.4276 23.6341 0.998658 23.3177 0.682296C23.0013 0.365934 22.5724 0.187987 22.125 0.1875ZM16.6875 14.625C16.6875 14.3654 16.7645 14.1117 16.9087 13.8958C17.0529 13.68 17.2579 13.5117 17.4977 13.4124C17.7376 13.3131 18.0015 13.2871 18.2561 13.3377C18.5107 13.3884 18.7445 13.5134 18.9281 13.6969C19.1116 13.8805 19.2366 14.1143 19.2873 14.3689C19.3379 14.6235 19.3119 14.8874 19.2126 15.1273C19.1133 15.3671 18.945 15.5721 18.7292 15.7163C18.5133 15.8605 18.2596 15.9375 18 15.9375C17.652 15.9371 17.3184 15.7987 17.0724 15.5526C16.8263 15.3066 16.6879 14.973 16.6875 14.625ZM18 17.0625C18.5468 17.0631 19.071 17.2807 19.4577 17.6673C19.8443 18.054 20.0619 18.5782 20.0625 19.125V22.6875H15.9375V19.125C15.9381 18.5782 16.1557 18.054 16.5423 17.6673C16.929 17.2807 17.4532 17.0631 18 17.0625ZM9.9375 13.125C9.9375 12.7171 10.0585 12.3183 10.2851 11.9791C10.5117 11.64 10.8338 11.3756 11.2107 11.2195C11.5876 11.0634 12.0023 11.0225 12.4024 11.1021C12.8025 11.1817 13.17 11.3781 13.4584 11.6666C13.7469 11.955 13.9433 12.3225 14.0229 12.7226C14.1025 13.1227 14.0616 13.5374 13.9055 13.9143C13.7494 14.2912 13.485 14.6133 13.1459 14.8399C12.8067 15.0665 12.4079 15.1875 12 15.1875C11.4532 15.1869 10.9289 14.9694 10.5423 14.5827C10.1556 14.1961 9.93812 13.6718 9.9375 13.125ZM12 16.3125C12.7457 16.3133 13.4606 16.6099 13.9878 17.1372C14.5151 17.6644 14.8117 18.3793 14.8125 19.125V22.6875H9.1875V19.125C9.18831 18.3793 9.48489 17.6644 10.0122 17.1372C10.5394 16.6099 11.2543 16.3133 12 16.3125ZM5.625 13.3125C5.88459 13.3125 6.13835 13.3895 6.35419 13.5337C6.57003 13.6779 6.73825 13.8829 6.83759 14.1227C6.93693 14.3626 6.96292 14.6265 6.91228 14.8811C6.86164 15.1357 6.73663 15.3695 6.55308 15.5531C6.36952 15.7366 6.13566 15.8616 5.88106 15.9123C5.62646 15.9629 5.36256 15.9369 5.12273 15.8376C4.8829 15.7383 4.67792 15.57 4.5337 15.3542C4.38948 15.1383 4.3125 14.8846 4.3125 14.625C4.31292 14.277 4.45134 13.9434 4.69739 13.6974C4.94344 13.4513 5.27703 13.3129 5.625 13.3125ZM3.5625 19.3125C3.5625 18.7158 3.79955 18.1435 4.22151 17.7215C4.64347 17.2996 5.21576 17.0625 5.8125 17.0625C6.40924 17.0625 6.98153 17.2996 7.40349 17.7215C7.82545 18.1435 8.0625 18.7158 8.0625 19.3125V22.6875H3.5625V19.3125Z" fill="black"/>
<path d="M12.2372 9.51019C17.0882 7.25598 17.8126 4.7771 17.8126 3.50012C17.8253 3.07217 17.7524 2.64598 17.5983 2.24654C17.4442 1.84709 17.2119 1.48243 16.915 1.17392C16.6182 0.865407 16.2627 0.619252 15.8695 0.44988C15.4763 0.280508 15.0532 0.191326 14.6251 0.18756C13.6585 0.182207 12.7239 0.533399 12.0001 1.17395C11.2762 0.533399 10.3416 0.182207 9.37508 0.18756C8.94695 0.191326 8.52388 0.280508 8.13066 0.44988C7.73744 0.619252 7.38198 0.865407 7.08512 1.17392C6.78825 1.48243 6.55595 1.84709 6.40183 2.24654C6.24771 2.64598 6.17487 3.07217 6.18757 3.50012C6.18757 4.7771 6.91194 7.25598 11.763 9.51019C11.8372 9.54469 11.9182 9.56256 12.0001 9.56256C12.082 9.56256 12.1629 9.54469 12.2372 9.51019ZM14.6251 1.31256C14.9057 1.31561 15.1829 1.37522 15.44 1.48783C15.697 1.60044 15.9288 1.76373 16.1213 1.96794C16.3139 2.17215 16.4632 2.41309 16.5605 2.67635C16.6578 2.93961 16.701 3.21978 16.6876 3.50012C16.6876 3.64931 16.6283 3.79238 16.5228 3.89787C16.4173 4.00336 16.2743 4.06262 16.1251 4.06262C15.9759 4.06262 15.8328 4.00336 15.7273 3.89787C15.6218 3.79238 15.5626 3.64931 15.5626 3.50012C15.5731 3.36831 15.557 3.23573 15.5152 3.11028C15.4734 2.98483 15.4068 2.86908 15.3193 2.76992C15.2318 2.67077 15.1253 2.59024 15.006 2.53314C14.8867 2.47604 14.7572 2.44353 14.6251 2.43756C14.4759 2.43756 14.3328 2.3783 14.2273 2.27281C14.1218 2.16732 14.0626 2.02424 14.0626 1.87506C14.0626 1.72588 14.1218 1.5828 14.2273 1.47731C14.3328 1.37182 14.4759 1.31256 14.6251 1.31256Z" fill="#3E62AB"/>
</svg>
