<svg width="24" height="24" viewBox="0 0 24 24" fill="none" xmlns="http://www.w3.org/2000/svg">
<path d="M19.2501 24H15.2503C14.8363 24 14.5003 23.6641 14.5003 23.2501V16.7501C14.5003 16.6121 14.3883 16.5002 14.2502 16.5002H9.75029C9.61241 16.5002 9.50035 16.6121 9.50035 16.7501V23.2501C9.50035 23.6641 9.16436 24 8.75037 24H4.75051C3.78557 24 3.00043 23.2151 3.00043 22.25V13.0002H1.25052C0.561512 13.0002 0.000488281 12.4392 0.000488281 11.7502C0.000488281 11.4193 0.135617 11.0952 0.370537 10.8603L11.4813 0.208553C11.7714 -0.0695786 12.2293 -0.0695786 12.5193 0.208553L23.6191 10.8482C23.865 11.0952 24 11.4193 24 11.7502C24 12.4392 23.4391 13.0002 22.7501 13.0002H21.0001V22.25C21.0001 23.2151 20.2151 24 19.2501 24ZM16.0003 22.5001H19.2501C19.3862 22.5001 19.5001 22.386 19.5001 22.25V12.2502C19.5001 11.8362 19.8361 11.5002 20.2501 11.5002H22.1311L12.0002 1.78945L1.86959 11.5002H3.75041C4.1644 11.5002 4.50039 11.8362 4.50039 12.2502V22.25C4.50039 22.386 4.61447 22.5001 4.75051 22.5001H8.00038V16.7501C8.00038 15.7852 8.78534 15.0002 9.75029 15.0002H14.2502C15.2153 15.0002 16.0003 15.7852 16.0003 16.7501V22.5001Z" fill="#3E62AB"/>
</svg>
