<svg width="24" height="24" viewBox="0 0 24 24" fill="none" xmlns="http://www.w3.org/2000/svg">
<g clip-path="url(#clip0)">
<path d="M14.8604 15.4676H14.1573V9.13991C14.1573 8.75164 13.8425 8.43683 13.4542 8.43683H9.23579C8.84753 8.43683 8.53271 8.75159 8.53271 9.13991V11.9522C8.53271 12.3404 8.84748 12.6552 9.23579 12.6552H9.93887V15.4675H9.23579C8.84753 15.4675 8.53271 15.7823 8.53271 16.1706V18.9828C8.53271 19.3711 8.84748 19.6859 9.23579 19.6859H14.8604C15.2486 19.6859 15.5634 19.3712 15.5634 18.9828V16.1706C15.5634 15.7824 15.2486 15.4676 14.8604 15.4676ZM14.1573 18.2799H9.93887V16.8737H10.6419C11.0302 16.8737 11.345 16.5589 11.345 16.1706V11.9522C11.345 11.5639 11.0302 11.2491 10.6419 11.2491H9.93887V9.84298H12.7511V16.1706C12.7511 16.5589 13.0659 16.8737 13.4542 16.8737H14.1573V18.2799Z" fill="#3E62AB"/>
<path d="M12.0478 2.81256C10.8848 2.81256 9.9386 3.75873 9.9386 4.92179C9.9386 6.08485 10.8848 7.03102 12.0478 7.03102C13.2109 7.03102 14.1571 6.08485 14.1571 4.92179C14.1571 3.75873 13.2109 2.81256 12.0478 2.81256ZM12.0478 5.62482C11.6602 5.62482 11.3448 5.30945 11.3448 4.92174C11.3448 4.53409 11.6602 4.21867 12.0478 4.21867C12.4355 4.21867 12.7509 4.53409 12.7509 4.92174C12.7509 5.30945 12.4355 5.62482 12.0478 5.62482Z" fill="#3E62AB"/>
<path d="M12.0477 0.00221252C5.4907 0.00221252 0.00183068 5.29983 0.00183068 11.9544C0.00183068 14.2679 0.665626 16.5671 1.87762 18.4725L0.0521275 23.0362C-0.178544 23.6128 0.397877 24.1774 0.966001 23.9501L5.52974 22.1246C7.43511 23.3366 9.73428 24.0004 12.0478 24.0004C18.7096 24.0004 24 18.5044 24 11.9545C24 5.34844 18.6543 0.00221252 12.0477 0.00221252ZM12.0477 22.6036C9.88513 22.6036 7.7398 21.9411 6.00702 20.7551C5.8132 20.6224 5.56635 20.5955 5.34881 20.6825L1.96692 22.0352L3.31968 18.6534C3.40678 18.4356 3.37954 18.1887 3.24707 17.9952C2.06109 16.2624 1.39856 14.1171 1.39856 11.9545C1.39856 6.13936 6.18093 1.39904 12.0477 1.39904C17.8629 1.39904 22.6032 6.14873 22.6032 11.9638C22.6032 17.8306 17.8629 22.6036 12.0477 22.6036Z" fill="#3E62AB"/>
</g>
<defs>
<clipPath id="clip0">
<rect width="24" height="24" fill="white"/>
</clipPath>
</defs>
</svg>
