<svg width="24" height="24" viewBox="0 0 24 24" fill="none" xmlns="http://www.w3.org/2000/svg">
<path d="M23.3827 17.7016L20.3991 14.718C19.5766 13.8955 18.2381 13.8955 17.4156 14.718L16.0594 16.0742C15.4363 16.6973 14.4223 16.6971 13.7993 16.0744L7.92121 10.1913C7.2966 9.56664 7.2965 8.55569 7.92121 7.93098C8.13964 7.71254 8.76688 7.08531 9.27735 6.57484C10.0963 5.75593 10.1077 4.42163 9.27655 3.59054L6.2938 0.617158C5.47123 -0.205359 4.13281 -0.205359 3.31245 0.615001C2.69857 1.22353 2.50057 1.41985 2.22532 1.69271C-0.740936 4.65891 -0.740936 9.48531 2.22518 12.4514L11.5389 21.77C14.5121 24.7432 19.3243 24.7435 22.2977 21.77L23.3827 20.6851C24.2052 19.8625 24.2052 18.5241 23.3827 17.7016ZM4.30479 1.61166C4.57897 1.33749 5.02503 1.33744 5.30009 1.61241L8.28285 4.58579C8.55768 4.86062 8.55768 5.30542 8.28285 5.58029L7.78555 6.07754L3.81007 2.10207L4.30479 1.61166ZM12.5336 20.7756L3.21982 11.457C0.924911 9.16206 0.79877 5.55854 2.83188 3.11293L6.79583 7.07687C5.75426 8.25761 5.79767 10.0568 6.92647 11.1856L12.8044 17.0685C12.8045 17.0685 12.8046 17.0686 12.8046 17.0687C13.9322 18.1963 15.7313 18.2425 16.9135 17.1995L20.8775 21.1636C18.4397 23.1932 14.8443 23.0864 12.5336 20.7756ZM22.3882 19.6906L21.8909 20.1879L17.9129 16.2098L18.4101 15.7125C18.6843 15.4384 19.1304 15.4383 19.4046 15.7125L22.3882 18.6961C22.6624 18.9703 22.6624 19.4165 22.3882 19.6906Z" fill="#3E62AB"/>
</svg>
