<svg width="23" height="23" viewBox="0 0 23 23" fill="none" xmlns="http://www.w3.org/2000/svg">
<path d="M9.53519 17.5304L6.82499 20.2406C5.7014 21.3642 3.88182 21.3642 2.75918 20.2408C1.6363 19.1179 1.6363 17.2982 2.75895 16.1755L8.18029 10.7542C9.30294 9.63151 11.1227 9.63151 12.2453 10.7542C12.6196 11.1285 13.2264 11.1285 13.6006 10.7542C13.9749 10.38 13.9749 9.77315 13.6006 9.3989C11.7295 7.52772 8.69617 7.52772 6.82499 9.3989L1.4037 14.8202C-0.467491 16.6914 -0.467491 19.7247 1.4037 21.5958C3.27466 23.468 6.30816 23.468 8.18033 21.5958L10.8905 18.8856C11.2648 18.5114 11.2648 17.9046 10.8905 17.5303C10.5163 17.1561 9.90943 17.1561 9.53519 17.5304Z" fill="#3E62AB"/>
<path d="M21.5964 1.40336C19.7252 -0.467827 16.6909 -0.467827 14.8198 1.40336L11.5681 4.655C11.1939 5.02925 11.1939 5.63606 11.5681 6.01031C11.9424 6.38455 12.5492 6.38455 12.9234 6.01031L16.1751 2.75866C17.2977 1.63597 19.1184 1.63597 20.2411 2.75866C21.3637 3.88131 21.3637 5.70106 20.2411 6.82371L14.2783 12.7865C13.1556 13.9092 11.3359 13.9092 10.2133 12.7865C9.83901 12.4123 9.2322 12.4123 8.85796 12.7865C8.48371 13.1608 8.48371 13.7676 8.85796 14.1418C10.7291 16.013 13.7624 16.013 15.6336 14.1418L21.5964 8.17906C23.4676 6.30787 23.4676 3.27455 21.5964 1.40336Z" fill="#3E62AB"/>
</svg>
