<svg width="32" height="32" viewBox="0 0 32 32" fill="none" xmlns="http://www.w3.org/2000/svg">
<path d="M15.5099 21.4511C14.5949 21.4511 13.8542 22.2136 13.8542 23.1286C13.8542 24.0218 14.5731 24.8061 15.5099 24.8061C16.4466 24.8061 17.1874 24.0219 17.1874 23.1286C17.1874 22.2136 16.4249 21.4511 15.5099 21.4511Z" fill="#3E62AB"/>
<path d="M15.7931 8.75018C12.8521 8.75018 11.5014 10.493 11.5014 11.6694C11.5014 12.5191 12.2202 12.9112 12.8085 12.9112C13.9849 12.9112 13.5056 11.2337 15.7277 11.2337C16.8171 11.2337 17.6885 11.7131 17.6885 12.7152C17.6885 13.8917 16.4685 14.567 15.7496 15.177C15.1178 15.7216 14.2899 16.6149 14.2899 18.4884C14.2899 19.6212 14.5949 19.9481 15.4881 19.9481C16.5556 19.9481 16.7734 19.4688 16.7734 19.0549C16.7734 17.922 16.7953 17.2684 17.9935 16.3317C18.5817 15.8742 20.4335 14.3927 20.4335 12.3449C20.4335 10.297 18.5817 8.75018 15.7931 8.75018Z" fill="#3E62AB"/>
<path d="M16 0C7.15725 0 0 7.15606 0 16V30.75C0 31.4404 0.559625 32 1.25 32H16C24.8427 32 32 24.8439 32 16C32 7.15725 24.8439 0 16 0ZM16 29.5H2.5V16C2.5 8.53894 8.53794 2.5 16 2.5C23.4611 2.5 29.5 8.53794 29.5 16C29.5 23.4611 23.4621 29.5 16 29.5Z" fill="#3E62AB"/>
</svg>
