<svg width="32" height="32" viewBox="0 0 32 32" fill="none" xmlns="http://www.w3.org/2000/svg">
<circle cx="16" cy="16" r="16" fill="white"/>
<path d="M18.8875 24.3125C19.0938 24.5188 19.3563 24.6313 19.6656 24.6313C20.2844 24.6313 20.7813 24.1438 20.7813 23.525C20.7813 23.2156 20.65 22.9344 20.4344 22.7188L13.8719 16.3063L20.4344 9.9125C20.65 9.69687 20.7813 9.40625 20.7813 9.10625C20.7813 8.4875 20.2844 8 19.6656 8C19.3563 8 19.0938 8.1125 18.8875 8.31875L11.5938 15.4437C11.3313 15.6875 11.2094 15.9875 11.2 16.3156C11.2 16.6438 11.3313 16.925 11.5938 17.1781L18.8875 24.3125Z" fill="#F5C041"/>
</svg>
