<svg width="364" height="302" viewBox="0 0 364 302" fill="none" xmlns="http://www.w3.org/2000/svg">
<path d="M88.3039 321.45C88.3039 321.45 60.2139 235.01 87.5839 231.45C114.954 227.89 136.584 281.88 126.514 316.09C116.444 350.3 88.3039 321.45 88.3039 321.45Z" fill="#3D1B1F"/>
<path d="M71.054 87.59C71.054 87.59 92.884 194.36 75.424 216.16C59.424 236.26 34.874 232.56 29.034 223.49C14.384 200.7 31.714 134.41 33.444 121.38C35.174 108.35 42.574 71.38 46.444 65.55C50.314 59.72 71.054 87.59 71.054 87.59Z" fill="#3D1B1F"/>
<path d="M67.354 137.92C67.354 137.92 94.684 123.36 118.234 154.23C118.234 154.23 137.564 181.12 138.394 192.06C139.194 202.56 127.534 225.13 127.914 248.74C128.294 272.35 37.354 247.27 37.354 247.27C37.354 247.27 36.944 159.08 67.354 137.92Z" fill="#48416B"/>
<path d="M110.442 71.0662C119.475 65.9577 122.656 54.4938 117.548 45.4608C112.439 36.4279 100.975 33.2465 91.9421 38.355C82.9092 43.4635 79.7278 54.9274 84.8363 63.9604C89.9448 72.9933 101.409 76.1747 110.442 71.0662Z" fill="#3D1B1F"/>
<path d="M118.194 88.42C118.565 89.174 119.074 89.8522 119.694 90.42C120.304 91.05 120.804 91.63 120.694 92.42C120.385 93.6485 119.882 94.8198 119.204 95.89C120.02 96.2289 120.704 96.8236 121.153 97.5846C121.602 98.3456 121.792 99.2318 121.694 100.11C121.454 103.35 119.454 102.6 119.454 102.6V102.69C119.714 103.53 121.714 110.21 118.684 112.29C115.444 114.53 99.554 114.78 99.554 114.78C99.554 114.78 93.0439 128.61 98.924 139.3C100.284 141.76 104.994 147.3 107.584 150.38C111.044 154.48 64.194 145.91 66.234 137.83C74.124 106.57 69.234 47.92 69.234 47.92C69.234 47.92 90.374 42.46 100.814 47.68C111.254 52.9 112.484 63.33 112.734 66.81C112.984 70.29 111.484 73.53 116.214 76.26C120.944 78.99 125.214 80.26 122.934 82.47C120.654 84.68 117.454 86.68 118.194 88.42Z" fill="#E2887F"/>
<path d="M99.514 75.73C99.514 75.73 105.784 75.73 109.324 71.87C109.324 71.87 110.444 73.32 108.034 75.25L107.554 79.25L103.694 76.52C103.694 76.52 99.994 76.36 99.514 75.73Z" fill="#7E373F"/>
<path d="M121.674 100.09C121.434 103.33 119.434 102.58 119.434 102.58V102.67C115.064 102.42 110.324 96.2 110.324 96.2C114.634 95.98 118.944 91.2 119.664 90.39C120.274 91.02 120.774 91.6 120.664 92.39C120.355 93.6185 119.852 94.7898 119.174 95.86C119.994 96.1977 120.681 96.7933 121.132 97.5565C121.583 98.3197 121.773 99.2091 121.674 100.09Z" fill="#D14B1D"/>
<path d="M90.974 42.82C90.974 42.82 102.074 57.34 90.974 67.3C79.874 77.26 76.814 83.3 76.244 95.58C76.244 95.58 37.174 90.64 47.134 64.17C57.094 37.7 80.154 37.42 90.974 42.82Z" fill="#3D1B1F"/>
<path d="M76.7039 87.36C76.7039 87.36 74.7039 78.23 66.8539 79.66C59.0039 81.09 59.8539 95.96 69.7239 98.82C79.5939 101.68 77.5939 88.26 76.7039 87.36Z" fill="#E2887F"/>
<path d="M97.344 70.62C97.344 70.62 102.634 63.87 108.634 66.01C108.634 66.01 109.134 64.09 107.954 63.23C106.774 62.37 99.704 62.59 97.344 70.62Z" fill="#3D1B1F"/>
<path d="M64.814 86.36C64.814 86.36 70.964 83.36 74.574 90.81C74.574 90.82 73.784 80.62 64.814 86.36Z" fill="#7E373F"/>
<path d="M72.654 87.15C72.654 87.15 67.024 90.9 72.344 94.22C72.344 94.22 66.064 92.83 70.654 86.48L72.654 87.15Z" fill="#7E373F"/>
<path d="M48.7839 295.89C48.0139 294.75 45.5939 161.72 65.4739 155.6C85.3539 149.48 88.7939 179.31 88.4139 188.1C88.2239 192.32 86.1939 222.22 87.9439 247.1C89.8339 274.03 95.5439 296.1 95.9439 299.85C96.7039 307.16 48.7839 295.89 48.7839 295.89Z" fill="#5E558C"/>
<path d="M71.714 95.17L66.124 115.15L79.394 115.23L71.714 95.17Z" fill="#3E62AB"/>
<path d="M182.834 236.36L248.924 244.25L243.004 315.27L156.374 311.96L182.834 236.36Z" fill="#52211D"/>
<path d="M292.284 177.24C292.284 177.24 327.534 160.69 345.494 199.37C345.494 199.37 360.114 222.07 362.634 233.37C365.154 244.67 354.504 270.27 354.924 296.27C355.344 322.27 272.054 295.85 272.054 295.85C272.054 295.85 261.884 193.72 292.284 177.24Z" fill="#48416B"/>
<path d="M347.694 119.36C348.089 120.189 348.655 120.925 349.354 121.52C350.024 122.23 350.574 122.86 350.434 123.74C350.091 125.091 349.537 126.38 348.794 127.56C349.692 127.935 350.445 128.59 350.939 129.429C351.433 130.267 351.641 131.243 351.534 132.21C351.264 135.78 349.064 134.95 349.064 134.95C349.07 134.983 349.07 135.017 349.064 135.05C349.354 135.97 347.744 143.57 344.414 145.87C340.884 148.36 327.184 148.36 327.184 148.36C327.184 148.36 320.264 164.91 327.314 178.66C328.204 180.41 339.224 192.59 336.634 193.24C333.724 193.97 323.964 186.55 311.754 183.33C301.654 180.66 289.474 180.55 289.474 180.55C289.474 180.55 294.564 157.76 294.774 151.11C295.384 131.69 293.774 74.75 293.774 74.75C293.774 74.75 317.044 68.75 328.544 74.47C340.044 80.19 343.014 89.36 343.284 93.15C343.554 96.94 340.374 105.06 345.584 108.07C350.794 111.08 351.364 111.35 351.274 114.07C351.184 116.79 347.324 118.36 347.694 119.36Z" fill="#E4AA66"/>
<path d="M327.134 105.36C327.134 105.36 334.034 105.36 337.924 101.11C337.924 101.11 339.164 102.7 336.514 104.83L335.984 109.25L331.734 106.25C331.734 106.25 327.664 106.11 327.134 105.36Z" fill="#52211D"/>
<path d="M351.534 132.22C351.264 135.79 349.064 134.96 349.064 134.96C349.07 134.993 349.07 135.027 349.064 135.06C344.254 134.79 339.064 127.94 339.064 127.94C343.814 127.7 348.554 122.46 349.354 121.53C350.024 122.24 350.574 122.87 350.434 123.75C350.091 125.101 349.537 126.39 348.794 127.57C349.692 127.945 350.444 128.6 350.938 129.439C351.432 130.277 351.641 131.253 351.534 132.22Z" fill="#BC6E67"/>
<path d="M302.014 118.2C302.014 118.2 299.844 108.2 291.174 109.73C282.504 111.26 283.484 127.67 294.324 130.82C305.164 133.97 303.004 119.19 302.014 118.2Z" fill="#8E3A32"/>
<path d="M324.744 99.77C324.744 99.77 330.574 92.34 337.174 94.7C337.174 94.7 337.724 92.58 336.424 91.63C335.124 90.68 327.344 90.92 324.744 99.77Z" fill="#52211D"/>
<path d="M288.884 117.11C288.884 117.11 295.654 113.84 299.624 122.02C299.664 122.02 298.794 110.78 288.884 117.11Z" fill="#52211D"/>
<path d="M297.554 117.97C297.554 117.97 291.364 122.1 297.214 125.76C297.214 125.76 290.294 124.23 295.354 117.24L297.554 117.97Z" fill="#52211D"/>
<path d="M295.074 131.45C295.074 132.202 295.297 132.937 295.715 133.562C296.133 134.187 296.727 134.674 297.422 134.962C298.117 135.249 298.882 135.324 299.619 135.176C300.356 135.029 301.033 134.666 301.565 134.133C302.096 133.601 302.457 132.923 302.602 132.185C302.748 131.447 302.671 130.683 302.382 129.989C302.093 129.295 301.604 128.702 300.978 128.286C300.352 127.869 299.616 127.648 298.864 127.65C297.858 127.653 296.894 128.054 296.183 128.767C295.473 129.479 295.074 130.444 295.074 131.45Z" fill="#FAE0C8"/>
<path d="M308.884 95.21C308.884 95.21 313.574 92.65 326.714 88.94C339.854 85.23 343.314 89.39 342.714 85.94C342.114 82.49 331.354 60.94 298.304 67.55L308.884 95.21Z" fill="#E0656E"/>
<path d="M347.984 201.67C347.984 201.67 307.394 211.08 276.574 192.9C276.574 192.9 287.284 158.41 287.284 150.83C287.269 150.403 287.198 149.979 287.074 149.57C286.917 149.056 286.73 148.552 286.514 148.06C281.774 136.96 257.084 106.23 278.374 78.92C298.684 52.92 330.004 70.92 330.004 70.92C330.004 70.92 301.154 86.26 310.314 126.92C314.044 143.45 327.774 148.92 327.804 149.33C328.088 152.566 328.566 155.781 329.234 158.96C329.364 159.59 329.494 160.21 329.654 160.83C330.334 163.83 331.164 166.83 332.084 169.64L332.804 171.8C336.519 182.385 341.624 192.429 347.984 201.67Z" fill="#F397B4"/>
<path d="M285.464 163.07C285.464 163.07 324.214 171.07 335.074 171.92C335.074 171.92 350.074 199.3 347.984 201.67C345.894 204.04 291.214 182.56 285.464 163.07Z" fill="#F397B4"/>
<path d="M332.804 171.79C318.624 171.71 296.854 164.7 295.504 164.26C313.804 169.2 327.704 169.64 332.084 169.63L332.804 171.79Z" fill="#E384A2"/>
<path d="M329.654 160.82C305.454 157.74 293.174 153.06 287.074 149.57C286.916 149.056 286.73 148.552 286.514 148.06C300.454 155.42 319.184 158.06 329.234 158.95C329.364 159.58 329.494 160.2 329.654 160.82Z" fill="#E384A2"/>
<path d="M183.884 103.6C183.884 103.6 222.374 92.05 239.044 127.97C239.044 127.97 252.624 149.05 254.964 159.56C257.304 170.07 252.584 213.29 252.964 237.43C253.344 261.57 163.414 251.15 163.414 251.15C163.414 251.15 155.654 118.89 183.884 103.6Z" fill="#B14762"/>
<path d="M223.724 38.42C234.333 38.42 242.934 29.8194 242.934 19.21C242.934 8.60061 234.333 0 223.724 0C213.115 0 204.514 8.60061 204.514 19.21C204.514 29.8194 213.115 38.42 223.724 38.42Z" fill="#916A47"/>
<path d="M241.104 53.68C241.492 54.4345 242.014 55.1121 242.644 55.68C243.264 56.33 243.784 56.92 243.644 57.73C243.325 58.9853 242.813 60.1831 242.124 61.28C242.957 61.6289 243.655 62.2383 244.113 63.0171C244.571 63.7959 244.764 64.7021 244.664 65.6C244.414 68.91 242.374 68.14 242.374 68.14C242.379 68.1697 242.379 68.2002 242.374 68.23C242.644 69.09 244.684 75.92 241.594 78.05C238.274 80.35 222.024 80.6 222.024 80.6C222.024 80.6 217.544 87.76 222.024 109.07C223.774 117.4 187.964 109.07 187.964 109.07L190.964 12.24C190.964 12.24 212.574 6.64999 223.254 11.99C233.934 17.33 235.194 27.99 235.444 31.55C235.694 35.11 234.174 38.42 239.004 41.21C243.834 44 248.164 45.28 245.874 47.56C243.584 49.84 240.344 51.91 241.104 53.68Z" fill="#FFC191"/>
<path d="M222.004 40.71C222.004 40.71 228.414 40.71 232.004 36.77C232.004 36.77 233.154 38.25 230.684 40.22L230.194 44.33L226.254 41.53C226.254 41.53 222.504 41.36 222.004 40.71Z" fill="#7E373F"/>
<path d="M244.664 65.62C244.414 68.93 242.374 68.16 242.374 68.16C242.379 68.1898 242.379 68.2203 242.374 68.25C237.904 68 233.054 61.64 233.054 61.64C237.464 61.42 241.874 56.55 242.614 55.7C243.234 56.35 243.754 56.94 243.614 57.75C243.295 59.0053 242.782 60.2031 242.094 61.3C242.933 61.6439 243.637 62.2513 244.101 63.0305C244.564 63.8098 244.762 64.7186 244.664 65.62Z" fill="#F5755D"/>
<path d="M213.274 7.05999C213.274 7.05999 224.624 21.91 213.274 32.06C201.924 42.21 198.794 48.47 198.214 60.98C198.214 60.98 158.264 55.98 168.454 28.86C178.644 1.73999 202.214 1.52999 213.274 7.05999Z" fill="#916A47"/>
<path d="M186.884 54.51C186.884 54.51 210.164 105.08 192.334 127.39C175.924 147.94 150.744 138.9 146.074 128.91C141.404 118.92 152.674 100.71 154.454 87.38C156.234 74.05 163.784 36.3 167.784 30.3C171.784 24.3 186.884 54.51 186.884 54.51Z" fill="#916A47"/>
<path d="M198.684 52.6C198.684 52.6 196.684 43.27 188.614 44.73C180.544 46.19 181.474 61.36 191.544 64.36C201.614 67.36 199.594 53.52 198.684 52.6Z" fill="#FFB880"/>
<path d="M219.794 35.49C219.794 35.49 225.204 28.58 231.334 30.78C231.334 30.78 231.834 28.78 230.634 27.93C229.434 27.08 222.204 27.27 219.794 35.49Z" fill="#916A47"/>
<path d="M186.534 51.59C186.534 51.59 192.814 48.59 196.534 56.14C196.504 56.14 195.694 45.71 186.534 51.59Z" fill="#7E373F"/>
<path d="M194.544 52.36C194.544 52.36 188.794 56.19 194.234 59.59C194.234 59.59 187.804 58.17 192.504 51.68L194.544 52.36Z" fill="#7E373F"/>
<path d="M247.884 221.18C247.884 221.18 279.704 206.23 295.884 241.18C295.884 241.18 309.084 261.67 311.354 271.89C313.624 282.11 306.484 287.36 306.884 310.86C307.284 334.36 229.654 328.27 229.654 328.27C229.654 328.27 220.434 236.05 247.884 221.18Z" fill="#FAE0C8"/>
<path d="M286.884 135.36C286.884 145.68 272.314 156.81 261.994 156.81C257.041 156.807 252.291 154.838 248.788 151.336C245.286 147.833 243.317 143.083 243.314 138.13C243.314 127.81 249.314 118.21 259.624 118.21C269.934 118.21 286.884 125.05 286.884 135.36Z" fill="#52211D"/>
<path d="M297.884 168.93C298.244 169.677 298.755 170.341 299.384 170.88C299.984 171.52 300.494 172.09 300.384 172.88C300.068 174.111 299.562 175.285 298.884 176.36C299.694 176.7 300.372 177.293 300.817 178.05C301.262 178.807 301.45 179.687 301.354 180.56C301.104 183.78 299.124 183.03 299.124 183.03V183.12C299.384 183.95 297.924 190.82 294.924 192.89C291.704 195.12 279.334 195.14 279.334 195.14C279.334 195.14 273.094 210.08 279.454 222.49C280.264 224.07 290.214 235.07 287.874 235.66C285.244 236.31 276.434 229.66 265.414 226.71C258.815 225.164 252.071 224.319 245.294 224.19C245.294 224.19 249.894 203.62 250.084 197.62C250.634 180.09 249.184 128.68 249.184 128.68C249.184 128.68 270.184 123.25 280.574 128.44C290.964 133.63 293.634 141.82 293.874 145.29C294.114 148.76 291.244 156.04 295.944 158.76C300.644 161.48 301.174 161.76 301.084 164.19C300.994 166.62 297.584 167.99 297.884 168.93Z" fill="#8E3A32"/>
<path d="M279.354 156.36C279.354 156.36 285.584 156.36 289.104 152.53C289.104 152.53 290.214 153.97 287.824 155.88L287.344 159.88L283.504 157.16C283.504 157.16 279.884 156.95 279.354 156.36Z" fill="#52211D"/>
<path d="M301.384 180.53C301.134 183.75 299.154 183 299.154 183V183.09C294.814 182.85 290.094 176.66 290.094 176.66C294.384 176.45 298.664 171.72 299.384 170.88C299.984 171.52 300.494 172.09 300.384 172.88C300.068 174.111 299.562 175.285 298.884 176.36C299.694 176.694 300.375 177.279 300.825 178.031C301.275 178.782 301.471 179.658 301.384 180.53Z" fill="#692B25"/>
<path d="M270.884 123.6C270.884 123.6 281.884 138.03 270.884 147.94C259.884 157.85 250.884 173.86 250.164 189.69C250.164 189.69 217.404 171.14 227.304 144.82C237.204 118.5 260.104 118.23 270.884 123.6Z" fill="#52211D"/>
<path d="M256.674 167.88C256.674 167.88 254.674 158.8 246.884 160.22C239.094 161.64 239.944 176.42 249.734 179.27C259.524 182.12 257.564 168.77 256.674 167.88Z" fill="#8E3A32"/>
<path d="M277.194 151.23C277.194 151.23 282.454 144.53 288.424 146.65C288.424 146.65 288.914 144.74 287.744 143.89C286.574 143.04 279.544 143.25 277.194 151.23Z" fill="#52211D"/>
<path d="M244.884 166.89C244.884 166.89 250.994 163.94 254.574 171.32C254.554 171.36 253.774 161.18 244.884 166.89Z" fill="#52211D"/>
<path d="M252.644 167.66C252.644 167.66 247.054 171.39 252.344 174.66C252.344 174.66 246.094 173.27 250.664 166.96L252.644 167.66Z" fill="#52211D"/>
<path d="M229.874 154.78C242.129 154.78 252.064 144.845 252.064 132.59C252.064 120.335 242.129 110.4 229.874 110.4C217.619 110.4 207.684 120.335 207.684 132.59C207.684 144.845 217.619 154.78 229.874 154.78Z" fill="#52211D"/>
<path d="M240.424 120.29C240.424 121.439 240.765 122.562 241.403 123.518C242.042 124.473 242.949 125.218 244.011 125.658C245.072 126.097 246.24 126.213 247.367 125.988C248.494 125.764 249.53 125.211 250.342 124.398C251.155 123.586 251.708 122.551 251.932 121.423C252.156 120.296 252.041 119.128 251.602 118.067C251.162 117.005 250.417 116.098 249.462 115.459C248.506 114.821 247.383 114.48 246.234 114.48C244.693 114.48 243.215 115.092 242.126 116.182C241.036 117.271 240.424 118.749 240.424 120.29Z" fill="#52211D"/>
<path d="M242.054 120C244.733 120 246.904 117.829 246.904 115.15C246.904 112.471 244.733 110.3 242.054 110.3C239.375 110.3 237.204 112.471 237.204 115.15C237.204 117.829 239.375 120 242.054 120Z" fill="#52211D"/>
<path d="M229.964 119.43C233.432 119.43 236.244 116.618 236.244 113.15C236.244 109.682 233.432 106.87 229.964 106.87C226.496 106.87 223.684 109.682 223.684 113.15C223.684 116.618 226.496 119.43 229.964 119.43Z" fill="#52211D"/>
<path d="M236.624 115.63C238.728 115.63 240.434 113.924 240.434 111.82C240.434 109.716 238.728 108.01 236.624 108.01C234.52 108.01 232.814 109.716 232.814 111.82C232.814 113.924 234.52 115.63 236.624 115.63Z" fill="#52211D"/>
<path d="M221.684 119.44C225.208 119.44 228.064 116.584 228.064 113.06C228.064 109.536 225.208 106.68 221.684 106.68C218.16 106.68 215.304 109.536 215.304 113.06C215.304 116.584 218.16 119.44 221.684 119.44Z" fill="#52211D"/>
<path d="M213.024 131.8C217.017 131.8 220.254 128.563 220.254 124.57C220.254 120.577 217.017 117.34 213.024 117.34C209.031 117.34 205.794 120.577 205.794 124.57C205.794 128.563 209.031 131.8 213.024 131.8Z" fill="#52211D"/>
<path d="M220.634 117.91C220.634 119.039 220.299 120.143 219.672 121.082C219.044 122.021 218.152 122.753 217.109 123.185C216.066 123.618 214.918 123.731 213.81 123.51C212.702 123.29 211.685 122.746 210.886 121.948C210.088 121.149 209.544 120.132 209.324 119.024C209.103 117.916 209.216 116.768 209.649 115.725C210.081 114.682 210.813 113.79 211.752 113.162C212.691 112.535 213.795 112.2 214.924 112.2C216.438 112.2 217.891 112.802 218.962 113.872C220.032 114.943 220.634 116.396 220.634 117.91Z" fill="#52211D"/>
<path d="M215.962 140.074C218.899 137.137 218.899 132.375 215.962 129.439C213.025 126.502 208.264 126.502 205.327 129.439C202.39 132.375 202.39 137.137 205.327 140.074C208.264 143.01 213.025 143.01 215.962 140.074Z" fill="#52211D"/>
<path d="M220.848 149.352C223.859 146.341 223.859 141.459 220.848 138.448C217.837 135.438 212.956 135.438 209.945 138.448C206.934 141.459 206.934 146.341 209.945 149.352C212.956 152.363 217.837 152.363 220.848 149.352Z" fill="#52211D"/>
<path d="M222.824 157.13C226.243 157.13 229.014 154.359 229.014 150.94C229.014 147.521 226.243 144.75 222.824 144.75C219.405 144.75 216.634 147.521 216.634 150.94C216.634 154.359 219.405 157.13 222.824 157.13Z" fill="#52211D"/>
<path d="M250.414 179.83C250.412 180.509 250.612 181.174 250.988 181.739C251.364 182.305 251.9 182.746 252.527 183.007C253.154 183.268 253.844 183.337 254.511 183.205C255.177 183.073 255.789 182.746 256.269 182.265C256.75 181.785 257.076 181.173 257.209 180.507C257.341 179.84 257.272 179.15 257.011 178.523C256.75 177.896 256.309 177.36 255.743 176.984C255.178 176.608 254.513 176.408 253.834 176.41C253.385 176.41 252.94 176.498 252.525 176.67C252.11 176.842 251.733 177.094 251.416 177.412C251.098 177.729 250.846 178.106 250.674 178.521C250.502 178.936 250.414 179.381 250.414 179.83Z" fill="#3E62AB"/>
<path d="M149.984 152.52C149.991 156.042 149.302 159.531 147.959 162.787C146.616 166.044 144.643 169.003 142.155 171.496C139.667 173.989 136.711 175.967 133.458 177.316C130.204 178.665 126.716 179.36 123.194 179.36C108.404 179.36 99.324 168.24 99.324 153.44C99.324 138.64 114.634 132.06 129.434 132.06C144.234 132.06 149.984 137.72 149.984 152.52Z" fill="#D14B1D"/>
<path d="M132.214 197.94C132.214 197.94 169.304 186.81 185.374 221.43C185.374 221.43 198.464 241.74 200.714 251.88C202.964 262.02 195.834 267.26 196.214 290.53C196.594 313.8 119.654 307.79 119.654 307.79C119.654 307.79 104.994 212.68 132.214 197.94Z" fill="#7E373F"/>
<path d="M170.594 135.13C180.822 135.13 189.114 126.838 189.114 116.61C189.114 106.382 180.822 98.09 170.594 98.09C160.366 98.09 152.074 106.382 152.074 116.61C152.074 126.838 160.366 135.13 170.594 135.13Z" fill="#D14B1D"/>
<path d="M187.344 149.83C187.716 150.561 188.217 151.218 188.824 151.77C189.424 152.4 189.924 152.97 189.824 153.77C189.518 154.98 189.022 156.135 188.354 157.19C189.158 157.526 189.83 158.115 190.269 158.867C190.707 159.62 190.888 160.495 190.784 161.36C190.534 164.55 188.574 163.81 188.574 163.81C188.575 163.837 188.575 163.863 188.574 163.89C188.834 164.72 190.804 171.31 187.824 173.36C184.634 175.57 168.964 175.81 168.964 175.81C168.964 175.81 163.464 181.44 168.884 201.71C169.884 205.51 176.454 212.29 175.754 212.82C169.374 217.6 131.754 207.93 134.614 201.36C147.234 172.75 139.074 109.93 139.074 109.93C139.074 109.93 159.904 104.54 170.194 109.68C180.484 114.82 181.694 125.11 181.934 128.54C182.174 131.97 180.714 135.16 185.374 137.85C190.034 140.54 192.854 143.51 190.644 145.7C188.434 147.89 186.614 148.12 187.344 149.83Z" fill="#E2887F"/>
<path d="M168.944 137.36C168.944 137.36 175.114 137.36 178.604 133.56C178.604 133.56 179.714 134.98 177.334 136.88L176.864 140.88L173.054 138.19C173.054 138.19 169.414 137.96 168.944 137.36Z" fill="#7E373F"/>
<path d="M190.784 161.36C190.534 164.55 188.574 163.81 188.574 163.81C188.575 163.837 188.575 163.863 188.574 163.89C184.274 163.65 179.574 157.52 179.574 157.52C183.824 157.31 188.074 152.62 188.784 151.79C189.384 152.42 189.884 152.99 189.784 153.79C189.478 155 188.982 156.155 188.314 157.21C189.122 157.538 189.8 158.121 190.246 158.87C190.692 159.619 190.881 160.494 190.784 161.36Z" fill="#D14B1D"/>
<path d="M160.524 104.9C160.524 104.9 171.464 119.21 160.524 129.02C149.584 138.83 146.574 144.83 146.014 156.89C146.014 156.89 107.504 152.03 117.324 125.94C127.144 99.85 149.884 99.57 160.524 104.9Z" fill="#D14B1D"/>
<path d="M125.594 139.46C125.929 140.001 126.053 140.648 125.94 141.274C125.828 141.901 125.487 142.464 124.985 142.855C124.482 143.246 123.853 143.437 123.217 143.392C122.582 143.347 121.986 143.068 121.544 142.61C116.964 137.82 113.194 132.66 114.974 130C116.884 127.11 121.484 132.92 125.594 139.46Z" fill="#3E62AB"/>
<path d="M146.464 148.79C146.464 148.79 144.524 139.79 136.754 141.21C128.984 142.63 129.874 157.21 139.584 160.08C149.294 162.95 147.344 149.67 146.464 148.79Z" fill="#E2887F"/>
<path d="M166.804 132.29C166.804 132.29 172.014 125.64 177.934 127.75C177.934 127.75 178.414 125.86 177.254 125.01C176.094 124.16 169.124 124.36 166.804 132.29Z" fill="#D14B1D"/>
<path d="M134.754 147.81C134.754 147.81 140.754 144.89 144.364 152.2C144.364 152.2 143.584 142.15 134.754 147.81Z" fill="#7E373F"/>
<path d="M142.464 148.58C142.464 148.58 136.924 152.28 142.174 155.58C142.174 155.58 135.974 154.21 140.504 147.96L142.464 148.58Z" fill="#7E373F"/>
<path d="M134.774 196.78C134.774 196.78 162.704 197.27 181.234 217.97C181.234 217.97 116.724 227.6 122.024 215.32C127.324 203.04 134.774 196.78 134.774 196.78Z" fill="#7E373F"/>
<path d="M122.424 246.51C122.424 246.51 136.324 251.42 157.604 248.96C157.604 248.96 158.414 301.73 156.374 311.96C154.334 322.19 126.514 316.05 126.514 316.05C126.514 316.05 123.184 264.49 122.424 246.51Z" fill="#E2887F"/>
<path d="M22.474 259.57C22.474 259.57 54.304 244.63 70.474 279.57C70.474 279.57 83.674 300.06 85.944 310.28C88.214 320.5 81.024 325.8 81.404 349.28C81.784 372.76 4.17404 366.69 4.17404 366.69C4.17404 366.69 -4.98597 274.44 22.474 259.57Z" fill="#F397B4"/>
<path d="M66.884 173.85C66.344 184.15 46.884 195.2 36.544 195.2C31.6659 195.087 27.0256 193.07 23.6155 189.58C20.2054 186.09 18.2961 181.404 18.2961 176.525C18.2961 171.646 20.2054 166.96 23.6155 163.47C27.0256 159.98 31.6659 157.963 36.544 157.85C46.884 157.85 67.604 160.87 66.884 173.85Z" fill="#FFCDB4"/>
<path d="M72.5039 207.36C72.8564 208.109 73.3643 208.773 73.9939 209.31C74.604 209.94 75.104 210.52 74.9939 211.31C74.6811 212.529 74.1819 213.693 73.514 214.76C74.3257 215.097 75.0056 215.689 75.4512 216.447C75.8968 217.205 76.0838 218.087 75.984 218.96C75.744 222.18 73.7539 221.43 73.7539 221.43C73.7594 221.46 73.7594 221.49 73.7539 221.52C74.0139 222.35 72.5639 229.22 69.5539 231.29C66.3339 233.51 53.9739 233.54 53.9739 233.54C53.9739 233.54 47.7339 248.48 54.0839 260.89C54.8939 262.47 64.8439 273.47 62.5039 274.06C59.8839 274.71 51.064 268.01 40.044 265.06C33.4439 263.52 26.7001 262.679 19.924 262.55C19.924 262.55 24.524 241.98 24.714 235.98C25.264 218.45 23.8139 167.04 23.8139 167.04C23.8139 167.04 44.8139 161.6 55.2039 166.8C65.5939 172 68.2639 180.18 68.5039 183.65C68.7439 187.12 65.8739 194.4 70.5839 197.11C75.2939 199.82 75.8039 200.11 75.7239 202.55C75.6439 204.99 72.1639 206.36 72.5039 207.36Z" fill="#E2887F"/>
<path d="M53.934 194.71C53.934 194.71 60.164 194.71 63.684 190.88C63.684 190.88 64.804 192.32 62.404 194.23L61.924 198.23L58.094 195.51C58.094 195.51 54.414 195.36 53.934 194.71Z" fill="#52211D"/>
<path d="M75.964 218.93C75.724 222.15 73.734 221.4 73.734 221.4C73.7394 221.43 73.7394 221.46 73.734 221.49C69.394 221.24 64.674 215.06 64.674 215.06C68.964 214.85 73.244 210.12 73.964 209.28C74.574 209.91 75.074 210.49 74.964 211.28C74.6511 212.499 74.1519 213.663 73.484 214.73C74.2975 215.066 74.9797 215.657 75.4271 216.415C75.8746 217.173 76.063 218.056 75.964 218.93Z" fill="#BF655C"/>
<path d="M45.444 162C45.444 162 56.444 176.43 45.444 186.33C34.444 196.23 25.444 212.26 24.724 228.08C24.724 228.08 -8.03601 209.54 1.86399 183.22C11.764 156.9 34.694 156.62 45.444 162Z" fill="#FFCDB4"/>
<path d="M31.264 206.28C31.264 206.28 29.264 197.2 21.474 198.62C13.684 200.04 14.534 214.82 24.314 217.67C34.094 220.52 32.154 207.17 31.264 206.28Z" fill="#E2887F"/>
<path d="M51.7839 189.63C51.7839 189.63 57.0439 182.92 63.0039 185.05C63.0039 185.05 63.4939 183.14 62.3239 182.29C61.1539 181.44 54.1239 181.65 51.7839 189.63Z" fill="#FFCDB4"/>
<path d="M19.444 205.29C19.444 205.29 25.554 202.34 29.144 209.71C29.144 209.71 28.354 199.58 19.444 205.29Z" fill="#9C5937"/>
<path d="M27.234 206.06C27.234 206.06 21.644 209.79 26.934 213.06C26.934 213.06 20.684 211.67 25.244 205.36L27.234 206.06Z" fill="#9C5937"/>
<path d="M28.524 236.01C28.524 236.01 46.814 242.76 56.094 242.2C65.374 241.64 51.034 252.61 57.214 269.49C63.394 286.37 35.274 284.36 27.114 279.36C18.954 274.36 10.804 278.49 28.524 236.01Z" fill="#F397B4"/>
<path d="M0.984009 199.62C0.984009 199.62 6.19401 234.9 23.074 248.7C23.074 248.7 25.834 258.21 34.424 260.7C43.014 263.19 45.154 264.99 45.154 264.99C45.154 264.99 45.774 270.52 53.444 273.28C57.6884 274.697 61.637 276.879 65.094 279.72C65.094 279.72 60.804 282.79 71.234 288.92C81.664 295.05 83.234 299.35 83.234 299.35C83.234 299.35 80.474 285.55 73.114 278.49C73.114 278.49 65.444 265.61 61.454 264.99C61.454 264.99 55.324 253.99 46.114 254.87C46.114 254.87 43.054 243.87 34.114 241.07C34.114 241.07 30.114 224.19 21.844 220.51C13.574 216.83 0.984009 199.62 0.984009 199.62Z" fill="#FFCDB4"/>
<path d="M33.194 215.56H26.444C25.5051 215.56 24.744 216.321 24.744 217.26V224.01C24.744 224.949 25.5051 225.71 26.444 225.71H33.194C34.1329 225.71 34.894 224.949 34.894 224.01V217.26C34.894 216.321 34.1329 215.56 33.194 215.56Z" fill="#3E62AB"/>
</svg>
