<svg width="15" height="15" viewBox="0 0 15 15" fill="none" xmlns="http://www.w3.org/2000/svg">
<g clip-path="url(#clip0)">
<path d="M14.6148 11.0635L12.75 9.19877C12.2359 8.68469 11.3994 8.68469 10.8853 9.19877L10.0377 10.0464C9.64826 10.4358 9.01451 10.4357 8.62519 10.0465L4.95135 6.36953C4.56097 5.97915 4.56091 5.3473 4.95135 4.95686C5.08787 4.82034 5.4799 4.42832 5.79894 4.10927C6.31079 3.59746 6.31793 2.76352 5.79844 2.24409L3.93422 0.385723C3.42012 -0.12835 2.5836 -0.12835 2.07087 0.384376C1.6872 0.764708 1.56345 0.887404 1.39142 1.05794C-0.46249 2.91182 -0.46249 5.92832 1.39133 7.78214L7.2124 13.6063C9.07065 15.4645 12.0783 15.4647 13.9367 13.6063L14.6148 12.9282C15.1289 12.4141 15.1289 11.5776 14.6148 11.0635ZM2.69109 1.00729C2.86245 0.835929 3.14124 0.8359 3.31315 1.00776L5.17738 2.86612C5.34914 3.03789 5.34914 3.31588 5.17738 3.48768L4.86656 3.79846L2.38189 1.31379L2.69109 1.00729ZM7.83408 12.9848L2.01298 7.16061C0.578664 5.72629 0.499826 3.47409 1.77052 1.94558L4.24799 4.42304C3.59701 5.16101 3.62414 6.28551 4.32964 6.99101L8.00336 10.6678C8.00339 10.6678 8.00345 10.6679 8.00348 10.6679C8.70821 11.3727 9.83266 11.4016 10.5715 10.7497L13.0491 13.2272C11.5254 14.4957 9.27827 14.429 7.83408 12.9848ZM13.9932 12.3066L13.6824 12.6174L11.1961 10.1311L11.5069 9.82033C11.6783 9.64897 11.9571 9.64894 12.1285 9.82033L13.9932 11.685C14.1646 11.8564 14.1646 12.1353 13.9932 12.3066Z" fill="white"/>
</g>
<defs>
<clipPath id="clip0">
<rect width="15" height="15" fill="white"/>
</clipPath>
</defs>
</svg>
